<svg width="1895" height="758" viewBox="0 0 1895 758" fill="none" xmlns="http://www.w3.org/2000/svg">
<g clip-path="url(#clip0_141_5018)">
<rect width="1920" height="758" transform="translate(-25)" fill="#31BF5C"/>
<g clip-path="url(#clip1_141_5018)">
<path d="M-39.43 645.685C-39.43 645.685 27.0972 609.054 141.911 619.415C151.109 620.246 160.228 621.799 169.182 624.059C182.093 627.317 207.124 631.982 234.963 628.536C267.507 624.352 297.155 607.704 317.66 582.101C343.596 549.967 419.459 469.35 505.078 503.081C505.078 503.081 582.949 536.076 699.455 676.809C699.455 676.809 740.604 613.026 798.741 644.571C803.521 647.2 808.05 650.26 812.272 653.713C827.926 666.385 888.576 715.636 926.865 749.041H1043.35C1043.35 749.041 1194.43 602.087 1385.03 622.01C1385.03 622.01 1526.14 637.268 1631.73 755.893L1644.82 740.015C1644.82 740.015 1763.5 572.517 1970.96 625.478V797H-55L-39.43 645.685Z" fill="white" fill-opacity="0.1"/>
</g>
<path d="M625.469 433.281L613.094 471H603.125L620.031 425.5H626.375L625.469 433.281ZM635.75 471L623.344 433.281L622.344 425.5H628.75L645.75 471H635.75ZM635.188 454.062V461.406H611.156V454.062H635.188ZM663.375 464.594C664.479 464.594 665.458 464.385 666.312 463.969C667.167 463.531 667.833 462.927 668.312 462.156C668.812 461.365 669.073 460.438 669.094 459.375H677.562C677.542 461.75 676.906 463.865 675.656 465.719C674.406 467.552 672.729 469 670.625 470.062C668.521 471.104 666.167 471.625 663.562 471.625C660.938 471.625 658.646 471.188 656.688 470.312C654.75 469.438 653.135 468.229 651.844 466.688C650.552 465.125 649.583 463.312 648.938 461.25C648.292 459.167 647.969 456.938 647.969 454.562V453.656C647.969 451.26 648.292 449.031 648.938 446.969C649.583 444.885 650.552 443.073 651.844 441.531C653.135 439.969 654.75 438.75 656.688 437.875C658.625 437 660.896 436.562 663.5 436.562C666.271 436.562 668.698 437.094 670.781 438.156C672.885 439.219 674.531 440.74 675.719 442.719C676.927 444.677 677.542 447 677.562 449.688H669.094C669.073 448.562 668.833 447.542 668.375 446.625C667.938 445.708 667.292 444.979 666.438 444.438C665.604 443.875 664.573 443.594 663.344 443.594C662.031 443.594 660.958 443.875 660.125 444.438C659.292 444.979 658.646 445.729 658.188 446.688C657.729 447.625 657.406 448.698 657.219 449.906C657.052 451.094 656.969 452.344 656.969 453.656V454.562C656.969 455.875 657.052 457.135 657.219 458.344C657.385 459.552 657.698 460.625 658.156 461.562C658.635 462.5 659.292 463.24 660.125 463.781C660.958 464.323 662.042 464.594 663.375 464.594ZM699.344 437.188V443.562H679.656V437.188H699.344ZM684.531 428.844H693.531V460.812C693.531 461.792 693.656 462.542 693.906 463.062C694.177 463.583 694.573 463.948 695.094 464.156C695.615 464.344 696.271 464.438 697.062 464.438C697.625 464.438 698.125 464.417 698.562 464.375C699.021 464.312 699.406 464.25 699.719 464.188L699.75 470.812C698.979 471.062 698.146 471.26 697.25 471.406C696.354 471.552 695.365 471.625 694.281 471.625C692.302 471.625 690.573 471.302 689.094 470.656C687.635 469.99 686.51 468.927 685.719 467.469C684.927 466.01 684.531 464.094 684.531 461.719V428.844ZM713.969 437.188V471H704.938V437.188H713.969ZM704.375 428.375C704.375 427.062 704.833 425.979 705.75 425.125C706.667 424.271 707.896 423.844 709.438 423.844C710.958 423.844 712.177 424.271 713.094 425.125C714.031 425.979 714.5 427.062 714.5 428.375C714.5 429.688 714.031 430.771 713.094 431.625C712.177 432.479 710.958 432.906 709.438 432.906C707.896 432.906 706.667 432.479 705.75 431.625C704.833 430.771 704.375 429.688 704.375 428.375ZM730.406 443.688V484H721.406V437.188H729.75L730.406 443.688ZM751.812 453.719V454.375C751.812 456.833 751.521 459.115 750.938 461.219C750.375 463.323 749.542 465.156 748.438 466.719C747.333 468.26 745.958 469.469 744.312 470.344C742.688 471.198 740.812 471.625 738.688 471.625C736.625 471.625 734.833 471.208 733.312 470.375C731.792 469.542 730.51 468.375 729.469 466.875C728.448 465.354 727.625 463.594 727 461.594C726.375 459.594 725.896 457.448 725.562 455.156V453.438C725.896 450.979 726.375 448.729 727 446.688C727.625 444.625 728.448 442.844 729.469 441.344C730.51 439.823 731.781 438.646 733.281 437.812C734.802 436.979 736.583 436.562 738.625 436.562C740.771 436.562 742.656 436.969 744.281 437.781C745.927 438.594 747.302 439.76 748.406 441.281C749.531 442.802 750.375 444.615 750.938 446.719C751.521 448.823 751.812 451.156 751.812 453.719ZM742.781 454.375V453.719C742.781 452.281 742.656 450.958 742.406 449.75C742.177 448.521 741.802 447.448 741.281 446.531C740.781 445.615 740.115 444.906 739.281 444.406C738.469 443.885 737.479 443.625 736.312 443.625C735.083 443.625 734.031 443.823 733.156 444.219C732.302 444.615 731.604 445.188 731.062 445.938C730.521 446.688 730.115 447.583 729.844 448.625C729.573 449.667 729.406 450.844 729.344 452.156V456.5C729.448 458.042 729.74 459.427 730.219 460.656C730.698 461.865 731.438 462.823 732.438 463.531C733.438 464.24 734.75 464.594 736.375 464.594C737.562 464.594 738.562 464.333 739.375 463.812C740.188 463.271 740.844 462.531 741.344 461.594C741.865 460.656 742.229 459.573 742.438 458.344C742.667 457.115 742.781 455.792 742.781 454.375ZM775.656 463.375V448.312C775.656 447.229 775.479 446.302 775.125 445.531C774.771 444.74 774.219 444.125 773.469 443.688C772.74 443.25 771.792 443.031 770.625 443.031C769.625 443.031 768.76 443.208 768.031 443.562C767.302 443.896 766.74 444.385 766.344 445.031C765.948 445.656 765.75 446.396 765.75 447.25H756.75C756.75 445.812 757.083 444.448 757.75 443.156C758.417 441.865 759.385 440.729 760.656 439.75C761.927 438.75 763.438 437.969 765.188 437.406C766.958 436.844 768.938 436.562 771.125 436.562C773.75 436.562 776.083 437 778.125 437.875C780.167 438.75 781.771 440.062 782.938 441.812C784.125 443.562 784.719 445.75 784.719 448.375V462.844C784.719 464.698 784.833 466.219 785.062 467.406C785.292 468.573 785.625 469.594 786.062 470.469V471H776.969C776.531 470.083 776.198 468.938 775.969 467.562C775.76 466.167 775.656 464.771 775.656 463.375ZM776.844 450.406L776.906 455.5H771.875C770.688 455.5 769.656 455.635 768.781 455.906C767.906 456.177 767.188 456.562 766.625 457.062C766.062 457.542 765.646 458.104 765.375 458.75C765.125 459.396 765 460.104 765 460.875C765 461.646 765.177 462.344 765.531 462.969C765.885 463.573 766.396 464.052 767.062 464.406C767.729 464.74 768.51 464.906 769.406 464.906C770.76 464.906 771.938 464.635 772.938 464.094C773.938 463.552 774.708 462.885 775.25 462.094C775.812 461.302 776.104 460.552 776.125 459.844L778.5 463.656C778.167 464.51 777.708 465.396 777.125 466.312C776.562 467.229 775.844 468.094 774.969 468.906C774.094 469.698 773.042 470.354 771.812 470.875C770.583 471.375 769.125 471.625 767.438 471.625C765.292 471.625 763.344 471.198 761.594 470.344C759.865 469.469 758.49 468.271 757.469 466.75C756.469 465.208 755.969 463.458 755.969 461.5C755.969 459.729 756.302 458.156 756.969 456.781C757.635 455.406 758.615 454.25 759.906 453.312C761.219 452.354 762.854 451.635 764.812 451.156C766.771 450.656 769.042 450.406 771.625 450.406H776.844ZM805.625 464.594C806.729 464.594 807.708 464.385 808.562 463.969C809.417 463.531 810.083 462.927 810.562 462.156C811.062 461.365 811.323 460.438 811.344 459.375H819.812C819.792 461.75 819.156 463.865 817.906 465.719C816.656 467.552 814.979 469 812.875 470.062C810.771 471.104 808.417 471.625 805.812 471.625C803.188 471.625 800.896 471.188 798.938 470.312C797 469.438 795.385 468.229 794.094 466.688C792.802 465.125 791.833 463.312 791.188 461.25C790.542 459.167 790.219 456.938 790.219 454.562V453.656C790.219 451.26 790.542 449.031 791.188 446.969C791.833 444.885 792.802 443.073 794.094 441.531C795.385 439.969 797 438.75 798.938 437.875C800.875 437 803.146 436.562 805.75 436.562C808.521 436.562 810.948 437.094 813.031 438.156C815.135 439.219 816.781 440.74 817.969 442.719C819.177 444.677 819.792 447 819.812 449.688H811.344C811.323 448.562 811.083 447.542 810.625 446.625C810.188 445.708 809.542 444.979 808.688 444.438C807.854 443.875 806.823 443.594 805.594 443.594C804.281 443.594 803.208 443.875 802.375 444.438C801.542 444.979 800.896 445.729 800.438 446.688C799.979 447.625 799.656 448.698 799.469 449.906C799.302 451.094 799.219 452.344 799.219 453.656V454.562C799.219 455.875 799.302 457.135 799.469 458.344C799.635 459.552 799.948 460.625 800.406 461.562C800.885 462.5 801.542 463.24 802.375 463.781C803.208 464.323 804.292 464.594 805.625 464.594ZM840.594 471.625C837.969 471.625 835.615 471.208 833.531 470.375C831.448 469.521 829.677 468.344 828.219 466.844C826.781 465.344 825.677 463.604 824.906 461.625C824.135 459.625 823.75 457.5 823.75 455.25V454C823.75 451.438 824.115 449.094 824.844 446.969C825.573 444.844 826.615 443 827.969 441.438C829.344 439.875 831.01 438.677 832.969 437.844C834.927 436.99 837.135 436.562 839.594 436.562C841.99 436.562 844.115 436.958 845.969 437.75C847.823 438.542 849.375 439.667 850.625 441.125C851.896 442.583 852.854 444.333 853.5 446.375C854.146 448.396 854.469 450.646 854.469 453.125V456.875H827.594V450.875H845.625V450.188C845.625 448.938 845.396 447.823 844.938 446.844C844.5 445.844 843.833 445.052 842.938 444.469C842.042 443.885 840.896 443.594 839.5 443.594C838.312 443.594 837.292 443.854 836.438 444.375C835.583 444.896 834.885 445.625 834.344 446.562C833.823 447.5 833.427 448.604 833.156 449.875C832.906 451.125 832.781 452.5 832.781 454V455.25C832.781 456.604 832.969 457.854 833.344 459C833.74 460.146 834.292 461.135 835 461.969C835.729 462.802 836.604 463.448 837.625 463.906C838.667 464.365 839.844 464.594 841.156 464.594C842.781 464.594 844.292 464.281 845.688 463.656C847.104 463.01 848.323 462.042 849.344 460.75L853.719 465.5C853.01 466.521 852.042 467.5 850.812 468.438C849.604 469.375 848.146 470.146 846.438 470.75C844.729 471.333 842.781 471.625 840.594 471.625ZM894.75 425.5V471H885.406V425.5H894.75ZM908.75 425.5V432.844H871.625V425.5H908.75ZM906.656 454.438V453.781C906.656 451.302 907.01 449.021 907.719 446.938C908.427 444.833 909.458 443.01 910.812 441.469C912.167 439.927 913.833 438.729 915.812 437.875C917.792 437 920.062 436.562 922.625 436.562C925.188 436.562 927.469 437 929.469 437.875C931.469 438.729 933.146 439.927 934.5 441.469C935.875 443.01 936.917 444.833 937.625 446.938C938.333 449.021 938.688 451.302 938.688 453.781V454.438C938.688 456.896 938.333 459.177 937.625 461.281C936.917 463.365 935.875 465.188 934.5 466.75C933.146 468.292 931.479 469.49 929.5 470.344C927.521 471.198 925.25 471.625 922.688 471.625C920.125 471.625 917.844 471.198 915.844 470.344C913.865 469.49 912.188 468.292 910.812 466.75C909.458 465.188 908.427 463.365 907.719 461.281C907.01 459.177 906.656 456.896 906.656 454.438ZM915.656 453.781V454.438C915.656 455.854 915.781 457.177 916.031 458.406C916.281 459.635 916.677 460.719 917.219 461.656C917.781 462.573 918.51 463.292 919.406 463.812C920.302 464.333 921.396 464.594 922.688 464.594C923.938 464.594 925.01 464.333 925.906 463.812C926.802 463.292 927.521 462.573 928.062 461.656C928.604 460.719 929 459.635 929.25 458.406C929.521 457.177 929.656 455.854 929.656 454.438V453.781C929.656 452.406 929.521 451.115 929.25 449.906C929 448.677 928.594 447.594 928.031 446.656C927.49 445.698 926.771 444.948 925.875 444.406C924.979 443.865 923.896 443.594 922.625 443.594C921.354 443.594 920.271 443.865 919.375 444.406C918.5 444.948 917.781 445.698 917.219 446.656C916.677 447.594 916.281 448.677 916.031 449.906C915.781 451.115 915.656 452.406 915.656 453.781ZM960.781 437.188V443.562H941.094V437.188H960.781ZM945.969 428.844H954.969V460.812C954.969 461.792 955.094 462.542 955.344 463.062C955.615 463.583 956.01 463.948 956.531 464.156C957.052 464.344 957.708 464.438 958.5 464.438C959.062 464.438 959.562 464.417 960 464.375C960.458 464.312 960.844 464.25 961.156 464.188L961.188 470.812C960.417 471.062 959.583 471.26 958.688 471.406C957.792 471.552 956.802 471.625 955.719 471.625C953.74 471.625 952.01 471.302 950.531 470.656C949.073 469.99 947.948 468.927 947.156 467.469C946.365 466.01 945.969 464.094 945.969 461.719V428.844ZM984.156 463.375V448.312C984.156 447.229 983.979 446.302 983.625 445.531C983.271 444.74 982.719 444.125 981.969 443.688C981.24 443.25 980.292 443.031 979.125 443.031C978.125 443.031 977.26 443.208 976.531 443.562C975.802 443.896 975.24 444.385 974.844 445.031C974.448 445.656 974.25 446.396 974.25 447.25H965.25C965.25 445.812 965.583 444.448 966.25 443.156C966.917 441.865 967.885 440.729 969.156 439.75C970.427 438.75 971.938 437.969 973.688 437.406C975.458 436.844 977.438 436.562 979.625 436.562C982.25 436.562 984.583 437 986.625 437.875C988.667 438.75 990.271 440.062 991.438 441.812C992.625 443.562 993.219 445.75 993.219 448.375V462.844C993.219 464.698 993.333 466.219 993.562 467.406C993.792 468.573 994.125 469.594 994.562 470.469V471H985.469C985.031 470.083 984.698 468.938 984.469 467.562C984.26 466.167 984.156 464.771 984.156 463.375ZM985.344 450.406L985.406 455.5H980.375C979.188 455.5 978.156 455.635 977.281 455.906C976.406 456.177 975.688 456.562 975.125 457.062C974.562 457.542 974.146 458.104 973.875 458.75C973.625 459.396 973.5 460.104 973.5 460.875C973.5 461.646 973.677 462.344 974.031 462.969C974.385 463.573 974.896 464.052 975.562 464.406C976.229 464.74 977.01 464.906 977.906 464.906C979.26 464.906 980.438 464.635 981.438 464.094C982.438 463.552 983.208 462.885 983.75 462.094C984.312 461.302 984.604 460.552 984.625 459.844L987 463.656C986.667 464.51 986.208 465.396 985.625 466.312C985.062 467.229 984.344 468.094 983.469 468.906C982.594 469.698 981.542 470.354 980.312 470.875C979.083 471.375 977.625 471.625 975.938 471.625C973.792 471.625 971.844 471.198 970.094 470.344C968.365 469.469 966.99 468.271 965.969 466.75C964.969 465.208 964.469 463.458 964.469 461.5C964.469 459.729 964.802 458.156 965.469 456.781C966.135 455.406 967.115 454.25 968.406 453.312C969.719 452.354 971.354 451.635 973.312 451.156C975.271 450.656 977.542 450.406 980.125 450.406H985.344ZM1009.66 423V471H1000.62V423H1009.66ZM1057.28 459.094C1057.28 458.281 1057.16 457.552 1056.91 456.906C1056.68 456.24 1056.24 455.635 1055.59 455.094C1054.95 454.531 1054.04 453.979 1052.88 453.438C1051.71 452.896 1050.2 452.333 1048.34 451.75C1046.28 451.083 1044.32 450.333 1042.47 449.5C1040.64 448.667 1039.01 447.698 1037.59 446.594C1036.2 445.469 1035.09 444.167 1034.28 442.688C1033.49 441.208 1033.09 439.49 1033.09 437.531C1033.09 435.635 1033.51 433.917 1034.34 432.375C1035.18 430.812 1036.34 429.479 1037.84 428.375C1039.34 427.25 1041.11 426.385 1043.16 425.781C1045.22 425.177 1047.48 424.875 1049.94 424.875C1053.29 424.875 1056.22 425.479 1058.72 426.688C1061.22 427.896 1063.16 429.552 1064.53 431.656C1065.93 433.76 1066.62 436.167 1066.62 438.875H1057.31C1057.31 437.542 1057.03 436.375 1056.47 435.375C1055.93 434.354 1055.09 433.552 1053.97 432.969C1052.86 432.385 1051.47 432.094 1049.78 432.094C1048.16 432.094 1046.8 432.344 1045.72 432.844C1044.64 433.323 1043.82 433.979 1043.28 434.812C1042.74 435.625 1042.47 436.542 1042.47 437.562C1042.47 438.333 1042.66 439.031 1043.03 439.656C1043.43 440.281 1044.01 440.865 1044.78 441.406C1045.55 441.948 1046.5 442.458 1047.62 442.938C1048.75 443.417 1050.05 443.885 1051.53 444.344C1054.01 445.094 1056.19 445.938 1058.06 446.875C1059.96 447.812 1061.54 448.865 1062.81 450.031C1064.08 451.198 1065.04 452.521 1065.69 454C1066.33 455.479 1066.66 457.156 1066.66 459.031C1066.66 461.01 1066.27 462.781 1065.5 464.344C1064.73 465.906 1063.61 467.229 1062.16 468.312C1060.7 469.396 1058.96 470.219 1056.94 470.781C1054.92 471.344 1052.66 471.625 1050.16 471.625C1047.91 471.625 1045.69 471.333 1043.5 470.75C1041.31 470.146 1039.32 469.24 1037.53 468.031C1035.76 466.823 1034.34 465.281 1033.28 463.406C1032.22 461.531 1031.69 459.312 1031.69 456.75H1041.09C1041.09 458.167 1041.31 459.365 1041.75 460.344C1042.19 461.323 1042.8 462.115 1043.59 462.719C1044.41 463.323 1045.36 463.76 1046.47 464.031C1047.59 464.302 1048.82 464.438 1050.16 464.438C1051.78 464.438 1053.11 464.208 1054.16 463.75C1055.22 463.292 1056 462.656 1056.5 461.844C1057.02 461.031 1057.28 460.115 1057.28 459.094ZM1088.03 471.625C1085.41 471.625 1083.05 471.208 1080.97 470.375C1078.89 469.521 1077.11 468.344 1075.66 466.844C1074.22 465.344 1073.11 463.604 1072.34 461.625C1071.57 459.625 1071.19 457.5 1071.19 455.25V454C1071.19 451.438 1071.55 449.094 1072.28 446.969C1073.01 444.844 1074.05 443 1075.41 441.438C1076.78 439.875 1078.45 438.677 1080.41 437.844C1082.36 436.99 1084.57 436.562 1087.03 436.562C1089.43 436.562 1091.55 436.958 1093.41 437.75C1095.26 438.542 1096.81 439.667 1098.06 441.125C1099.33 442.583 1100.29 444.333 1100.94 446.375C1101.58 448.396 1101.91 450.646 1101.91 453.125V456.875H1075.03V450.875H1093.06V450.188C1093.06 448.938 1092.83 447.823 1092.38 446.844C1091.94 445.844 1091.27 445.052 1090.38 444.469C1089.48 443.885 1088.33 443.594 1086.94 443.594C1085.75 443.594 1084.73 443.854 1083.88 444.375C1083.02 444.896 1082.32 445.625 1081.78 446.562C1081.26 447.5 1080.86 448.604 1080.59 449.875C1080.34 451.125 1080.22 452.5 1080.22 454V455.25C1080.22 456.604 1080.41 457.854 1080.78 459C1081.18 460.146 1081.73 461.135 1082.44 461.969C1083.17 462.802 1084.04 463.448 1085.06 463.906C1086.1 464.365 1087.28 464.594 1088.59 464.594C1090.22 464.594 1091.73 464.281 1093.12 463.656C1094.54 463.01 1095.76 462.042 1096.78 460.75L1101.16 465.5C1100.45 466.521 1099.48 467.5 1098.25 468.438C1097.04 469.375 1095.58 470.146 1093.88 470.75C1092.17 471.333 1090.22 471.625 1088.03 471.625ZM1121 464.594C1122.1 464.594 1123.08 464.385 1123.94 463.969C1124.79 463.531 1125.46 462.927 1125.94 462.156C1126.44 461.365 1126.7 460.438 1126.72 459.375H1135.19C1135.17 461.75 1134.53 463.865 1133.28 465.719C1132.03 467.552 1130.35 469 1128.25 470.062C1126.15 471.104 1123.79 471.625 1121.19 471.625C1118.56 471.625 1116.27 471.188 1114.31 470.312C1112.38 469.438 1110.76 468.229 1109.47 466.688C1108.18 465.125 1107.21 463.312 1106.56 461.25C1105.92 459.167 1105.59 456.938 1105.59 454.562V453.656C1105.59 451.26 1105.92 449.031 1106.56 446.969C1107.21 444.885 1108.18 443.073 1109.47 441.531C1110.76 439.969 1112.38 438.75 1114.31 437.875C1116.25 437 1118.52 436.562 1121.12 436.562C1123.9 436.562 1126.32 437.094 1128.41 438.156C1130.51 439.219 1132.16 440.74 1133.34 442.719C1134.55 444.677 1135.17 447 1135.19 449.688H1126.72C1126.7 448.562 1126.46 447.542 1126 446.625C1125.56 445.708 1124.92 444.979 1124.06 444.438C1123.23 443.875 1122.2 443.594 1120.97 443.594C1119.66 443.594 1118.58 443.875 1117.75 444.438C1116.92 444.979 1116.27 445.729 1115.81 446.688C1115.35 447.625 1115.03 448.698 1114.84 449.906C1114.68 451.094 1114.59 452.344 1114.59 453.656V454.562C1114.59 455.875 1114.68 457.135 1114.84 458.344C1115.01 459.552 1115.32 460.625 1115.78 461.562C1116.26 462.5 1116.92 463.24 1117.75 463.781C1118.58 464.323 1119.67 464.594 1121 464.594ZM1160.41 462.906V437.188H1169.41V471H1160.94L1160.41 462.906ZM1161.41 455.969L1164.06 455.906C1164.06 458.156 1163.8 460.25 1163.28 462.188C1162.76 464.104 1161.98 465.771 1160.94 467.188C1159.9 468.583 1158.58 469.677 1157 470.469C1155.42 471.24 1153.55 471.625 1151.41 471.625C1149.76 471.625 1148.24 471.396 1146.84 470.938C1145.47 470.458 1144.28 469.719 1143.28 468.719C1142.3 467.698 1141.53 466.396 1140.97 464.812C1140.43 463.208 1140.16 461.281 1140.16 459.031V437.188H1149.16V459.094C1149.16 460.094 1149.27 460.938 1149.5 461.625C1149.75 462.312 1150.09 462.875 1150.53 463.312C1150.97 463.75 1151.48 464.062 1152.06 464.25C1152.67 464.438 1153.33 464.531 1154.06 464.531C1155.92 464.531 1157.38 464.156 1158.44 463.406C1159.52 462.656 1160.28 461.635 1160.72 460.344C1161.18 459.031 1161.41 457.573 1161.41 455.969ZM1185.28 444.562V471H1176.28V437.188H1184.75L1185.28 444.562ZM1195.47 436.969L1195.31 445.312C1194.88 445.25 1194.34 445.198 1193.72 445.156C1193.11 445.094 1192.56 445.062 1192.06 445.062C1190.79 445.062 1189.69 445.229 1188.75 445.562C1187.83 445.875 1187.06 446.344 1186.44 446.969C1185.83 447.594 1185.38 448.354 1185.06 449.25C1184.77 450.146 1184.6 451.167 1184.56 452.312L1182.75 451.75C1182.75 449.562 1182.97 447.552 1183.41 445.719C1183.84 443.865 1184.48 442.25 1185.31 440.875C1186.17 439.5 1187.21 438.438 1188.44 437.688C1189.67 436.938 1191.07 436.562 1192.66 436.562C1193.16 436.562 1193.67 436.604 1194.19 436.688C1194.71 436.75 1195.14 436.844 1195.47 436.969ZM1209.22 437.188V471H1200.19V437.188H1209.22ZM1199.62 428.375C1199.62 427.062 1200.08 425.979 1201 425.125C1201.92 424.271 1203.15 423.844 1204.69 423.844C1206.21 423.844 1207.43 424.271 1208.34 425.125C1209.28 425.979 1209.75 427.062 1209.75 428.375C1209.75 429.688 1209.28 430.771 1208.34 431.625C1207.43 432.479 1206.21 432.906 1204.69 432.906C1203.15 432.906 1201.92 432.479 1201 431.625C1200.08 430.771 1199.62 429.688 1199.62 428.375ZM1233.22 437.188V443.562H1213.53V437.188H1233.22ZM1218.41 428.844H1227.41V460.812C1227.41 461.792 1227.53 462.542 1227.78 463.062C1228.05 463.583 1228.45 463.948 1228.97 464.156C1229.49 464.344 1230.15 464.438 1230.94 464.438C1231.5 464.438 1232 464.417 1232.44 464.375C1232.9 464.312 1233.28 464.25 1233.59 464.188L1233.62 470.812C1232.85 471.062 1232.02 471.26 1231.12 471.406C1230.23 471.552 1229.24 471.625 1228.16 471.625C1226.18 471.625 1224.45 471.302 1222.97 470.656C1221.51 469.99 1220.39 468.927 1219.59 467.469C1218.8 466.01 1218.41 464.094 1218.41 461.719V428.844ZM1248.38 467.188L1257.34 437.188H1267L1253.41 476.094C1253.11 476.948 1252.72 477.865 1252.22 478.844C1251.74 479.823 1251.08 480.75 1250.25 481.625C1249.44 482.521 1248.41 483.25 1247.16 483.812C1245.93 484.375 1244.42 484.656 1242.62 484.656C1241.77 484.656 1241.07 484.604 1240.53 484.5C1239.99 484.396 1239.34 484.25 1238.59 484.062V477.469C1238.82 477.469 1239.06 477.469 1239.31 477.469C1239.56 477.49 1239.8 477.5 1240.03 477.5C1241.22 477.5 1242.19 477.365 1242.94 477.094C1243.69 476.823 1244.29 476.406 1244.75 475.844C1245.21 475.302 1245.57 474.594 1245.84 473.719L1248.38 467.188ZM1244.62 437.188L1251.97 461.688L1253.25 471.219L1247.12 471.875L1234.97 437.188H1244.62Z" fill="white"/>
<g clip-path="url(#clip2_141_5018)">
<path d="M116 386H372C372 386 362.348 340.639 314.159 339.036C314.159 339.036 282.021 336.892 257.909 367.859C257.909 367.859 187.759 331.56 116 386Z" fill="white" fill-opacity="0.1"/>
</g>
<g clip-path="url(#clip3_141_5018)">
<path d="M1361 505.993H1794C1794 505.993 1777.67 404.662 1696.17 401.081C1696.17 401.081 1641.81 396.292 1601.03 465.469C1601.03 465.469 1482.37 384.38 1361 505.993Z" fill="white" fill-opacity="0.1"/>
</g>
</g>
<defs>
<clipPath id="clip0_141_5018">
<rect width="1920" height="758" fill="white" transform="translate(-25)"/>
</clipPath>
<clipPath id="clip1_141_5018">
<rect width="2026" height="302" fill="white" transform="translate(-55 495)"/>
</clipPath>
<clipPath id="clip2_141_5018">
<rect width="256" height="47" fill="white" transform="translate(116 339)"/>
</clipPath>
<clipPath id="clip3_141_5018">
<rect width="433" height="104.993" fill="white" transform="translate(1361 401)"/>
</clipPath>
</defs>
</svg>
