<svg width="311" height="112" viewBox="0 0 311 112" fill="none" xmlns="http://www.w3.org/2000/svg">
<g filter="url(#filter0_dd_141_5022)">
<g clip-path="url(#clip0_141_5022)">
<rect x="16" y="8" width="278.83" height="72" rx="36" fill="#31BF5C"/>
<rect x="15.9902" y="8" width="278.83" height="72" rx="36" fill="white"/>
<g clip-path="url(#clip1_141_5022)">
<path d="M59 31H71V43H59V31ZM73 31H85V43H73V31ZM59 45H71V57H59V45ZM73 45H85V57H73M127.914 43.407C127.955 47.795 131.764 49.256 131.807 49.274C131.774 49.377 131.197 51.356 129.8 53.399C128.591 55.166 127.337 56.926 125.36 56.962C123.418 56.998 122.794 55.811 120.574 55.811C118.354 55.811 117.661 56.926 115.823 56.998C113.915 57.07 112.463 55.088 111.244 53.328C108.754 49.727 106.851 43.154 109.406 38.716C110.676 36.513 112.944 35.117 115.406 35.082C117.28 35.046 119.048 36.342 120.193 36.342C121.337 36.342 123.486 34.783 125.744 35.012C126.69 35.052 129.344 35.394 131.048 37.889C130.911 37.974 127.882 39.738 127.914 43.407ZM124.265 32.63C125.278 31.404 125.959 29.698 125.773 28C124.313 28.059 122.549 28.973 121.501 30.198C120.563 31.283 119.741 33.019 119.963 34.684C121.59 34.81 123.253 33.857 124.265 32.63Z" fill="#31BF5C"/>
<path d="M397 33.252H413C413.638 33.252 414.206 33.5509 414.572 34.0159C414.714 34.0059 414.856 34.0009 415 34.0009H416.8C416.536 33.2012 416.027 32.505 415.345 32.0115C414.663 31.5179 413.842 31.2521 413 31.252H397C395.939 31.252 394.922 31.6734 394.172 32.4235C393.421 33.1737 393 34.1911 393 35.252V44.252C393 45.3128 393.421 46.3302 394.172 47.0804C394.922 47.8305 395.939 48.252 397 48.252H404V50.705H400C399.735 50.705 399.48 50.8103 399.293 50.9978C399.105 51.1854 399 51.4397 399 51.705C399 51.9702 399.105 52.2245 399.293 52.412C399.48 52.5996 399.735 52.705 400 52.705H409V50.705H406V48.252H409V45.252H397C396.47 45.252 395.961 45.0412 395.586 44.6662C395.211 44.2911 395 43.7824 395 43.252V35.252C395 34.7215 395.211 34.2128 395.586 33.8377C395.961 33.4627 396.47 33.252 397 33.252ZM447.273 53.39C446.271 53.3885 445.281 53.1727 444.37 52.757C443.458 52.3414 442.646 51.7355 441.988 50.9801C441.33 50.2247 440.842 49.3373 440.555 48.3774C440.268 47.4175 440.19 46.4073 440.326 45.4148C440.462 44.4223 440.809 43.4704 441.343 42.6229C441.878 41.7755 442.587 41.0522 443.424 40.5016C444.261 39.951 445.206 39.5859 446.196 39.4307C447.185 39.2755 448.197 39.3339 449.162 39.6019C449.961 38.0948 451.156 36.8339 452.618 35.9547C454.079 35.0755 455.753 34.6113 457.459 34.6119C459.69 34.6118 461.849 35.4062 463.548 36.8529C465.247 38.2996 466.375 40.304 466.73 42.5069C468.134 42.6181 469.44 43.2682 470.375 44.3212C471.31 45.3741 471.801 46.7481 471.746 48.1551C471.69 49.5622 471.092 50.8931 470.077 51.869C469.062 52.8448 467.708 53.3899 466.3 53.39H447.273ZM83.5 92.0079C83.5 85.6569 78.351 80.5079 72 80.5079C65.649 80.5079 60.5 85.6569 60.5 92.0079C60.5 97.4009 64.213 101.926 69.222 103.169V95.5219H66.85V92.0079H69.22V90.494C69.22 86.579 70.992 84.765 74.835 84.765C75.564 84.765 76.821 84.9079 77.335 85.0509V88.2359C76.8932 88.2024 76.4501 88.1884 76.007 88.1939C74.121 88.1939 73.392 88.908 73.392 90.765V92.0079H77.148L76.503 95.5219H73.393V103.424C79.086 102.736 83.5 97.8869 83.5 92.0079Z" fill="#F8E2D4"/>
</g>
<path d="M112.147 36.959V51H109.254V36.959H112.147ZM117.74 42.9573V45.2139H111.356V42.9573H117.74ZM118.415 36.959V39.2252H111.356V36.959H118.415ZM123.646 42.8416V51H120.869V40.5657H123.482L123.646 42.8416ZM126.79 40.4982L126.742 43.073C126.607 43.0537 126.443 43.0376 126.25 43.0248C126.063 43.0055 125.893 42.9958 125.739 42.9958C125.347 42.9958 125.006 43.0473 124.716 43.1501C124.434 43.2466 124.196 43.3912 124.003 43.5841C123.816 43.777 123.675 44.0116 123.579 44.2881C123.489 44.5645 123.437 44.8796 123.424 45.2332L122.865 45.0596C122.865 44.3845 122.932 43.7641 123.067 43.1984C123.202 42.6262 123.399 42.1279 123.656 41.7036C123.919 41.2793 124.241 40.9514 124.62 40.72C124.999 40.4885 125.433 40.3728 125.922 40.3728C126.076 40.3728 126.234 40.3857 126.394 40.4114C126.555 40.4307 126.687 40.4596 126.79 40.4982ZM133.911 51.1929C133.101 51.1929 132.374 51.0643 131.732 50.8071C131.089 50.5435 130.542 50.1803 130.092 49.7174C129.649 49.2545 129.308 48.7177 129.07 48.1069C128.832 47.4897 128.713 46.834 128.713 46.1396V45.7539C128.713 44.9631 128.826 44.2399 129.051 43.5841C129.276 42.9283 129.597 42.3594 130.015 41.8772C130.439 41.395 130.954 41.0253 131.558 40.7682C132.162 40.5046 132.844 40.3728 133.602 40.3728C134.342 40.3728 134.997 40.495 135.57 40.7393C136.142 40.9836 136.621 41.3307 137.007 41.7808C137.399 42.2308 137.694 42.7708 137.894 43.4009C138.093 44.0245 138.193 44.7188 138.193 45.4839V46.6411H129.899V44.7896H135.464V44.5774C135.464 44.1917 135.393 43.8477 135.251 43.5455C135.116 43.2369 134.911 42.9926 134.634 42.8126C134.358 42.6326 134.004 42.5426 133.573 42.5426C133.207 42.5426 132.892 42.623 132.628 42.7837C132.365 42.9444 132.149 43.1694 131.982 43.4587C131.822 43.748 131.699 44.0888 131.616 44.481C131.539 44.8667 131.5 45.291 131.5 45.7539V46.1396C131.5 46.5575 131.558 46.9433 131.674 47.2969C131.796 47.6505 131.966 47.9559 132.185 48.213C132.41 48.4702 132.68 48.6695 132.995 48.8109C133.316 48.9524 133.68 49.0231 134.085 49.0231C134.586 49.0231 135.052 48.9266 135.483 48.7338C135.92 48.5345 136.296 48.2355 136.611 47.8369L137.961 49.3027C137.743 49.6178 137.444 49.9199 137.064 50.2092C136.692 50.4985 136.242 50.7364 135.714 50.9229C135.187 51.1029 134.586 51.1929 133.911 51.1929ZM145.777 51.1929C144.967 51.1929 144.24 51.0643 143.597 50.8071C142.954 50.5435 142.408 50.1803 141.958 49.7174C141.514 49.2545 141.174 48.7177 140.936 48.1069C140.698 47.4897 140.579 46.834 140.579 46.1396V45.7539C140.579 44.9631 140.691 44.2399 140.916 43.5841C141.141 42.9283 141.463 42.3594 141.881 41.8772C142.305 41.395 142.819 41.0253 143.424 40.7682C144.028 40.5046 144.71 40.3728 145.468 40.3728C146.208 40.3728 146.863 40.495 147.435 40.7393C148.008 40.9836 148.487 41.3307 148.872 41.7808C149.265 42.2308 149.56 42.7708 149.76 43.4009C149.959 44.0245 150.058 44.7188 150.058 45.4839V46.6411H141.765V44.7896H147.329V44.5774C147.329 44.1917 147.259 43.8477 147.117 43.5455C146.982 43.2369 146.776 42.9926 146.5 42.8126C146.224 42.6326 145.87 42.5426 145.439 42.5426C145.073 42.5426 144.758 42.623 144.494 42.7837C144.231 42.9444 144.015 43.1694 143.848 43.4587C143.687 43.748 143.565 44.0888 143.482 44.481C143.404 44.8667 143.366 45.291 143.366 45.7539V46.1396C143.366 46.5575 143.424 46.9433 143.539 47.2969C143.662 47.6505 143.832 47.9559 144.051 48.213C144.276 48.4702 144.546 48.6695 144.861 48.8109C145.182 48.9524 145.545 49.0231 145.95 49.0231C146.452 49.0231 146.918 48.9266 147.349 48.7338C147.786 48.5345 148.162 48.2355 148.477 47.8369L149.827 49.3027C149.608 49.6178 149.31 49.9199 148.93 50.2092C148.557 50.4985 148.107 50.7364 147.58 50.9229C147.053 51.1029 146.452 51.1929 145.777 51.1929ZM163.443 51H160.385L160.405 48.7434H163.443C164.201 48.7434 164.841 48.573 165.362 48.2323C165.882 47.8851 166.274 47.3805 166.538 46.7183C166.808 46.0561 166.943 45.2557 166.943 44.317V43.6323C166.943 42.9123 166.866 42.279 166.712 41.7325C166.564 41.1861 166.342 40.7264 166.046 40.3535C165.751 39.9806 165.387 39.701 164.957 39.5145C164.526 39.3217 164.031 39.2252 163.471 39.2252H160.328V36.959H163.471C164.41 36.959 165.268 37.1197 166.046 37.4412C166.831 37.7562 167.509 38.2094 168.081 38.8009C168.653 39.3924 169.094 40.0996 169.402 40.9225C169.717 41.739 169.875 42.6487 169.875 43.6516V44.317C169.875 45.3135 169.717 46.2232 169.402 47.0461C169.094 47.8691 168.653 48.5763 168.081 49.1677C167.515 49.7528 166.837 50.206 166.046 50.5275C165.262 50.8425 164.394 51 163.443 51ZM162.025 36.959V51H159.132V36.959H162.025ZM172.56 45.8889V45.6864C172.56 44.9213 172.669 44.2174 172.888 43.5745C173.106 42.9251 173.425 42.3626 173.842 41.8868C174.26 41.4111 174.775 41.0414 175.385 40.7778C175.996 40.5078 176.697 40.3728 177.488 40.3728C178.278 40.3728 178.982 40.5078 179.6 40.7778C180.217 41.0414 180.734 41.4111 181.152 41.8868C181.577 42.3626 181.898 42.9251 182.117 43.5745C182.335 44.2174 182.445 44.9213 182.445 45.6864V45.8889C182.445 46.6475 182.335 47.3515 182.117 48.0009C181.898 48.6438 181.577 49.2063 181.152 49.6885C180.734 50.1642 180.22 50.5339 179.609 50.7975C178.999 51.0611 178.298 51.1929 177.507 51.1929C176.716 51.1929 176.012 51.0611 175.395 50.7975C174.784 50.5339 174.267 50.1642 173.842 49.6885C173.425 49.2063 173.106 48.6438 172.888 48.0009C172.669 47.3515 172.56 46.6475 172.56 45.8889ZM175.337 45.6864V45.8889C175.337 46.3261 175.376 46.7343 175.453 47.1136C175.53 47.493 175.652 47.8273 175.819 48.1166C175.993 48.3995 176.218 48.6213 176.494 48.782C176.771 48.9427 177.108 49.0231 177.507 49.0231C177.893 49.0231 178.224 48.9427 178.5 48.782C178.777 48.6213 178.999 48.3995 179.166 48.1166C179.333 47.8273 179.455 47.493 179.532 47.1136C179.616 46.7343 179.658 46.3261 179.658 45.8889V45.6864C179.658 45.2621 179.616 44.8635 179.532 44.4906C179.455 44.1113 179.33 43.777 179.156 43.4877C178.989 43.1919 178.767 42.9605 178.491 42.7933C178.214 42.6262 177.88 42.5426 177.488 42.5426C177.096 42.5426 176.761 42.6262 176.485 42.7933C176.215 42.9605 175.993 43.1919 175.819 43.4877C175.652 43.777 175.53 44.1113 175.453 44.4906C175.376 44.8635 175.337 45.2621 175.337 45.6864ZM188.331 48.2998L190.501 40.5657H192.266L191.697 43.6034L189.527 51H188.052L188.331 48.2998ZM187.232 40.5657L188.785 48.2902L188.929 51H187.193L184.551 40.5657H187.232ZM194.252 48.1648L195.766 40.5657H198.457L195.815 51H194.088L194.252 48.1648ZM192.507 40.5657L194.667 48.2419L194.966 51H193.481L191.311 43.613L190.761 40.5657H192.507ZM203.775 42.7933V51H200.997V40.5657H203.601L203.775 42.7933ZM203.37 45.4164H202.618C202.618 44.6449 202.717 43.9506 202.917 43.3334C203.116 42.7098 203.395 42.1794 203.756 41.7422C204.116 41.2986 204.543 40.9611 205.038 40.7296C205.54 40.4917 206.099 40.3728 206.716 40.3728C207.205 40.3728 207.652 40.4435 208.057 40.585C208.462 40.7264 208.809 40.9514 209.098 41.26C209.394 41.5686 209.619 41.9768 209.773 42.4847C209.934 42.9926 210.014 43.613 210.014 44.3459V51H207.218V44.3363C207.218 43.8734 207.153 43.5134 207.025 43.2562C206.896 42.9991 206.706 42.8191 206.456 42.7162C206.211 42.6069 205.909 42.5522 205.549 42.5522C205.176 42.5522 204.852 42.6262 204.575 42.774C204.305 42.9219 204.08 43.1276 203.9 43.3912C203.727 43.6484 203.595 43.9506 203.505 44.2977C203.415 44.6449 203.37 45.0178 203.37 45.4164ZM216.258 36.1875V51H213.471V36.1875H216.258ZM219.309 45.8889V45.6864C219.309 44.9213 219.419 44.2174 219.637 43.5745C219.856 42.9251 220.174 42.3626 220.592 41.8868C221.01 41.4111 221.524 41.0414 222.135 40.7778C222.746 40.5078 223.446 40.3728 224.237 40.3728C225.028 40.3728 225.732 40.5078 226.349 40.7778C226.966 41.0414 227.484 41.4111 227.902 41.8868C228.326 42.3626 228.648 42.9251 228.866 43.5745C229.085 44.2174 229.194 44.9213 229.194 45.6864V45.8889C229.194 46.6475 229.085 47.3515 228.866 48.0009C228.648 48.6438 228.326 49.2063 227.902 49.6885C227.484 50.1642 226.97 50.5339 226.359 50.7975C225.748 51.0611 225.047 51.1929 224.256 51.1929C223.466 51.1929 222.762 51.0611 222.145 50.7975C221.534 50.5339 221.016 50.1642 220.592 49.6885C220.174 49.2063 219.856 48.6438 219.637 48.0009C219.419 47.3515 219.309 46.6475 219.309 45.8889ZM222.087 45.6864V45.8889C222.087 46.3261 222.125 46.7343 222.202 47.1136C222.28 47.493 222.402 47.8273 222.569 48.1166C222.742 48.3995 222.967 48.6213 223.244 48.782C223.52 48.9427 223.858 49.0231 224.256 49.0231C224.642 49.0231 224.973 48.9427 225.25 48.782C225.526 48.6213 225.748 48.3995 225.915 48.1166C226.082 47.8273 226.204 47.493 226.282 47.1136C226.365 46.7343 226.407 46.3261 226.407 45.8889V45.6864C226.407 45.2621 226.365 44.8635 226.282 44.4906C226.204 44.1113 226.079 43.777 225.906 43.4877C225.738 43.1919 225.517 42.9605 225.24 42.7933C224.964 42.6262 224.629 42.5426 224.237 42.5426C223.845 42.5426 223.511 42.6262 223.234 42.7933C222.964 42.9605 222.742 43.1919 222.569 43.4877C222.402 43.777 222.28 44.1113 222.202 44.4906C222.125 44.8635 222.087 45.2621 222.087 45.6864ZM237.733 48.647V43.9988C237.733 43.6645 237.678 43.3784 237.569 43.1405C237.459 42.8962 237.289 42.7065 237.058 42.5715C236.833 42.4365 236.54 42.369 236.18 42.369C235.872 42.369 235.605 42.4237 235.38 42.533C235.155 42.6358 234.981 42.7869 234.859 42.9862C234.737 43.1791 234.676 43.4073 234.676 43.6709H231.898C231.898 43.2273 232.001 42.8062 232.207 42.4076C232.413 42.009 232.712 41.6586 233.104 41.3564C233.496 41.0479 233.962 40.8068 234.502 40.6332C235.049 40.4596 235.659 40.3728 236.334 40.3728C237.144 40.3728 237.865 40.5078 238.495 40.7778C239.125 41.0479 239.62 41.4529 239.98 41.9929C240.346 42.533 240.529 43.208 240.529 44.0181V48.483C240.529 49.0552 240.565 49.5245 240.635 49.891C240.706 50.251 240.809 50.566 240.944 50.8361V51H238.138C238.003 50.7171 237.9 50.3635 237.829 49.9392C237.765 49.5085 237.733 49.0777 237.733 48.647ZM238.099 44.6449L238.118 46.2168H236.566C236.199 46.2168 235.881 46.2586 235.611 46.3422C235.341 46.4257 235.119 46.5447 234.946 46.699C234.772 46.8468 234.644 47.0204 234.56 47.2197C234.483 47.419 234.444 47.6376 234.444 47.8755C234.444 48.1134 234.499 48.3287 234.608 48.5216C234.717 48.708 234.875 48.8559 235.081 48.9652C235.286 49.0681 235.528 49.1195 235.804 49.1195C236.222 49.1195 236.585 49.0359 236.894 48.8688C237.202 48.7016 237.44 48.4959 237.607 48.2516C237.781 48.0073 237.871 47.7758 237.877 47.5573L238.61 48.7338C238.507 48.9974 238.366 49.2706 238.186 49.5535C238.012 49.8363 237.791 50.1031 237.521 50.3539C237.251 50.5982 236.926 50.8007 236.547 50.9614C236.167 51.1157 235.717 51.1929 235.196 51.1929C234.534 51.1929 233.933 51.0611 233.393 50.7975C232.86 50.5275 232.435 50.1578 232.12 49.6885C231.812 49.2127 231.657 48.6727 231.657 48.0684C231.657 47.5219 231.76 47.0365 231.966 46.6122C232.172 46.1879 232.474 45.8311 232.872 45.5417C233.277 45.246 233.782 45.0242 234.386 44.8763C234.991 44.722 235.691 44.6449 236.489 44.6449H238.099ZM250.032 48.7241V36.1875H252.829V51H250.312L250.032 48.7241ZM243.436 45.9082V45.7057C243.436 44.9085 243.526 44.1852 243.706 43.5359C243.886 42.8801 244.15 42.3176 244.497 41.8483C244.844 41.3789 245.272 41.0157 245.78 40.7585C246.288 40.5014 246.866 40.3728 247.515 40.3728C248.126 40.3728 248.66 40.5014 249.116 40.7585C249.579 41.0157 249.971 41.3822 250.293 41.8579C250.621 42.3272 250.884 42.8833 251.084 43.5262C251.283 44.1627 251.428 44.8603 251.518 45.6189V46.0625C251.428 46.789 251.283 47.464 251.084 48.0876C250.884 48.7113 250.621 49.2577 250.293 49.7271C249.971 50.1899 249.579 50.55 249.116 50.8071C248.653 51.0643 248.113 51.1929 247.496 51.1929C246.847 51.1929 246.268 51.0611 245.76 50.7975C245.259 50.5339 244.835 50.1642 244.487 49.6885C244.147 49.2127 243.886 48.6534 243.706 48.0105C243.526 47.3676 243.436 46.6668 243.436 45.9082ZM246.214 45.7057V45.9082C246.214 46.3389 246.246 46.7408 246.31 47.1136C246.381 47.4865 246.493 47.8176 246.648 48.1069C246.808 48.3898 247.014 48.6116 247.265 48.7723C247.522 48.9266 247.834 49.0038 248.2 49.0038C248.676 49.0038 249.068 48.8977 249.377 48.6855C249.685 48.467 249.92 48.168 250.081 47.7887C250.248 47.4094 250.344 46.9722 250.37 46.4772V45.2139C250.351 44.8088 250.293 44.4456 250.196 44.1241C250.106 43.7963 249.971 43.5166 249.791 43.2852C249.618 43.0537 249.399 42.8737 249.136 42.7451C248.878 42.6165 248.573 42.5522 248.219 42.5522C247.859 42.5522 247.551 42.6358 247.294 42.803C247.037 42.9637 246.828 43.1855 246.667 43.4684C246.513 43.7513 246.397 44.0856 246.32 44.4713C246.249 44.8506 246.214 45.2621 246.214 45.7057Z" fill="#31BF5C"/>
</g>
</g>
<defs>
<filter id="filter0_dd_141_5022" x="0" y="0" width="310.83" height="112" filterUnits="userSpaceOnUse" color-interpolation-filters="sRGB">
<feFlood flood-opacity="0" result="BackgroundImageFix"/>
<feColorMatrix in="SourceAlpha" type="matrix" values="0 0 0 0 0 0 0 0 0 0 0 0 0 0 0 0 0 0 127 0" result="hardAlpha"/>
<feMorphology radius="16" operator="erode" in="SourceAlpha" result="effect1_dropShadow_141_5022"/>
<feOffset dy="16"/>
<feGaussianBlur stdDeviation="16"/>
<feComposite in2="hardAlpha" operator="out"/>
<feColorMatrix type="matrix" values="0 0 0 0 0.192157 0 0 0 0 0.74902 0 0 0 0 0.360784 0 0 0 0.32 0"/>
<feBlend mode="normal" in2="BackgroundImageFix" result="effect1_dropShadow_141_5022"/>
<feColorMatrix in="SourceAlpha" type="matrix" values="0 0 0 0 0 0 0 0 0 0 0 0 0 0 0 0 0 0 127 0" result="hardAlpha"/>
<feMorphology radius="16" operator="erode" in="SourceAlpha" result="effect2_dropShadow_141_5022"/>
<feOffset dy="8"/>
<feGaussianBlur stdDeviation="16"/>
<feComposite in2="hardAlpha" operator="out"/>
<feColorMatrix type="matrix" values="0 0 0 0 0.192157 0 0 0 0 0.74902 0 0 0 0 0.360784 0 0 0 0.32 0"/>
<feBlend mode="normal" in2="effect1_dropShadow_141_5022" result="effect2_dropShadow_141_5022"/>
<feBlend mode="normal" in="SourceGraphic" in2="effect2_dropShadow_141_5022" result="shape"/>
</filter>
<clipPath id="clip0_141_5022">
<rect x="16" y="8" width="278.83" height="72" rx="36" fill="white"/>
</clipPath>
<clipPath id="clip1_141_5022">
<rect width="32" height="32" fill="white" transform="translate(56 28)"/>
</clipPath>
</defs>
</svg>
