<?xml version="1.0" encoding="UTF-8"?>
<svg version="1.1" xmlns="http://www.w3.org/2000/svg" width="1175" height="690">
<path d="M0 0 C387.75 0 775.5 0 1175 0 C1175 227.7 1175 455.4 1175 690 C787.25 690 399.5 690 0 690 C0 462.3 0 234.6 0 0 Z " fill="#FEFEFE" transform="translate(0,0)"/>
<path d="M0 0 C8.9926704 6.89866286 14.66622957 16.16572822 16.25 27.375 C17.31051432 39.75271715 14.98130867 50.88086299 6.89453125 60.60546875 C-0.81492803 68.90092019 -10.27099624 74.716122 -21.81640625 75.61328125 C-34.77228792 75.88832231 -45.02541832 72.44925756 -54.65234375 63.6328125 C-63.09389162 54.72947317 -67.06076227 44.38286568 -66.8984375 32.2734375 C-66.25604864 19.72994967 -61.67892897 10.3049961 -52.58203125 1.64453125 C-36.83309612 -10.97633952 -16.46322522 -11.02009927 0 0 Z " fill="#F97427" transform="translate(606.75,296.625)"/>
<path d="M0 0 C4.6922111 2.24042512 7.70650781 4.67677298 10.6015625 9.0546875 C11.01631866 11.8706053 11.21011662 14.28845912 11.203125 17.1015625 C11.21169525 17.87220032 11.2202655 18.64283813 11.22909546 19.43682861 C11.24054954 21.06396572 11.24160635 22.6912052 11.23291016 24.31835938 C11.22661436 26.78437331 11.27343117 29.24552113 11.32421875 31.7109375 C11.38849461 39.60679842 11.41346426 45.96113942 6.32543945 52.43457031 C1.21903182 57.23362442 -4.40290413 59.70491083 -11.3984375 60.0546875 C-12.37941406 60.12816406 -13.36039063 60.20164062 -14.37109375 60.27734375 C-22.14022762 60.63172529 -28.07009323 59.7918358 -34.3984375 55.0546875 C-39.19576508 49.68624949 -38.83970913 44.37696051 -38.83203125 37.359375 C-38.36393608 33.79173077 -37.54020099 31.91543542 -35.3984375 29.0546875 C-28.47088505 23.78372368 -21.8274542 22.48528804 -13.4609375 21.19921875 C-9.83666808 20.60789058 -7.49616157 20.11983688 -4.3984375 18.0546875 C-4.7284375 16.4046875 -5.0584375 14.7546875 -5.3984375 13.0546875 C-8.28764444 12.09161852 -10.32091631 11.8590939 -13.3359375 11.8046875 C-14.19058594 11.77890625 -15.04523437 11.753125 -15.92578125 11.7265625 C-18.46872236 11.84288155 -18.46872236 11.84288155 -20.23046875 13.55859375 C-23.38782059 15.73745097 -26.46204353 15.37807537 -30.1484375 15.2421875 C-30.84582031 15.22865234 -31.54320312 15.21511719 -32.26171875 15.20117188 C-33.97429291 15.165982 -35.68646691 15.11217905 -37.3984375 15.0546875 C-36.28583919 10.26592675 -35.38685298 7.35478828 -31.5234375 4.2421875 C-30.84539063 3.67886719 -30.16734375 3.11554688 -29.46875 2.53515625 C-21.51770375 -3.15059192 -9.15735913 -2.54721944 0 0 Z " fill="#FEFCFA" transform="translate(595.3984375,300.9453125)"/>
<path d="M0 0 C0.34394547 5.73242442 0.38869294 10.09223781 -3 15 C-6.65663572 18.22644328 -10.1957903 18.52822387 -14.90625 18.34765625 C-17 18 -17 18 -19.5625 16.375 C-21.43910956 13.27451464 -21.59452734 11.56716403 -21 8 C-17.90501881 4.01530678 -14.73056193 3.02008581 -9.9375 1.75 C-8.70902344 1.41484375 -7.48054687 1.0796875 -6.21484375 0.734375 C-3 0 -3 0 0 0 Z " fill="#F97528" transform="translate(592,331)"/>
</svg>
