<svg width="80" height="80" viewBox="0 0 80 80" fill="none" xmlns="http://www.w3.org/2000/svg">
<path fill-rule="evenodd" clip-rule="evenodd" d="M36.8557 23.0856C35.9941 23.0856 35.1518 23.3411 34.4354 23.8198C33.719 24.2985 33.1607 24.9789 32.8309 25.775C32.5012 26.571 32.4149 27.447 32.583 28.2921C32.7511 29.1372 33.166 29.9135 33.7753 30.5228C34.3845 31.132 35.1608 31.547 36.0058 31.7151C36.8509 31.8832 37.7268 31.7969 38.5228 31.4672C39.3188 31.1374 39.9992 30.579 40.4779 29.8626C40.9566 29.1461 41.2121 28.3038 41.2121 27.4422C41.2121 26.8701 41.0994 26.3036 40.8805 25.775C40.6615 25.2464 40.3406 24.7661 39.9361 24.3616C39.5316 23.9571 39.0513 23.6361 38.5228 23.4172C37.9943 23.1983 37.4278 23.0856 36.8557 23.0856ZM57.3749 47.5525C57.5777 47.3565 57.8494 47.2481 58.1315 47.2506C58.4135 47.253 58.6833 47.3661 58.8827 47.5656C59.0822 47.765 59.1953 48.0348 59.1977 48.3169C59.2002 48.5989 59.0918 48.8706 58.8958 49.0735L51.7326 56.2372C51.5309 56.4388 51.2573 56.5521 50.9721 56.5521C50.6869 56.5521 50.4133 56.4388 50.2116 56.2372L46.63 52.6554C46.434 52.4525 46.3256 52.1808 46.3281 51.8987C46.3305 51.6167 46.4436 51.3469 46.6431 51.1474C46.8425 50.948 47.1123 50.8348 47.3943 50.8324C47.6763 50.8299 47.9481 50.9384 48.1509 51.1343L50.9721 53.9555L57.3749 47.5525ZM52.763 40.9672C50.6019 40.9672 48.4892 41.6081 46.6923 42.8088C44.8953 44.0095 43.4948 45.7162 42.6677 47.713C41.8407 49.7098 41.6243 51.907 42.0459 54.0267C42.4675 56.1465 43.5082 58.0936 45.0364 59.6219C46.5646 61.1501 48.5116 62.1909 50.6313 62.6125C52.7509 63.0342 54.948 62.8178 56.9447 61.9907C58.9413 61.1636 60.6479 59.763 61.8486 57.9659C63.0493 56.1689 63.6901 54.0561 63.6901 51.8948C63.6901 48.9966 62.5388 46.2172 60.4895 44.1678C58.4403 42.1185 55.6609 40.9672 52.7629 40.9672H52.763ZM58.9686 45.6891C57.7413 44.4616 56.1776 43.6257 54.4752 43.287C52.7729 42.9483 51.0083 43.122 49.4047 43.7863C47.8011 44.4505 46.4304 45.5754 45.4661 47.0186C44.5018 48.4619 43.9871 50.1587 43.9871 51.8946C43.9871 53.6304 44.5018 55.3272 45.4661 56.7705C46.4304 58.2138 47.8011 59.3386 49.4047 60.0029C51.0083 60.6671 52.7729 60.8408 54.4752 60.5021C56.1776 60.1634 57.7413 59.3275 58.9686 58.1C60.6141 56.4542 61.5385 54.222 61.5385 51.8946C61.5385 49.5671 60.6141 47.335 58.9686 45.6891ZM53.4765 32.0618C53.2814 31.8878 53.0294 31.7911 52.768 31.7898C52.5066 31.7886 52.2537 31.8829 52.057 32.0551C50.3015 33.5938 48.3661 34.9142 46.293 35.9874C44.8451 34.3878 43.015 33.1819 40.9739 32.4825C41.9645 31.673 42.6946 30.5896 43.0731 29.3676C43.4517 28.1457 43.4619 26.8392 43.1025 25.6115C45.0093 24.196 47.2718 23.3381 49.6376 23.1335C52.0035 22.9289 54.3796 23.3856 56.5011 24.4526C58.6226 25.5197 60.4059 27.1551 61.6522 29.1765C62.8986 31.198 63.5588 33.5259 63.5594 35.9007L63.4906 37.7751C59.8022 36.5639 56.3962 34.6207 53.4765 32.0621V32.0618ZM65.5933 38.3777C67.3265 38.8042 69.0954 39.0693 70.8775 39.1695C71.1377 39.1839 71.3838 39.2924 71.5699 39.4749C71.756 39.6574 71.8694 39.9014 71.8888 40.1613H71.89C72.4732 47.8345 70.688 54.2583 67.695 59.3454C63.9767 65.6652 58.3848 69.9121 53.1452 71.9281C52.8961 72.0238 52.6201 72.0226 52.3719 71.9247C49.8204 70.9234 47.4305 69.5512 45.2795 67.8524C42.7393 69.4716 40.0458 70.8368 37.2381 71.9281C36.9891 72.0237 36.7134 72.0226 36.4652 71.9249C22.4736 66.5833 8 51.9251 8 35.9004C8.00034 32.7126 9.01801 29.608 10.9049 27.0387C12.7918 24.4693 15.4494 22.5692 18.4909 21.615C17.212 20.6724 16.2634 19.35 15.7803 17.8365C15.2972 16.3229 15.3042 14.6955 15.8005 13.1862C16.2968 11.6769 17.2569 10.3629 18.5439 9.43146C19.831 8.50003 21.3792 7.99878 22.9679 7.99919C24.5566 7.9996 26.1046 8.50164 27.3912 9.43372C28.6778 10.3658 29.6372 11.6803 30.1327 13.1899C30.6282 14.6994 30.6345 16.3269 30.1506 17.8401C29.6667 19.3534 28.7174 20.6753 27.438 21.6172C28.9104 22.0784 30.3025 22.7649 31.5647 23.6523C32.1677 22.8122 32.9621 22.1278 33.8822 21.6556C34.8022 21.1835 35.8215 20.9372 36.8556 20.9372C37.8897 20.9372 38.9089 21.1835 39.829 21.6556C40.749 22.1278 41.5434 22.8122 42.1464 23.6523C43.4087 22.7648 44.8009 22.0782 46.2734 21.6171C44.994 20.6752 44.0447 19.3533 43.5608 17.84C43.0769 16.3267 43.0831 14.6992 43.5786 13.1897C44.0741 11.6801 45.0336 10.3656 46.3202 9.43351C47.6068 8.50143 49.1548 7.99941 50.7435 7.99902C52.3322 7.99864 53.8805 8.49992 55.1675 9.43138C56.4546 10.3628 57.4147 11.6769 57.9109 13.1862C58.4072 14.6955 58.4142 16.323 57.931 17.8365C57.4479 19.3501 56.4992 20.6724 55.2202 21.615C58.2616 22.5693 60.9191 24.4694 62.8059 27.0388C64.6926 29.6082 65.7102 32.7127 65.7105 35.9004C65.7105 36.6938 65.6701 37.5569 65.5931 38.3777H65.5933ZM43.556 66.3952C42.5915 66.9879 41.6215 67.5369 40.646 68.0421C39.3774 68.6991 38.1102 69.28 36.8562 69.7782C29.8442 66.9946 22.809 61.8493 17.7077 55.4171C13.1464 49.6652 10.1513 42.896 10.1513 35.9004C10.1513 32.5019 11.5013 29.2425 13.9043 26.8393C16.3073 24.4362 19.5665 23.0861 22.9649 23.0861C25.7191 23.078 28.4015 23.9642 30.6089 25.6115C30.2496 26.8388 30.2596 28.1449 30.6378 29.3666C31.016 30.5883 31.7455 31.6715 32.7354 32.4812C30.2199 33.3416 28.0362 34.967 26.49 37.1299C24.9438 39.2929 24.1125 41.8851 24.1124 44.5439V48.9139C24.1124 49.1992 24.2257 49.4728 24.4274 49.6746C24.6292 49.8763 24.9027 49.9896 25.188 49.9896H34.2299C35.5255 56.3069 38.7905 62.0508 43.5556 66.3957L43.556 66.3952ZM33.8559 47.8382H26.2637V44.5439C26.264 42.4611 26.878 40.4246 28.0292 38.6889C29.1803 36.9531 30.8175 35.5952 32.736 34.7847C34.6545 33.9743 36.7694 33.7473 38.8162 34.132C40.863 34.5168 42.751 35.4963 44.2443 36.9482C44.1457 36.9896 44.0471 37.0305 43.9485 37.0708C41.0016 38.2746 37.8759 38.9827 34.698 39.1667C34.4284 39.169 34.1695 39.2726 33.9727 39.457C33.776 39.6413 33.6557 39.8928 33.6358 40.1617C33.4331 42.721 33.5069 45.2947 33.8559 47.8382ZM60.7706 39.0547C57.8756 37.8721 55.1761 36.2587 52.7633 34.2693C47.9179 38.2636 41.9758 40.6955 35.7205 41.2444C35.4139 47.3041 36.6688 53.1444 39.6798 58.2618C41.3294 61.0646 43.4501 63.5619 45.9485 65.6438C46.004 65.6815 46.0559 65.7243 46.1033 65.7717C48.1105 67.4323 50.3555 68.7824 52.7633 69.7769C57.4917 67.8576 62.4845 63.9758 65.8468 58.2619C68.5143 53.7285 70.1494 48.0355 69.8061 41.2446C66.7014 40.9726 63.6554 40.2344 60.7707 39.0548L60.7706 39.0547ZM22.966 10.1505C21.536 10.1505 20.1647 10.7186 19.1535 11.7298C18.1424 12.741 17.5743 14.1124 17.5743 15.5425C17.5743 18.505 19.926 20.8949 22.966 20.9344C23.6741 20.9344 24.3752 20.795 25.0293 20.524C25.6835 20.253 26.2778 19.8559 26.7785 19.3552C27.2792 18.8545 27.6763 18.2601 27.9473 17.6059C28.2182 16.9517 28.3577 16.2506 28.3577 15.5425C28.3577 14.8344 28.2182 14.1332 27.9473 13.4791C27.6763 12.8249 27.2792 12.2305 26.7785 11.7298C26.2778 11.2291 25.6835 10.8319 25.0293 10.5609C24.3752 10.29 23.6741 10.1505 22.966 10.1505ZM50.743 20.9344C51.8095 20.9349 52.8521 20.6191 53.7391 20.027C54.6261 19.4348 55.3176 18.5929 55.7261 17.6077C56.1345 16.6224 56.2417 15.5382 56.0339 14.4921C55.8262 13.446 55.3129 12.485 54.5589 11.7307C53.805 10.9763 52.8443 10.4626 51.7983 10.2543C50.7524 10.046 49.6682 10.1527 48.6828 10.5607C47.6975 10.9687 46.8552 11.6598 46.2627 12.5466C45.6701 13.4333 45.3538 14.4759 45.3538 15.5425C45.3539 16.9721 45.9217 18.3432 46.9324 19.3543C47.9431 20.3654 49.3139 20.9336 50.7435 20.9342L50.743 20.9344Z" fill="#31BF5C"/>
</svg>
