<svg width="80" height="80" viewBox="0 0 80 80" fill="none" xmlns="http://www.w3.org/2000/svg">
<path d="M74.5014 32.4438L66.0014 28.0567C65.8734 27.9908 65.7336 27.9507 65.5901 27.9387C65.4465 27.9268 65.302 27.9432 65.1648 27.9871C65.0277 28.031 64.9005 28.1015 64.7905 28.1945C64.6806 28.2876 64.59 28.4014 64.5241 28.5294C64.4581 28.6575 64.418 28.7973 64.4061 28.9408C64.3941 29.0843 64.4106 29.2288 64.4545 29.366C64.4983 29.5032 64.5688 29.6304 64.6619 29.7403C64.7549 29.8503 64.8687 29.9408 64.9968 30.0068L71.9668 33.6042L39.9991 58.354L8.03144 33.6042L15.2756 29.8653C15.4037 29.7993 15.5175 29.7088 15.6105 29.5989C15.7036 29.4889 15.7741 29.3617 15.818 29.2245C15.8619 29.0873 15.8783 28.9429 15.8664 28.7993C15.8544 28.6558 15.8143 28.516 15.7483 28.388C15.6824 28.2599 15.5918 28.1461 15.4819 28.0531C15.3719 27.96 15.2447 27.8895 15.1076 27.8456C14.9704 27.8017 14.8259 27.7853 14.6824 27.7972C14.5388 27.8092 14.399 27.8493 14.271 27.9152L5.4968 32.4438C5.31773 32.5361 5.16752 32.6759 5.06266 32.8479C4.9578 33.0199 4.90233 33.2174 4.90234 33.4189V72.9027C4.90234 73.1936 5.0179 73.4726 5.22358 73.6783C5.42927 73.8839 5.70824 73.9995 5.99912 73.9995H73.9991C74.29 73.9995 74.5689 73.8839 74.7746 73.6783C74.9803 73.4726 75.0959 73.1936 75.0959 72.9027V33.4189C75.0959 33.2174 75.0404 33.0199 74.9356 32.8479C74.8307 32.6759 74.6805 32.5361 74.5014 32.4438ZM49.4621 53.8024L72.9023 35.6552V70.7519L49.4621 53.8024ZM39.9991 60.8382C40.2421 60.8387 40.4784 60.7581 40.6703 60.609L47.6546 55.203L70.6112 71.8059H9.38705L32.3436 55.203L39.3279 60.609C39.5198 60.7581 39.7561 60.8387 39.9991 60.8382ZM7.09589 70.7552V35.6585L30.5361 53.8024L7.09589 70.7552Z" fill="#31BF5C"/>
<path d="M18.0636 40C18.3545 40 18.6334 39.8844 18.8391 39.6788C19.0448 39.4731 19.1603 39.1941 19.1603 38.9032V8.19355H50.9668V15.871C50.9668 16.1618 51.0823 16.4408 51.288 16.6465C51.4937 16.8522 51.7727 16.9677 52.0636 16.9677H60.8378V38.9032C60.8378 39.1941 60.9533 39.4731 61.159 39.6788C61.3647 39.8844 61.6436 40 61.9345 40C62.2254 40 62.5044 39.8844 62.7101 39.6788C62.9158 39.4731 63.0313 39.1941 63.0313 38.9032V15.871C63.0313 15.7162 62.9986 15.5632 62.9353 15.422C62.872 15.2808 62.7795 15.1546 62.6639 15.0517L52.7929 6.27748C52.592 6.0987 52.3325 5.99995 52.0636 6H18.0636C17.7727 6 17.4937 6.11555 17.288 6.32124C17.0823 6.52692 16.9668 6.80589 16.9668 7.09677V38.9032C16.9668 39.1941 17.0823 39.4731 17.288 39.6788C17.4937 39.8844 17.7727 40 18.0636 40ZM53.1603 9.53929L59.05 14.7742H53.1603V9.53929Z" fill="#31BF5C"/>
<path d="M39.9985 16.9678C36.7447 16.9678 33.5639 17.9326 30.8585 19.7404C28.153 21.5481 26.0444 24.1175 24.7992 27.1236C23.554 30.1298 23.2282 33.4376 23.863 36.6289C24.4978 39.8202 26.0646 42.7516 28.3654 45.0524C30.6662 47.3532 33.5976 48.9201 36.7889 49.5549C39.9802 50.1897 43.2881 49.8639 46.2942 48.6187C49.3004 47.3735 51.8698 45.2649 53.6775 42.5594C55.4852 39.854 56.4501 36.6732 56.4501 33.4194C56.4452 29.0577 54.7103 24.876 51.6261 21.7918C48.5419 18.7076 44.3602 16.9727 39.9985 16.9678ZM39.9985 47.6774C37.1785 47.6774 34.4219 46.8412 32.0771 45.2745C29.7324 43.7078 27.9049 41.481 26.8258 38.8757C25.7466 36.2704 25.4642 33.4036 26.0144 30.6378C26.5645 27.872 27.9225 25.3314 29.9165 23.3374C31.9105 21.3434 34.4511 19.9854 37.2169 19.4353C39.9827 18.8851 42.8495 19.1675 45.4548 20.2467C48.0601 21.3258 50.2869 23.1533 51.8536 25.498C53.4203 27.8428 54.2566 30.5994 54.2566 33.4194C54.2522 37.1995 52.7486 40.8236 50.0757 43.4965C47.4027 46.1695 43.7786 47.6731 39.9985 47.6774Z" fill="#31BF5C"/>
<path d="M47.6762 30.1292H46.5794V26.8389C46.5777 25.385 45.9994 23.9911 44.9713 22.9631C43.9433 21.935 42.5495 21.3567 41.0956 21.355H38.902C37.4481 21.3567 36.0543 21.935 35.0263 22.9631C33.9982 23.9911 33.4199 25.385 33.4182 26.8389V30.1292H32.3214C32.0305 30.1292 31.7515 30.2447 31.5458 30.4504C31.3402 30.6561 31.2246 30.9351 31.2246 31.2259V42.1937C31.2246 42.4846 31.3402 42.7635 31.5458 42.9692C31.7515 43.1749 32.0305 43.2905 32.3214 43.2905H47.6762C47.9671 43.2905 48.2461 43.1749 48.4518 42.9692C48.6574 42.7635 48.773 42.4846 48.773 42.1937V31.2259C48.773 30.9351 48.6574 30.6561 48.4518 30.4504C48.2461 30.2447 47.9671 30.1292 47.6762 30.1292ZM35.6117 26.8389C35.6117 25.9662 35.9584 25.1293 36.5754 24.5122C37.1925 23.8952 38.0294 23.5485 38.902 23.5485H41.0956C41.9682 23.5485 42.8051 23.8952 43.4222 24.5122C44.0392 25.1293 44.3859 25.9662 44.3859 26.8389V30.1292H35.6117V26.8389ZM46.5794 41.0969H33.4182V32.3227H46.5794V41.0969Z" fill="#31BF5C"/>
<path d="M41.095 34.5161H38.9015C38.6106 34.5161 38.3316 34.6317 38.1259 34.8374C37.9202 35.043 37.8047 35.322 37.8047 35.6129C37.8047 35.9038 37.9202 36.1827 38.1259 36.3884C38.3316 36.5941 38.6106 36.7097 38.9015 36.7097V38.9032C38.9015 39.1941 39.017 39.4731 39.2227 39.6787C39.4284 39.8844 39.7074 40 39.9982 40C40.2891 40 40.5681 39.8844 40.7738 39.6787C40.9795 39.4731 41.095 39.1941 41.095 38.9032V36.7097C41.3859 36.7097 41.6649 36.5941 41.8705 36.3884C42.0762 36.1827 42.1918 35.9038 42.1918 35.6129C42.1918 35.322 42.0762 35.043 41.8705 34.8374C41.6649 34.6317 41.3859 34.5161 41.095 34.5161Z" fill="#31BF5C"/>
</svg>
