<svg width="80" height="80" viewBox="0 0 80 80" fill="none" xmlns="http://www.w3.org/2000/svg">
<path d="M54.1687 20.4125C51.9386 18.4016 49.3045 16.8904 46.443 15.98C43.5814 15.0697 40.5584 14.7811 37.5763 15.1338C33.075 15.6478 28.8562 17.5878 25.536 20.6702C22.2159 23.7527 19.9685 27.8162 19.1222 32.2669C18.2759 36.7176 18.875 41.3223 20.8321 45.4083C22.7892 49.4943 26.0016 52.8473 30 54.9775V67.5C30.0007 68.1628 30.2643 68.7983 30.733 69.267C31.2017 69.7357 31.8372 69.9993 32.5 70H35V72.5C35.0007 73.1628 35.2643 73.7983 35.733 74.267C36.2017 74.7357 36.8372 74.9993 37.5 75H42.5C43.1628 74.9993 43.7983 74.7357 44.267 74.267C44.7357 73.7983 44.9993 73.1628 45 72.5V70H47.5C48.1628 69.9993 48.7983 69.7357 49.267 69.267C49.7357 68.7983 49.9993 68.1628 50 67.5V54.9788C53.017 53.3719 55.6014 51.0604 57.5334 48.2406C59.4655 45.4208 60.6882 42.1762 61.0974 38.7826C61.5067 35.389 61.0905 31.9468 59.8842 28.7485C58.6779 25.5502 56.7172 22.6905 54.1687 20.4125ZM47.5 60V62.5H32.5V60H47.5ZM42.5025 72.5H37.5V70H42.5L42.5025 72.5ZM43.75 67.5H32.5V65H47.5V67.5H43.75ZM48.2025 53.09C47.9918 53.1925 47.8141 53.3523 47.6899 53.551C47.5656 53.7497 47.4998 53.9794 47.5 54.2137V57.5H41.25V51.7675L44.6338 48.3838C44.8615 48.148 44.9874 47.8322 44.9846 47.5045C44.9817 47.1768 44.8503 46.8632 44.6185 46.6315C44.3868 46.3997 44.0732 46.2683 43.7455 46.2654C43.4178 46.2626 43.102 46.3885 42.8662 46.6162L40 49.4825L37.1338 46.6162C36.898 46.3885 36.5822 46.2626 36.2545 46.2654C35.9268 46.2683 35.6132 46.3997 35.3815 46.6315C35.1497 46.8632 35.0183 47.1768 35.0154 47.5045C35.0126 47.8322 35.1386 48.148 35.3662 48.3838L38.75 51.7675V57.5H32.5V54.2125C32.5 53.9785 32.4343 53.7492 32.3103 53.5507C32.1863 53.3522 32.0091 53.1926 31.7987 53.09C28.1501 51.3178 25.1751 48.4094 23.3207 44.8018C21.4663 41.1942 20.8326 37.0823 21.5149 33.0838C22.1972 29.0853 24.1586 25.4162 27.1044 22.6277C30.0502 19.8393 33.8214 18.082 37.8512 17.62C38.5735 17.5394 39.2996 17.4989 40.0262 17.4987C44.6333 17.4853 49.0802 19.188 52.5 22.275C54.7927 24.3242 56.5455 26.9064 57.6039 29.7935C58.6623 32.6806 58.9937 35.7839 58.5687 38.8294C58.1437 41.8748 56.9755 44.7689 55.1672 47.256C53.3589 49.743 50.9661 51.7467 48.2 53.09H48.2025ZM40 12.5C40.3315 12.5 40.6495 12.3683 40.8839 12.1339C41.1183 11.8995 41.25 11.5815 41.25 11.25V6.25C41.25 5.91848 41.1183 5.60054 40.8839 5.36612C40.6495 5.1317 40.3315 5 40 5C39.6685 5 39.3505 5.1317 39.1161 5.36612C38.8817 5.60054 38.75 5.91848 38.75 6.25V11.25C38.75 11.5815 38.8817 11.8995 39.1161 12.1339C39.3505 12.3683 39.6685 12.5 40 12.5ZM21.4375 19.4562C21.5536 19.5724 21.6914 19.6645 21.843 19.7274C21.9947 19.7903 22.1572 19.8227 22.3214 19.8228C22.4856 19.8228 22.6482 19.7905 22.7999 19.7278C22.9516 19.665 23.0895 19.5729 23.2056 19.4569C23.3218 19.3408 23.4139 19.203 23.4768 19.0514C23.5397 18.8997 23.5721 18.7371 23.5721 18.5729C23.5722 18.4088 23.5399 18.2462 23.4771 18.0945C23.4144 17.9427 23.3223 17.8049 23.2063 17.6888L19.67 14.1525C19.5547 14.0331 19.4168 13.9379 19.2643 13.8724C19.1118 13.8069 18.9477 13.7724 18.7818 13.7709C18.6158 13.7695 18.4512 13.8011 18.2976 13.864C18.1439 13.9268 18.0044 14.0196 17.887 14.137C17.7696 14.2544 17.6768 14.3939 17.614 14.5476C17.5511 14.7012 17.5195 14.8658 17.5209 15.0318C17.5224 15.1977 17.5569 15.3618 17.6224 15.5143C17.6879 15.6668 17.7831 15.8047 17.9025 15.92L21.4375 19.4562ZM15 35H10C9.66848 35 9.35054 35.1317 9.11612 35.3661C8.8817 35.6005 8.75 35.9185 8.75 36.25C8.75 36.5815 8.8817 36.8995 9.11612 37.1339C9.35054 37.3683 9.66848 37.5 10 37.5H15C15.3315 37.5 15.6495 37.3683 15.8839 37.1339C16.1183 36.8995 16.25 36.5815 16.25 36.25C16.25 35.9185 16.1183 35.6005 15.8839 35.3661C15.6495 35.1317 15.3315 35 15 35Z" fill="#31BF5C"/>
<path d="M21.4381 53.0434L17.9031 56.5796C17.7837 56.6949 17.6885 56.8329 17.623 56.9854C17.5575 57.1379 17.523 57.3019 17.5215 57.4679C17.5201 57.6338 17.5517 57.7984 17.6146 57.9521C17.6774 58.1057 17.7702 58.2452 17.8876 58.3626C18.005 58.48 18.1445 58.5728 18.2982 58.6356C18.4518 58.6985 18.6164 58.7301 18.7823 58.7287C18.9483 58.7272 19.1123 58.6928 19.2649 58.6272C19.4174 58.5617 19.5553 58.4665 19.6706 58.3471L23.2068 54.8109C23.4345 54.5751 23.5605 54.2594 23.5577 53.9316C23.5548 53.6039 23.4234 53.2904 23.1916 53.0586C22.9599 52.8268 22.6463 52.6954 22.3186 52.6925C21.9908 52.6897 21.6738 52.8157 21.4381 53.0434ZM60.3306 14.1521L56.7943 17.6884C56.675 17.8037 56.5797 17.9416 56.5142 18.0941C56.4487 18.2466 56.4142 18.4106 56.4128 18.5766C56.4113 18.7426 56.443 18.9072 56.5058 19.0608C56.5687 19.2144 56.6615 19.354 56.7788 19.4714C56.8962 19.5887 57.0358 19.6815 57.1894 19.7444C57.343 19.8072 57.5076 19.8389 57.6736 19.8374C57.8396 19.836 58.0036 19.8015 58.1561 19.736C58.3086 19.6705 58.4465 19.5753 58.5618 19.4559L62.0981 15.9196C62.2175 15.8043 62.3127 15.6664 62.3782 15.5139C62.4437 15.3614 62.4782 15.1973 62.4797 15.0314C62.4811 14.8654 62.4495 14.7008 62.3866 14.5472C62.3238 14.3936 62.231 14.254 62.1136 14.1366C61.9962 14.0193 61.8567 13.9264 61.703 13.8636C61.5494 13.8007 61.3848 13.7691 61.2188 13.7706C61.0529 13.772 60.8888 13.8065 60.7363 13.872C60.5838 13.9375 60.4459 14.0327 60.3306 14.1521ZM58.5631 53.0434C58.3287 52.8088 58.0107 52.677 57.6792 52.6769C57.3476 52.6767 57.0295 52.8084 56.795 53.0427C56.5604 53.2771 56.4286 53.5951 56.4285 53.9267C56.4283 54.2583 56.56 54.5763 56.7943 54.8109L60.3306 58.3471C60.5663 58.5748 60.8821 58.7008 61.2098 58.698C61.5376 58.6951 61.8511 58.5636 62.0829 58.3319C62.3146 58.1001 62.4461 57.7866 62.4489 57.4589C62.4518 57.1311 62.3258 56.8154 62.0981 56.5796L58.5631 53.0434ZM70.0006 34.9996H65.0006C64.6691 34.9996 64.3511 35.1313 64.1167 35.3657C63.8823 35.6002 63.7506 35.9181 63.7506 36.2496C63.7506 36.5811 63.8823 36.8991 64.1167 37.1335C64.3511 37.3679 64.6691 37.4996 65.0006 37.4996H70.0006C70.3321 37.4996 70.6501 37.3679 70.8845 37.1335C71.1189 36.8991 71.2506 36.5811 71.2506 36.2496C71.2506 35.9181 71.1189 35.6002 70.8845 35.3657C70.6501 35.1313 70.3321 34.9996 70.0006 34.9996Z" fill="#31BF5C"/>
</svg>
