<svg width="80" height="80" viewBox="0 0 80 80" fill="none" xmlns="http://www.w3.org/2000/svg">
<path d="M40.0009 46.5458C39.7585 46.5458 39.6373 46.5458 39.3949 46.4246C29.8191 40.8489 23.8797 30.4246 23.8797 19.3943C23.8797 18.667 24.3646 18.1822 25.0918 18.1822C27.5161 18.1822 32.3646 17.2125 32.3646 17.2125C34.6676 16.7276 37.0918 15.7579 39.5161 14.3034C39.8797 14.061 40.3646 14.061 40.7282 14.3034C43.0312 15.6367 45.4555 16.6064 47.7585 17.2125C50.0615 17.8186 52.607 18.1822 54.91 18.1822C55.6373 18.1822 56.1221 18.667 56.1221 19.3943C56.1221 30.4246 50.1827 40.7276 40.607 46.4246C40.4858 46.5458 40.2433 46.5458 40.0009 46.5458ZM26.3039 20.6064C26.6676 30.061 31.8797 38.9095 40.0009 43.8792C48.1221 38.7882 53.3343 30.061 53.6979 20.4852C51.5161 20.364 49.3343 20.0004 47.2736 19.5155C44.9706 19.0307 42.5464 18.061 40.2433 16.7276C37.8191 18.061 35.3949 19.0307 32.9706 19.5155C32.607 19.6367 28.9706 20.364 26.3039 20.6064ZM15.5161 24.8489C14.91 24.8489 14.1827 24.7276 13.5767 24.364L11.0312 22.7882C9.21304 21.6973 8.72819 19.5155 9.8191 17.6973L10.7888 16.0004C11.2736 15.1519 12.1221 14.5458 13.0918 14.3034C14.0615 14.061 15.0312 14.1822 15.8797 14.7882L18.4252 16.364C20.0009 17.4549 20.607 19.5155 19.7585 21.3337L18.6676 23.0307C17.9403 24.2428 16.7282 24.8489 15.5161 24.8489ZM13.8191 16.6064H13.5767C13.213 16.7276 12.9706 16.8489 12.8494 17.2125L11.8797 18.9095C11.5161 19.5155 11.6373 20.2428 12.2433 20.6064L14.7888 22.1822C15.3949 22.5458 16.1221 22.4246 16.4858 21.6973L17.4555 20.0004C17.8191 19.3943 17.5767 18.5458 16.9706 18.1822L14.5464 16.8489C14.3039 16.6064 14.0615 16.6064 13.8191 16.6064Z" fill="#31BF5C"/>
<path d="M11.2739 18.6673C11.0315 18.6673 10.7891 18.6673 10.6679 18.546L4.60724 14.9097C4.00118 14.546 3.87997 13.8188 4.24361 13.2127C4.60724 12.6067 5.33452 12.4854 5.94058 12.8491L12.0012 16.4854C12.6072 16.8491 12.7285 17.5763 12.3648 18.1824C12.1224 18.4248 11.6375 18.6673 11.2739 18.6673ZM25.6982 30.7885C24.9709 30.7885 24.3648 30.546 23.7588 30.3036L21.2133 28.7279C20.3648 28.243 19.7588 27.3945 19.5163 26.4248C19.2739 25.4551 19.3951 24.4854 20.0012 23.637L20.9709 21.94C21.8194 20.3642 24.0012 19.7582 25.6982 20.4854C26.3042 20.7279 26.5466 21.4551 26.3042 22.0612C26.0618 22.6673 25.3345 22.9097 24.7285 22.6673C24.2436 22.4248 23.3951 22.546 23.1527 23.1521L22.183 24.8491C21.8194 25.4551 21.9406 26.1824 22.5466 26.546L25.0921 28.1218C25.4557 28.3642 25.8194 28.3642 26.0618 28.243C26.6679 28.0006 27.3951 28.243 27.6375 28.9703C27.88 29.5763 27.6376 30.3036 26.9103 30.546C26.5466 30.6673 26.0618 30.7885 25.6982 30.7885Z" fill="#31BF5C"/>
<path d="M21.4549 24.7277C21.2125 24.7277 20.9701 24.7277 20.8488 24.6065L17.4549 22.5459C16.8488 22.1823 16.7276 21.455 17.0913 20.8489C17.4549 20.2429 18.1822 20.1217 18.7882 20.4853L22.1822 22.5459C22.7882 22.9096 22.9094 23.6368 22.5458 24.2429C22.3034 24.4853 21.8185 24.7277 21.4549 24.7277ZM56.1216 48.8489C55.5155 48.8489 54.7882 48.6065 54.1822 48.2429L51.6367 46.6671C50.7882 46.1823 50.1822 45.3338 49.9398 44.3641C49.6973 43.3944 49.8185 42.4247 50.4246 41.5762L51.3943 39.8792C51.8791 39.0308 52.7276 38.4247 53.6973 38.1823C54.667 37.9399 55.6367 38.0611 56.4852 38.6671L59.0307 40.2429C59.0307 40.2429 59.1519 40.2429 59.1519 40.3641C60.7276 41.5762 61.2125 43.6368 60.364 45.3338V45.455L59.3943 47.0308C58.9094 47.8792 58.061 48.4853 57.0913 48.7277C56.7276 48.8489 56.364 48.8489 56.1216 48.8489ZM54.4246 40.6065H54.1822C53.8185 40.7277 53.5761 40.8489 53.4549 41.2126L52.4852 42.9096C52.2428 43.2732 52.2428 43.6368 52.364 43.8792C52.4852 44.2429 52.6064 44.4853 52.9701 44.6065L55.5155 46.1823C55.7579 46.3035 56.1216 46.4247 56.4852 46.3035C56.8488 46.1823 57.0913 46.0611 57.2125 45.6974L58.1822 44.1217C58.5458 43.5156 58.3034 42.6671 57.6973 42.1823L55.2731 40.6065H54.4246Z" fill="#31BF5C"/>
<path d="M51.8787 42.7883C51.6363 42.7883 51.3939 42.7883 51.2727 42.6671L47.8787 40.6065C47.2727 40.2428 47.1515 39.5156 47.5151 38.9095C47.8787 38.3034 48.606 38.1822 49.2121 38.5459L52.606 40.6065C53.2121 40.9701 53.3333 41.6974 52.9696 42.3034C52.7272 42.5459 52.2424 42.7883 51.8787 42.7883ZM66.1818 54.9095C65.5757 54.9095 64.8484 54.6671 64.2424 54.3034L61.6969 52.7277C59.8787 51.6368 59.3939 49.4549 60.4848 47.6368L61.4545 45.9398C61.9393 45.0913 62.7878 44.4852 63.7575 44.2428C64.7272 44.0004 65.6969 44.1216 66.5454 44.7277L69.0909 46.3034C69.9393 46.7883 70.5454 47.6368 70.7878 48.7277C71.0302 49.6974 70.7878 50.6671 70.303 51.3943L69.3333 53.0913C68.8484 53.9398 67.9999 54.5459 67.0302 54.7883C66.7878 54.9095 66.4242 54.9095 66.1818 54.9095ZM64.4848 46.6671H64.2424C63.8787 46.7883 63.6363 46.9095 63.5151 47.2731L62.5454 48.9701C62.303 49.3337 62.303 49.6974 62.4242 49.9398C62.5454 50.3034 62.6666 50.5459 63.0302 50.6671L65.5757 52.2428C65.8181 52.364 66.1818 52.4853 66.5454 52.364C66.909 52.2428 67.1515 52.1216 67.2727 51.758L68.2424 50.061V49.9398C68.3636 49.6974 68.4848 49.4549 68.3636 49.0913C68.2424 48.7277 68.1212 48.4852 67.7575 48.2428L65.2121 46.6671H64.4848Z" fill="#31BF5C"/>
<path d="M62.0616 48.8493C61.8192 48.8493 61.5768 48.8493 61.4556 48.7281L58.0616 46.6675C57.4556 46.3039 57.3344 45.5766 57.698 44.9705C58.0616 44.3645 58.7889 44.2433 59.395 44.6069L62.7889 46.6675C63.395 47.0311 63.5162 47.7584 63.1525 48.3645C62.9101 48.6069 62.4253 48.8493 62.0616 48.8493ZM75.1525 56.6069C74.9101 56.6069 74.7889 56.6069 74.5465 56.4857L68.9707 53.213C68.3647 52.8493 68.2434 52.122 68.4859 51.516C68.8495 50.9099 69.5768 50.7887 70.1828 51.0311L75.7586 54.3039C76.3647 54.6675 76.4859 55.3948 76.2434 56.0008C76.001 56.3645 75.5162 56.6069 75.1525 56.6069ZM14.304 55.6372C14.0616 55.6372 13.8192 55.6372 13.4556 55.516C12.4859 55.2736 11.6374 54.6675 11.1525 53.9402L10.1828 52.3645C9.21313 50.7887 9.69798 48.4857 11.2737 47.3948L13.8192 45.819C14.5465 45.3342 15.6374 45.0917 16.6071 45.3342C17.5768 45.5766 18.4253 46.0614 18.9101 46.9099L19.8798 48.4857C20.3646 49.213 20.6071 50.3039 20.3646 51.2736C20.1222 52.2433 19.6374 53.0917 18.7889 53.5766L16.2434 55.1523C15.7586 55.516 15.0313 55.6372 14.304 55.6372ZM15.8798 47.6372C15.6374 47.6372 15.395 47.6372 15.2737 47.7584L12.7283 49.3342C12.2434 49.6978 12.001 50.5463 12.3646 51.0311L13.3343 52.6069C13.5768 52.9705 13.8192 53.0917 14.0616 53.0917C14.4253 53.213 14.7889 53.0917 15.0313 52.9705L17.5768 51.3948C17.8192 51.2736 18.0616 50.9099 18.0616 50.5463C18.1828 50.1826 18.0616 49.9402 17.9404 49.6978L16.9707 48.122C16.8495 47.8796 16.4859 47.6372 16.1222 47.6372H15.8798Z" fill="#31BF5C"/>
<path d="M5.69763 57.4551C5.334 57.4551 4.84915 57.2127 4.60672 56.8491C4.24309 56.243 4.48551 55.5157 4.97036 55.1521L11.031 51.3945C11.637 51.0309 12.3643 51.2733 12.7279 51.7581C13.0916 52.3642 12.8491 53.0915 12.3643 53.4551L6.30369 57.2127C6.18248 57.4551 5.94006 57.4551 5.69763 57.4551ZM24.2431 49.3339C23.031 49.3339 21.8188 48.7278 21.0916 47.6369L20.1219 46.0612C19.637 45.3339 19.3946 44.243 19.637 43.2733C19.8795 42.3036 20.3643 41.4551 21.2128 40.9703L23.7582 39.3945C25.5764 38.3036 27.637 38.7885 28.8491 40.4854L29.8188 42.0612C30.3037 42.7885 30.5461 43.8794 30.3037 44.8491C30.0613 45.8188 29.5764 46.6672 28.7279 47.1521L26.1825 48.7278C25.6976 49.2127 24.9704 49.3339 24.2431 49.3339ZM25.8188 41.3339C25.5764 41.3339 25.334 41.4551 25.0916 41.5763L22.5461 43.1521C22.3037 43.2733 22.0613 43.6369 22.0613 44.0006C21.9401 44.3642 22.0613 44.6066 22.1825 44.8491L23.1522 46.4248C23.5158 46.9097 24.3643 47.1521 24.8491 46.7884L27.3946 45.2127C27.637 45.0915 27.8795 44.7278 27.8795 44.3642C28.0007 44.0006 27.8795 43.7581 27.7582 43.5157L26.7885 41.94C26.6673 41.4551 26.1825 41.3339 25.8188 41.3339Z" fill="#31BF5C"/>
<path d="M18.4242 49.5759C18.0606 49.5759 17.697 49.3335 17.4545 49.0911C17.0909 48.485 17.2121 47.7578 17.8182 47.3941L21.0909 45.2123C21.697 44.8487 22.4242 44.9699 22.7879 45.5759C23.1515 46.182 23.0303 46.9093 22.4242 47.2729L19.1515 49.4547C18.9091 49.4547 18.6667 49.5759 18.4242 49.5759ZM28.3636 43.2729C28 43.2729 27.5152 43.0305 27.3939 42.6669C27.0303 42.0608 27.1515 41.3335 27.7576 40.9699L31.1515 38.7881C31.7576 38.4244 32.4848 38.5456 32.8485 39.1517C33.2121 39.7578 33.0909 40.485 32.4848 40.8487L29.0909 43.0305C28.8485 43.1517 28.6061 43.2729 28.3636 43.2729ZM54.303 30.4244C53.9394 30.4244 53.5758 30.3032 53.2121 30.182C52.6061 29.9396 52.2424 29.3335 52.4849 28.6062C52.7273 28.0002 53.3333 27.6365 54.0606 27.879C54.4242 28.0002 54.6667 28.0002 55.0303 27.7578L57.5758 26.182C58.0606 25.8184 58.303 24.9699 57.9394 24.485L56.8485 23.0305C56.4849 22.5456 55.8788 22.3032 55.2727 22.5456C54.6667 22.7881 53.9394 22.4244 53.697 21.8184C53.4545 21.2123 53.8182 20.485 54.4242 20.2426C56.1212 19.6365 57.8182 20.2426 58.7879 21.6972L59.2727 22.4244L59.7576 23.3941C60.8485 24.9699 60.3636 27.2729 58.6667 28.3638L56.1212 29.9396C55.5152 30.3032 54.9091 30.4244 54.303 30.4244ZM64.2424 24.1214C63.0303 24.1214 61.8182 23.5153 61.0909 22.4244L60.1212 20.8487C59.0303 19.2729 59.5152 16.9699 61.2121 15.7578L63.7576 14.182C64.4848 13.6972 65.5758 13.4547 66.5455 13.6972C67.5152 13.9396 68.3636 14.4244 68.8485 15.2729L69.8182 16.8487C70.303 17.5759 70.5455 18.6669 70.303 19.6365C70.0606 20.6062 69.5758 21.4547 68.7273 21.9396L66.1818 23.5153C65.697 24.0002 64.9697 24.1214 64.2424 24.1214ZM65.8182 16.1214C65.5758 16.1214 65.3333 16.1214 65.2121 16.2426L62.6667 17.8184C62.1818 18.182 61.9394 19.0305 62.303 19.5153L63.2727 21.0911C63.6364 21.5759 64.4848 21.8184 64.9697 21.4547L67.5152 19.879C67.7576 19.7578 68 19.3941 68 19.0305C68.1212 18.6669 68 18.4244 67.8788 18.182L66.9091 16.6062C66.7879 16.3638 66.4242 16.1214 66.0606 16.1214H65.8182Z" fill="#31BF5C"/>
<path d="M58.3038 24.3644C57.9402 24.3644 57.4553 24.122 57.2129 23.7583C56.8493 23.1523 57.0917 22.425 57.5765 22.0614L60.9705 20.0008C61.5765 19.6371 62.3038 19.8796 62.6674 20.3644C63.0311 20.9705 62.7887 21.6977 62.3038 22.0614L58.9099 24.2432C58.7886 24.3644 58.5462 24.3644 58.3038 24.3644ZM69.0917 17.5765C68.728 17.5765 68.2432 17.3341 68.122 16.9705C67.7583 16.3644 68.0008 15.6371 68.4856 15.2735L73.9402 12.0008C74.5462 11.6371 75.2735 11.8796 75.6371 12.3644C76.0008 12.9705 75.7583 13.6977 75.2735 14.0614L69.819 17.4553C69.5765 17.5765 69.3341 17.5765 69.0917 17.5765ZM67.8796 71.5159H12.122C6.06138 71.5159 1.21289 66.6674 1.21289 60.6068C1.21289 59.8796 1.69774 59.3947 2.42501 59.3947H77.5765C78.3038 59.3947 78.7887 59.8796 78.7887 60.6068C78.7887 66.6674 73.9402 71.5159 67.8796 71.5159ZM3.75835 61.819C4.36441 65.9402 7.87956 69.0917 12.122 69.0917H67.8796C72.122 69.0917 75.6371 65.9402 76.2432 61.819H3.75835Z" fill="#31BF5C"/>
<path d="M41.9393 66.7884H38.1817C34.7878 66.7884 32.1211 64.1217 32.1211 60.7277C32.1211 60.0005 32.6059 59.5156 33.3332 59.5156H46.909C47.2726 59.5156 47.515 59.6368 47.7575 59.8793C47.9999 60.1217 48.1211 60.4853 48.1211 60.7277C47.9999 64.1217 45.212 66.7884 41.9393 66.7884ZM34.7878 61.9399C35.2726 63.3944 36.6059 64.3641 38.1817 64.3641H41.9393C43.515 64.3641 44.8484 63.3944 45.4544 61.9399H34.7878Z" fill="#31BF5C"/>
<path d="M75.1519 61.8187H4.84884C4.12157 61.8187 3.63672 61.3338 3.63672 60.6066V14.1823C3.63672 11.2732 5.93975 8.84899 8.84884 8.48535H71.2731C74.1822 8.84899 76.364 11.2732 76.364 14.1823V60.6066C76.364 61.3338 75.8791 61.8187 75.1519 61.8187ZM6.06096 59.3944H73.9398V14.1823C73.9398 12.4854 72.7276 11.152 71.0307 10.9096H9.09126C7.39429 11.152 6.06096 12.4854 6.06096 14.1823V59.3944Z" fill="#31BF5C"/>
<path d="M40.0014 31.5154C38.7893 31.5154 37.5772 30.9094 36.8499 29.9397C36.0014 28.8487 35.759 27.5154 36.1226 26.3033C36.4863 24.8487 37.6984 23.6366 39.1529 23.5154C40.4863 23.1518 41.8196 23.5154 42.7893 24.3639C43.759 25.2124 44.365 26.4245 44.2438 27.7578C44.2438 28.4851 43.6378 28.97 42.9105 28.8487C42.1832 28.8487 41.6984 28.2427 41.8196 27.5154C41.8196 26.7881 41.456 26.4245 41.2135 26.1821C40.7287 25.8184 40.2438 25.6972 39.6378 25.8184H39.5166C39.0317 25.8184 38.6681 26.3033 38.4257 26.9094C38.3044 27.5154 38.4257 28.0003 38.7893 28.4851C39.1529 28.8487 39.6378 29.0912 40.1226 29.0912C40.8499 29.0912 41.3347 29.576 41.3347 30.3033C41.3347 31.0306 40.7287 31.5154 40.0014 31.5154Z" fill="#31BF5C"/>
<path d="M39.9999 37.3341C39.0302 37.3341 38.0605 36.9705 37.3332 36.3644C36.3635 35.5159 35.7574 34.3038 35.8787 32.9705C35.8787 32.2432 36.4847 31.7583 37.212 31.8796C37.9393 31.8796 38.4241 32.4856 38.3029 33.2129C38.3029 33.9402 38.6665 34.3038 38.909 34.5462C39.3938 34.9099 39.8787 35.0311 40.4847 34.9099H40.6059C41.0908 34.9099 41.4544 34.425 41.6968 33.819C41.818 33.2129 41.6968 32.728 41.3332 32.2432C40.9696 31.7583 40.4847 31.5159 39.9999 31.5159C39.2726 31.5159 38.7877 31.0311 38.7877 30.3038C38.7877 29.5765 39.2726 29.0917 39.9999 29.0917C41.212 29.0917 42.4241 29.6977 43.1514 30.6674C43.9999 31.7583 44.2423 33.0917 43.8787 34.3038C43.515 35.7583 42.3029 36.9705 40.8483 37.0917C40.6059 37.2129 40.2423 37.3341 39.9999 37.3341ZM39.9999 25.6977C39.2726 25.6977 38.7877 25.2129 38.7877 24.4856V22.425C38.7877 21.6977 39.2726 21.2129 39.9999 21.2129C40.7271 21.2129 41.212 21.6977 41.212 22.425V24.4856C41.212 25.2129 40.7271 25.6977 39.9999 25.6977Z" fill="#31BF5C"/>
<path d="M40.0012 39.3945C39.2739 39.3945 38.7891 38.9097 38.7891 38.1824V36.1218C38.7891 35.3945 39.2739 34.9097 40.0012 34.9097C40.7285 34.9097 41.2133 35.3945 41.2133 36.1218V38.1824C41.2133 38.9097 40.7285 39.3945 40.0012 39.3945Z" fill="#31BF5C"/>
</svg>
