<svg width="1897" height="758" viewBox="0 0 1897 758" fill="none" xmlns="http://www.w3.org/2000/svg">
<g clip-path="url(#clip0_141_5018)">
<rect width="1920" height="758" transform="translate(-23)" fill="#31BF5C"/>
<g clip-path="url(#clip1_141_5018)">
<path d="M-37.43 645.685C-37.43 645.685 29.0972 609.054 143.911 619.415C153.109 620.246 162.228 621.799 171.182 624.059C184.093 627.317 209.124 631.982 236.963 628.536C269.507 624.352 299.155 607.704 319.66 582.101C345.596 549.967 421.459 469.35 507.078 503.081C507.078 503.081 584.949 536.076 701.455 676.809C701.455 676.809 742.604 613.026 800.741 644.571C805.521 647.2 810.05 650.26 814.272 653.713C829.926 666.385 890.576 715.636 928.865 749.041H1045.35C1045.35 749.041 1196.43 602.087 1387.03 622.01C1387.03 622.01 1528.14 637.268 1633.73 755.893L1646.82 740.015C1646.82 740.015 1765.5 572.517 1972.96 625.478V797H-53L-37.43 645.685Z" fill="white" fill-opacity="0.1"/>
</g>
<path d="M627.469 433.281L615.094 471H605.125L622.031 425.5H628.375L627.469 433.281ZM637.75 471L625.344 433.281L624.344 425.5H630.75L647.75 471H637.75ZM637.188 454.062V461.406H613.156V454.062H637.188ZM665.375 464.594C666.479 464.594 667.458 464.385 668.312 463.969C669.167 463.531 669.833 462.927 670.312 462.156C670.812 461.365 671.073 460.438 671.094 459.375H679.562C679.542 461.75 678.906 463.865 677.656 465.719C676.406 467.552 674.729 469 672.625 470.062C670.521 471.104 668.167 471.625 665.562 471.625C662.938 471.625 660.646 471.188 658.688 470.312C656.75 469.438 655.135 468.229 653.844 466.688C652.552 465.125 651.583 463.312 650.938 461.25C650.292 459.167 649.969 456.938 649.969 454.562V453.656C649.969 451.26 650.292 449.031 650.938 446.969C651.583 444.885 652.552 443.073 653.844 441.531C655.135 439.969 656.75 438.75 658.688 437.875C660.625 437 662.896 436.562 665.5 436.562C668.271 436.562 670.698 437.094 672.781 438.156C674.885 439.219 676.531 440.74 677.719 442.719C678.927 444.677 679.542 447 679.562 449.688H671.094C671.073 448.562 670.833 447.542 670.375 446.625C669.938 445.708 669.292 444.979 668.438 444.438C667.604 443.875 666.573 443.594 665.344 443.594C664.031 443.594 662.958 443.875 662.125 444.438C661.292 444.979 660.646 445.729 660.188 446.688C659.729 447.625 659.406 448.698 659.219 449.906C659.052 451.094 658.969 452.344 658.969 453.656V454.562C658.969 455.875 659.052 457.135 659.219 458.344C659.385 459.552 659.698 460.625 660.156 461.562C660.635 462.5 661.292 463.24 662.125 463.781C662.958 464.323 664.042 464.594 665.375 464.594ZM701.344 437.188V443.562H681.656V437.188H701.344ZM686.531 428.844H695.531V460.812C695.531 461.792 695.656 462.542 695.906 463.062C696.177 463.583 696.573 463.948 697.094 464.156C697.615 464.344 698.271 464.438 699.062 464.438C699.625 464.438 700.125 464.417 700.562 464.375C701.021 464.312 701.406 464.25 701.719 464.188L701.75 470.812C700.979 471.062 700.146 471.26 699.25 471.406C698.354 471.552 697.365 471.625 696.281 471.625C694.302 471.625 692.573 471.302 691.094 470.656C689.635 469.99 688.51 468.927 687.719 467.469C686.927 466.01 686.531 464.094 686.531 461.719V428.844ZM715.969 437.188V471H706.938V437.188H715.969ZM706.375 428.375C706.375 427.062 706.833 425.979 707.75 425.125C708.667 424.271 709.896 423.844 711.438 423.844C712.958 423.844 714.177 424.271 715.094 425.125C716.031 425.979 716.5 427.062 716.5 428.375C716.5 429.688 716.031 430.771 715.094 431.625C714.177 432.479 712.958 432.906 711.438 432.906C709.896 432.906 708.667 432.479 707.75 431.625C706.833 430.771 706.375 429.688 706.375 428.375ZM732.406 443.688V484H723.406V437.188H731.75L732.406 443.688ZM753.812 453.719V454.375C753.812 456.833 753.521 459.115 752.938 461.219C752.375 463.323 751.542 465.156 750.438 466.719C749.333 468.26 747.958 469.469 746.312 470.344C744.688 471.198 742.812 471.625 740.688 471.625C738.625 471.625 736.833 471.208 735.312 470.375C733.792 469.542 732.51 468.375 731.469 466.875C730.448 465.354 729.625 463.594 729 461.594C728.375 459.594 727.896 457.448 727.562 455.156V453.438C727.896 450.979 728.375 448.729 729 446.688C729.625 444.625 730.448 442.844 731.469 441.344C732.51 439.823 733.781 438.646 735.281 437.812C736.802 436.979 738.583 436.562 740.625 436.562C742.771 436.562 744.656 436.969 746.281 437.781C747.927 438.594 749.302 439.76 750.406 441.281C751.531 442.802 752.375 444.615 752.938 446.719C753.521 448.823 753.812 451.156 753.812 453.719ZM744.781 454.375V453.719C744.781 452.281 744.656 450.958 744.406 449.75C744.177 448.521 743.802 447.448 743.281 446.531C742.781 445.615 742.115 444.906 741.281 444.406C740.469 443.885 739.479 443.625 738.312 443.625C737.083 443.625 736.031 443.823 735.156 444.219C734.302 444.615 733.604 445.188 733.062 445.938C732.521 446.688 732.115 447.583 731.844 448.625C731.573 449.667 731.406 450.844 731.344 452.156V456.5C731.448 458.042 731.74 459.427 732.219 460.656C732.698 461.865 733.438 462.823 734.438 463.531C735.438 464.24 736.75 464.594 738.375 464.594C739.562 464.594 740.562 464.333 741.375 463.812C742.188 463.271 742.844 462.531 743.344 461.594C743.865 460.656 744.229 459.573 744.438 458.344C744.667 457.115 744.781 455.792 744.781 454.375ZM777.656 463.375V448.312C777.656 447.229 777.479 446.302 777.125 445.531C776.771 444.74 776.219 444.125 775.469 443.688C774.74 443.25 773.792 443.031 772.625 443.031C771.625 443.031 770.76 443.208 770.031 443.562C769.302 443.896 768.74 444.385 768.344 445.031C767.948 445.656 767.75 446.396 767.75 447.25H758.75C758.75 445.812 759.083 444.448 759.75 443.156C760.417 441.865 761.385 440.729 762.656 439.75C763.927 438.75 765.438 437.969 767.188 437.406C768.958 436.844 770.938 436.562 773.125 436.562C775.75 436.562 778.083 437 780.125 437.875C782.167 438.75 783.771 440.062 784.938 441.812C786.125 443.562 786.719 445.75 786.719 448.375V462.844C786.719 464.698 786.833 466.219 787.062 467.406C787.292 468.573 787.625 469.594 788.062 470.469V471H778.969C778.531 470.083 778.198 468.938 777.969 467.562C777.76 466.167 777.656 464.771 777.656 463.375ZM778.844 450.406L778.906 455.5H773.875C772.688 455.5 771.656 455.635 770.781 455.906C769.906 456.177 769.188 456.562 768.625 457.062C768.062 457.542 767.646 458.104 767.375 458.75C767.125 459.396 767 460.104 767 460.875C767 461.646 767.177 462.344 767.531 462.969C767.885 463.573 768.396 464.052 769.062 464.406C769.729 464.74 770.51 464.906 771.406 464.906C772.76 464.906 773.938 464.635 774.938 464.094C775.938 463.552 776.708 462.885 777.25 462.094C777.812 461.302 778.104 460.552 778.125 459.844L780.5 463.656C780.167 464.51 779.708 465.396 779.125 466.312C778.562 467.229 777.844 468.094 776.969 468.906C776.094 469.698 775.042 470.354 773.812 470.875C772.583 471.375 771.125 471.625 769.438 471.625C767.292 471.625 765.344 471.198 763.594 470.344C761.865 469.469 760.49 468.271 759.469 466.75C758.469 465.208 757.969 463.458 757.969 461.5C757.969 459.729 758.302 458.156 758.969 456.781C759.635 455.406 760.615 454.25 761.906 453.312C763.219 452.354 764.854 451.635 766.812 451.156C768.771 450.656 771.042 450.406 773.625 450.406H778.844ZM807.625 464.594C808.729 464.594 809.708 464.385 810.562 463.969C811.417 463.531 812.083 462.927 812.562 462.156C813.062 461.365 813.323 460.438 813.344 459.375H821.812C821.792 461.75 821.156 463.865 819.906 465.719C818.656 467.552 816.979 469 814.875 470.062C812.771 471.104 810.417 471.625 807.812 471.625C805.188 471.625 802.896 471.188 800.938 470.312C799 469.438 797.385 468.229 796.094 466.688C794.802 465.125 793.833 463.312 793.188 461.25C792.542 459.167 792.219 456.938 792.219 454.562V453.656C792.219 451.26 792.542 449.031 793.188 446.969C793.833 444.885 794.802 443.073 796.094 441.531C797.385 439.969 799 438.75 800.938 437.875C802.875 437 805.146 436.562 807.75 436.562C810.521 436.562 812.948 437.094 815.031 438.156C817.135 439.219 818.781 440.74 819.969 442.719C821.177 444.677 821.792 447 821.812 449.688H813.344C813.323 448.562 813.083 447.542 812.625 446.625C812.188 445.708 811.542 444.979 810.688 444.438C809.854 443.875 808.823 443.594 807.594 443.594C806.281 443.594 805.208 443.875 804.375 444.438C803.542 444.979 802.896 445.729 802.438 446.688C801.979 447.625 801.656 448.698 801.469 449.906C801.302 451.094 801.219 452.344 801.219 453.656V454.562C801.219 455.875 801.302 457.135 801.469 458.344C801.635 459.552 801.948 460.625 802.406 461.562C802.885 462.5 803.542 463.24 804.375 463.781C805.208 464.323 806.292 464.594 807.625 464.594ZM842.594 471.625C839.969 471.625 837.615 471.208 835.531 470.375C833.448 469.521 831.677 468.344 830.219 466.844C828.781 465.344 827.677 463.604 826.906 461.625C826.135 459.625 825.75 457.5 825.75 455.25V454C825.75 451.438 826.115 449.094 826.844 446.969C827.573 444.844 828.615 443 829.969 441.438C831.344 439.875 833.01 438.677 834.969 437.844C836.927 436.99 839.135 436.562 841.594 436.562C843.99 436.562 846.115 436.958 847.969 437.75C849.823 438.542 851.375 439.667 852.625 441.125C853.896 442.583 854.854 444.333 855.5 446.375C856.146 448.396 856.469 450.646 856.469 453.125V456.875H829.594V450.875H847.625V450.188C847.625 448.938 847.396 447.823 846.938 446.844C846.5 445.844 845.833 445.052 844.938 444.469C844.042 443.885 842.896 443.594 841.5 443.594C840.312 443.594 839.292 443.854 838.438 444.375C837.583 444.896 836.885 445.625 836.344 446.562C835.823 447.5 835.427 448.604 835.156 449.875C834.906 451.125 834.781 452.5 834.781 454V455.25C834.781 456.604 834.969 457.854 835.344 459C835.74 460.146 836.292 461.135 837 461.969C837.729 462.802 838.604 463.448 839.625 463.906C840.667 464.365 841.844 464.594 843.156 464.594C844.781 464.594 846.292 464.281 847.688 463.656C849.104 463.01 850.323 462.042 851.344 460.75L855.719 465.5C855.01 466.521 854.042 467.5 852.812 468.438C851.604 469.375 850.146 470.146 848.438 470.75C846.729 471.333 844.781 471.625 842.594 471.625ZM896.75 425.5V471H887.406V425.5H896.75ZM910.75 425.5V432.844H873.625V425.5H910.75ZM908.656 454.438V453.781C908.656 451.302 909.01 449.021 909.719 446.938C910.427 444.833 911.458 443.01 912.812 441.469C914.167 439.927 915.833 438.729 917.812 437.875C919.792 437 922.062 436.562 924.625 436.562C927.188 436.562 929.469 437 931.469 437.875C933.469 438.729 935.146 439.927 936.5 441.469C937.875 443.01 938.917 444.833 939.625 446.938C940.333 449.021 940.688 451.302 940.688 453.781V454.438C940.688 456.896 940.333 459.177 939.625 461.281C938.917 463.365 937.875 465.188 936.5 466.75C935.146 468.292 933.479 469.49 931.5 470.344C929.521 471.198 927.25 471.625 924.688 471.625C922.125 471.625 919.844 471.198 917.844 470.344C915.865 469.49 914.188 468.292 912.812 466.75C911.458 465.188 910.427 463.365 909.719 461.281C909.01 459.177 908.656 456.896 908.656 454.438ZM917.656 453.781V454.438C917.656 455.854 917.781 457.177 918.031 458.406C918.281 459.635 918.677 460.719 919.219 461.656C919.781 462.573 920.51 463.292 921.406 463.812C922.302 464.333 923.396 464.594 924.688 464.594C925.938 464.594 927.01 464.333 927.906 463.812C928.802 463.292 929.521 462.573 930.062 461.656C930.604 460.719 931 459.635 931.25 458.406C931.521 457.177 931.656 455.854 931.656 454.438V453.781C931.656 452.406 931.521 451.115 931.25 449.906C931 448.677 930.594 447.594 930.031 446.656C929.49 445.698 928.771 444.948 927.875 444.406C926.979 443.865 925.896 443.594 924.625 443.594C923.354 443.594 922.271 443.865 921.375 444.406C920.5 444.948 919.781 445.698 919.219 446.656C918.677 447.594 918.281 448.677 918.031 449.906C917.781 451.115 917.656 452.406 917.656 453.781ZM962.781 437.188V443.562H943.094V437.188H962.781ZM947.969 428.844H956.969V460.812C956.969 461.792 957.094 462.542 957.344 463.062C957.615 463.583 958.01 463.948 958.531 464.156C959.052 464.344 959.708 464.438 960.5 464.438C961.062 464.438 961.562 464.417 962 464.375C962.458 464.312 962.844 464.25 963.156 464.188L963.188 470.812C962.417 471.062 961.583 471.26 960.688 471.406C959.792 471.552 958.802 471.625 957.719 471.625C955.74 471.625 954.01 471.302 952.531 470.656C951.073 469.99 949.948 468.927 949.156 467.469C948.365 466.01 947.969 464.094 947.969 461.719V428.844ZM986.156 463.375V448.312C986.156 447.229 985.979 446.302 985.625 445.531C985.271 444.74 984.719 444.125 983.969 443.688C983.24 443.25 982.292 443.031 981.125 443.031C980.125 443.031 979.26 443.208 978.531 443.562C977.802 443.896 977.24 444.385 976.844 445.031C976.448 445.656 976.25 446.396 976.25 447.25H967.25C967.25 445.812 967.583 444.448 968.25 443.156C968.917 441.865 969.885 440.729 971.156 439.75C972.427 438.75 973.938 437.969 975.688 437.406C977.458 436.844 979.438 436.562 981.625 436.562C984.25 436.562 986.583 437 988.625 437.875C990.667 438.75 992.271 440.062 993.438 441.812C994.625 443.562 995.219 445.75 995.219 448.375V462.844C995.219 464.698 995.333 466.219 995.562 467.406C995.792 468.573 996.125 469.594 996.562 470.469V471H987.469C987.031 470.083 986.698 468.938 986.469 467.562C986.26 466.167 986.156 464.771 986.156 463.375ZM987.344 450.406L987.406 455.5H982.375C981.188 455.5 980.156 455.635 979.281 455.906C978.406 456.177 977.688 456.562 977.125 457.062C976.562 457.542 976.146 458.104 975.875 458.75C975.625 459.396 975.5 460.104 975.5 460.875C975.5 461.646 975.677 462.344 976.031 462.969C976.385 463.573 976.896 464.052 977.562 464.406C978.229 464.74 979.01 464.906 979.906 464.906C981.26 464.906 982.438 464.635 983.438 464.094C984.438 463.552 985.208 462.885 985.75 462.094C986.312 461.302 986.604 460.552 986.625 459.844L989 463.656C988.667 464.51 988.208 465.396 987.625 466.312C987.062 467.229 986.344 468.094 985.469 468.906C984.594 469.698 983.542 470.354 982.312 470.875C981.083 471.375 979.625 471.625 977.938 471.625C975.792 471.625 973.844 471.198 972.094 470.344C970.365 469.469 968.99 468.271 967.969 466.75C966.969 465.208 966.469 463.458 966.469 461.5C966.469 459.729 966.802 458.156 967.469 456.781C968.135 455.406 969.115 454.25 970.406 453.312C971.719 452.354 973.354 451.635 975.312 451.156C977.271 450.656 979.542 450.406 982.125 450.406H987.344ZM1011.66 423V471H1002.62V423H1011.66ZM1059.28 459.094C1059.28 458.281 1059.16 457.552 1058.91 456.906C1058.68 456.24 1058.24 455.635 1057.59 455.094C1056.95 454.531 1056.04 453.979 1054.88 453.438C1053.71 452.896 1052.2 452.333 1050.34 451.75C1048.28 451.083 1046.32 450.333 1044.47 449.5C1042.64 448.667 1041.01 447.698 1039.59 446.594C1038.2 445.469 1037.09 444.167 1036.28 442.688C1035.49 441.208 1035.09 439.49 1035.09 437.531C1035.09 435.635 1035.51 433.917 1036.34 432.375C1037.18 430.812 1038.34 429.479 1039.84 428.375C1041.34 427.25 1043.11 426.385 1045.16 425.781C1047.22 425.177 1049.48 424.875 1051.94 424.875C1055.29 424.875 1058.22 425.479 1060.72 426.688C1063.22 427.896 1065.16 429.552 1066.53 431.656C1067.93 433.76 1068.62 436.167 1068.62 438.875H1059.31C1059.31 437.542 1059.03 436.375 1058.47 435.375C1057.93 434.354 1057.09 433.552 1055.97 432.969C1054.86 432.385 1053.47 432.094 1051.78 432.094C1050.16 432.094 1048.8 432.344 1047.72 432.844C1046.64 433.323 1045.82 433.979 1045.28 434.812C1044.74 435.625 1044.47 436.542 1044.47 437.562C1044.47 438.333 1044.66 439.031 1045.03 439.656C1045.43 440.281 1046.01 440.865 1046.78 441.406C1047.55 441.948 1048.5 442.458 1049.62 442.938C1050.75 443.417 1052.05 443.885 1053.53 444.344C1056.01 445.094 1058.19 445.938 1060.06 446.875C1061.96 447.812 1063.54 448.865 1064.81 450.031C1066.08 451.198 1067.04 452.521 1067.69 454C1068.33 455.479 1068.66 457.156 1068.66 459.031C1068.66 461.01 1068.27 462.781 1067.5 464.344C1066.73 465.906 1065.61 467.229 1064.16 468.312C1062.7 469.396 1060.96 470.219 1058.94 470.781C1056.92 471.344 1054.66 471.625 1052.16 471.625C1049.91 471.625 1047.69 471.333 1045.5 470.75C1043.31 470.146 1041.32 469.24 1039.53 468.031C1037.76 466.823 1036.34 465.281 1035.28 463.406C1034.22 461.531 1033.69 459.312 1033.69 456.75H1043.09C1043.09 458.167 1043.31 459.365 1043.75 460.344C1044.19 461.323 1044.8 462.115 1045.59 462.719C1046.41 463.323 1047.36 463.76 1048.47 464.031C1049.59 464.302 1050.82 464.438 1052.16 464.438C1053.78 464.438 1055.11 464.208 1056.16 463.75C1057.22 463.292 1058 462.656 1058.5 461.844C1059.02 461.031 1059.28 460.115 1059.28 459.094ZM1090.03 471.625C1087.41 471.625 1085.05 471.208 1082.97 470.375C1080.89 469.521 1079.11 468.344 1077.66 466.844C1076.22 465.344 1075.11 463.604 1074.34 461.625C1073.57 459.625 1073.19 457.5 1073.19 455.25V454C1073.19 451.438 1073.55 449.094 1074.28 446.969C1075.01 444.844 1076.05 443 1077.41 441.438C1078.78 439.875 1080.45 438.677 1082.41 437.844C1084.36 436.99 1086.57 436.562 1089.03 436.562C1091.43 436.562 1093.55 436.958 1095.41 437.75C1097.26 438.542 1098.81 439.667 1100.06 441.125C1101.33 442.583 1102.29 444.333 1102.94 446.375C1103.58 448.396 1103.91 450.646 1103.91 453.125V456.875H1077.03V450.875H1095.06V450.188C1095.06 448.938 1094.83 447.823 1094.38 446.844C1093.94 445.844 1093.27 445.052 1092.38 444.469C1091.48 443.885 1090.33 443.594 1088.94 443.594C1087.75 443.594 1086.73 443.854 1085.88 444.375C1085.02 444.896 1084.32 445.625 1083.78 446.562C1083.26 447.5 1082.86 448.604 1082.59 449.875C1082.34 451.125 1082.22 452.5 1082.22 454V455.25C1082.22 456.604 1082.41 457.854 1082.78 459C1083.18 460.146 1083.73 461.135 1084.44 461.969C1085.17 462.802 1086.04 463.448 1087.06 463.906C1088.1 464.365 1089.28 464.594 1090.59 464.594C1092.22 464.594 1093.73 464.281 1095.12 463.656C1096.54 463.01 1097.76 462.042 1098.78 460.75L1103.16 465.5C1102.45 466.521 1101.48 467.5 1100.25 468.438C1099.04 469.375 1097.58 470.146 1095.88 470.75C1094.17 471.333 1092.22 471.625 1090.03 471.625ZM1123 464.594C1124.1 464.594 1125.08 464.385 1125.94 463.969C1126.79 463.531 1127.46 462.927 1127.94 462.156C1128.44 461.365 1128.7 460.438 1128.72 459.375H1137.19C1137.17 461.75 1136.53 463.865 1135.28 465.719C1134.03 467.552 1132.35 469 1130.25 470.062C1128.15 471.104 1125.79 471.625 1123.19 471.625C1120.56 471.625 1118.27 471.188 1116.31 470.312C1114.38 469.438 1112.76 468.229 1111.47 466.688C1110.18 465.125 1109.21 463.312 1108.56 461.25C1107.92 459.167 1107.59 456.938 1107.59 454.562V453.656C1107.59 451.26 1107.92 449.031 1108.56 446.969C1109.21 444.885 1110.18 443.073 1111.47 441.531C1112.76 439.969 1114.38 438.75 1116.31 437.875C1118.25 437 1120.52 436.562 1123.12 436.562C1125.9 436.562 1128.32 437.094 1130.41 438.156C1132.51 439.219 1134.16 440.74 1135.34 442.719C1136.55 444.677 1137.17 447 1137.19 449.688H1128.72C1128.7 448.562 1128.46 447.542 1128 446.625C1127.56 445.708 1126.92 444.979 1126.06 444.438C1125.23 443.875 1124.2 443.594 1122.97 443.594C1121.66 443.594 1120.58 443.875 1119.75 444.438C1118.92 444.979 1118.27 445.729 1117.81 446.688C1117.35 447.625 1117.03 448.698 1116.84 449.906C1116.68 451.094 1116.59 452.344 1116.59 453.656V454.562C1116.59 455.875 1116.68 457.135 1116.84 458.344C1117.01 459.552 1117.32 460.625 1117.78 461.562C1118.26 462.5 1118.92 463.24 1119.75 463.781C1120.58 464.323 1121.67 464.594 1123 464.594ZM1162.41 462.906V437.188H1171.41V471H1162.94L1162.41 462.906ZM1163.41 455.969L1166.06 455.906C1166.06 458.156 1165.8 460.25 1165.28 462.188C1164.76 464.104 1163.98 465.771 1162.94 467.188C1161.9 468.583 1160.58 469.677 1159 470.469C1157.42 471.24 1155.55 471.625 1153.41 471.625C1151.76 471.625 1150.24 471.396 1148.84 470.938C1147.47 470.458 1146.28 469.719 1145.28 468.719C1144.3 467.698 1143.53 466.396 1142.97 464.812C1142.43 463.208 1142.16 461.281 1142.16 459.031V437.188H1151.16V459.094C1151.16 460.094 1151.27 460.938 1151.5 461.625C1151.75 462.312 1152.09 462.875 1152.53 463.312C1152.97 463.75 1153.48 464.062 1154.06 464.25C1154.67 464.438 1155.33 464.531 1156.06 464.531C1157.92 464.531 1159.38 464.156 1160.44 463.406C1161.52 462.656 1162.28 461.635 1162.72 460.344C1163.18 459.031 1163.41 457.573 1163.41 455.969ZM1187.28 444.562V471H1178.28V437.188H1186.75L1187.28 444.562ZM1197.47 436.969L1197.31 445.312C1196.88 445.25 1196.34 445.198 1195.72 445.156C1195.11 445.094 1194.56 445.062 1194.06 445.062C1192.79 445.062 1191.69 445.229 1190.75 445.562C1189.83 445.875 1189.06 446.344 1188.44 446.969C1187.83 447.594 1187.38 448.354 1187.06 449.25C1186.77 450.146 1186.6 451.167 1186.56 452.312L1184.75 451.75C1184.75 449.562 1184.97 447.552 1185.41 445.719C1185.84 443.865 1186.48 442.25 1187.31 440.875C1188.17 439.5 1189.21 438.438 1190.44 437.688C1191.67 436.938 1193.07 436.562 1194.66 436.562C1195.16 436.562 1195.67 436.604 1196.19 436.688C1196.71 436.75 1197.14 436.844 1197.47 436.969ZM1211.22 437.188V471H1202.19V437.188H1211.22ZM1201.62 428.375C1201.62 427.062 1202.08 425.979 1203 425.125C1203.92 424.271 1205.15 423.844 1206.69 423.844C1208.21 423.844 1209.43 424.271 1210.34 425.125C1211.28 425.979 1211.75 427.062 1211.75 428.375C1211.75 429.688 1211.28 430.771 1210.34 431.625C1209.43 432.479 1208.21 432.906 1206.69 432.906C1205.15 432.906 1203.92 432.479 1203 431.625C1202.08 430.771 1201.62 429.688 1201.62 428.375ZM1235.22 437.188V443.562H1215.53V437.188H1235.22ZM1220.41 428.844H1229.41V460.812C1229.41 461.792 1229.53 462.542 1229.78 463.062C1230.05 463.583 1230.45 463.948 1230.97 464.156C1231.49 464.344 1232.15 464.438 1232.94 464.438C1233.5 464.438 1234 464.417 1234.44 464.375C1234.9 464.312 1235.28 464.25 1235.59 464.188L1235.62 470.812C1234.85 471.062 1234.02 471.26 1233.12 471.406C1232.23 471.552 1231.24 471.625 1230.16 471.625C1228.18 471.625 1226.45 471.302 1224.97 470.656C1223.51 469.99 1222.39 468.927 1221.59 467.469C1220.8 466.01 1220.41 464.094 1220.41 461.719V428.844ZM1250.38 467.188L1259.34 437.188H1269L1255.41 476.094C1255.11 476.948 1254.72 477.865 1254.22 478.844C1253.74 479.823 1253.08 480.75 1252.25 481.625C1251.44 482.521 1250.41 483.25 1249.16 483.812C1247.93 484.375 1246.42 484.656 1244.62 484.656C1243.77 484.656 1243.07 484.604 1242.53 484.5C1241.99 484.396 1241.34 484.25 1240.59 484.062V477.469C1240.82 477.469 1241.06 477.469 1241.31 477.469C1241.56 477.49 1241.8 477.5 1242.03 477.5C1243.22 477.5 1244.19 477.365 1244.94 477.094C1245.69 476.823 1246.29 476.406 1246.75 475.844C1247.21 475.302 1247.57 474.594 1247.84 473.719L1250.38 467.188ZM1246.62 437.188L1253.97 461.688L1255.25 471.219L1249.12 471.875L1236.97 437.188H1246.62Z" fill="white"/>
<g clip-path="url(#clip2_141_5018)">
<path d="M118 386H374C374 386 364.348 340.639 316.159 339.036C316.159 339.036 284.021 336.892 259.909 367.859C259.909 367.859 189.759 331.56 118 386Z" fill="white" fill-opacity="0.1"/>
</g>
<g clip-path="url(#clip3_141_5018)">
<path d="M1363 505.993H1796C1796 505.993 1779.67 404.662 1698.17 401.081C1698.17 401.081 1643.81 396.292 1603.03 465.469C1603.03 465.469 1484.37 384.38 1363 505.993Z" fill="white" fill-opacity="0.1"/>
</g>
</g>
<defs>
<clipPath id="clip0_141_5018">
<rect width="1920" height="758" fill="white" transform="translate(-23)"/>
</clipPath>
<clipPath id="clip1_141_5018">
<rect width="2026" height="302" fill="white" transform="translate(-53 495)"/>
</clipPath>
<clipPath id="clip2_141_5018">
<rect width="256" height="47" fill="white" transform="translate(118 339)"/>
</clipPath>
<clipPath id="clip3_141_5018">
<rect width="433" height="104.993" fill="white" transform="translate(1363 401)"/>
</clipPath>
</defs>
</svg>
