<svg width="80" height="80" viewBox="0 0 80 80" fill="none" xmlns="http://www.w3.org/2000/svg">
<path d="M74.0246 40.0079C70.5966 39.6858 67.2566 38.7386 64.1698 37.2133V34.3979L74.6798 23.8879C74.8848 23.6828 75 23.4046 75 23.1146C75 22.8246 74.8848 22.5464 74.6798 22.3413L57.6575 5.32122C57.4524 5.11617 57.1743 5.00098 56.8843 5.00098C56.5942 5.00098 56.3161 5.11617 56.111 5.32122L45.601 15.829H39.8642C39.5742 15.8291 39.296 15.9444 39.0909 16.1495L6.59967 48.642C5.57529 49.6687 5 51.0598 5 52.5102C5 53.9605 5.57529 55.3516 6.59967 56.3783L23.6186 73.3973C24.6451 74.4219 26.0363 74.9974 27.4867 74.9974C28.9371 74.9974 30.3282 74.4219 31.3548 73.3973L43.4802 61.274C44.8948 64.8567 47.3895 67.9103 50.6181 70.011L57.9944 74.8236C58.1721 74.9393 58.3796 75.001 58.5916 75.001C58.8037 75.001 59.0112 74.9393 59.1888 74.8236L66.5662 70.011C69.1595 68.3252 71.2896 66.0171 72.7623 63.2972C74.2351 60.5773 75.0037 57.5321 74.998 54.439V41.0951C74.9981 40.8258 74.8988 40.566 74.7191 40.3654C74.5395 40.1648 74.2922 40.0375 74.0246 40.0079ZM57.6575 17.695L62.2995 13.0563L63.8471 14.6051L59.2052 19.2471L57.6575 17.695ZM60.7529 11.5065L56.111 16.1572L54.5633 14.604L59.2052 9.96207L60.7529 11.5065ZM65.3937 16.1572L66.9425 17.7048L62.3006 22.3468L60.7518 20.7991L65.3937 16.1572ZM68.4891 19.2514L70.0367 20.7991L65.3948 25.4356L63.8471 23.8879L68.4891 19.2514ZM56.8843 7.6411L57.6586 8.41548L52.2478 13.8307C52.0428 14.0358 51.9276 14.314 51.9276 14.604C51.9276 14.894 52.0428 15.1722 52.2478 15.3773L58.4352 21.5658L64.6215 27.7511C64.8266 27.9561 65.1048 28.0713 65.3948 28.0713C65.6848 28.0713 65.963 27.9561 66.1681 27.7511L71.5833 22.3359L72.3577 23.1102L63.076 32.3985L47.6004 16.9228L56.8843 7.6411ZM29.8082 71.8529C29.5035 72.158 29.1416 72.4 28.7432 72.5651C28.3449 72.7302 27.9179 72.8152 27.4867 72.8152C27.0555 72.8152 26.6285 72.7302 26.2302 72.5651C25.8318 72.4 25.4699 72.158 25.1652 71.8529L8.14625 54.8339C7.5317 54.2175 7.1866 53.3827 7.1866 52.5123C7.1866 51.642 7.5317 50.8071 8.14625 50.1908L40.3171 18.0166H45.601L61.9823 34.3979V35.9106C61.0462 35.2755 60.1707 34.5553 59.3671 33.7592C59.162 33.5541 58.8838 33.4389 58.5938 33.4389C58.3038 33.4389 58.0256 33.5541 57.8205 33.7592C56.0216 35.5311 53.8982 36.94 51.5664 37.9089L39.8631 26.2056C39.658 26.0006 39.3799 25.8854 39.0899 25.8854C38.7998 25.8854 38.5217 26.0006 38.3166 26.2056L16.6568 47.8764C16.4518 48.0815 16.3366 48.3597 16.3366 48.6497C16.3366 48.9397 16.4518 49.2179 16.6568 49.423L30.5815 63.3423C30.7866 63.5473 31.0647 63.6625 31.3548 63.6625C31.6448 63.6625 31.923 63.5473 32.1281 63.3423L42.1852 53.2862V54.439C42.1857 55.9504 42.3694 57.4562 42.7321 58.9235L29.8082 71.8529ZM43.1586 40.0079C42.891 40.0375 42.6437 40.1648 42.4641 40.3654C42.2845 40.566 42.1852 40.8258 42.1852 41.0951V50.1952L42.1775 50.2007L31.3493 61.0224L18.9767 48.642L39.0909 28.5266L49.2946 38.7347C47.296 39.3594 45.2408 39.7859 43.1586 40.0079ZM72.8105 54.439C72.8154 57.1677 72.1374 59.8543 70.8384 62.254C69.5393 64.6536 67.6604 66.6901 65.3729 68.1778L58.5916 72.6021L51.8103 68.1789C49.5227 66.6911 47.6437 64.6544 46.3446 62.2546C45.0455 59.8547 44.3677 57.1679 44.3727 54.439V42.0619C50.2615 41.2613 55.0358 39.2389 58.5916 36.0397C62.1474 39.2389 66.9217 41.2613 72.8105 42.0619V54.439Z" fill="#31BF5C"/>
<path d="M58.3695 39.2047C55.1957 41.3442 51.6187 42.791 47.8651 43.4536C47.6203 43.5061 47.4007 43.6425 47.2432 43.8399C47.0857 44.0373 46.9998 44.2836 47 44.5376V54.7252C46.9982 57.1251 47.5889 59.4873 48.7182 61.5958C49.8475 63.7043 51.4794 65.4919 53.4647 66.7952L58.436 69.8415C58.6062 69.9458 58.8012 70.001 59 70.001C59.1988 70.001 59.3938 69.9458 59.564 69.8415L64.5691 66.7742C66.5459 65.4695 68.1698 63.6837 69.293 61.5792C70.4162 59.4748 71.003 57.1186 71 54.7252V44.5376C71.0002 44.2836 70.9143 44.0373 70.7568 43.8399C70.5993 43.6425 70.3797 43.5061 70.1349 43.4536C66.3813 42.791 62.8043 41.3442 59.6305 39.2047C59.4462 39.0722 59.2259 39.001 59 39.001C58.7741 39.001 58.5538 39.0722 58.3695 39.2047ZM68.8182 45.4235V54.7252C68.823 56.7451 68.3309 58.7343 67.3863 60.5122C66.4418 62.2901 65.0748 63.8004 63.4094 64.9061L59 67.6058L54.6244 64.926C52.9506 63.8218 51.5757 62.31 50.625 60.5282C49.6744 58.7464 49.1782 56.7515 49.1818 54.7252V45.4235C52.6641 44.7085 55.9903 43.3602 59 41.4437C62.0096 43.3602 65.3359 44.7085 68.8182 45.4235Z" fill="#31BF5C"/>
<path d="M54.8664 56.8868C54.6587 56.6917 54.3805 56.5837 54.0918 56.5861C53.803 56.5886 53.5268 56.7013 53.3226 56.8999C53.1184 57.0985 53.0026 57.3672 53 57.6481C52.9975 57.929 53.1085 58.1997 53.3092 58.4017L57.7145 62.6871C57.8472 62.8162 58.0117 62.9103 58.1924 62.9602C58.373 63.0101 58.5637 63.0143 58.7465 62.9723C58.9292 62.9303 59.0979 62.8436 59.2365 62.7204C59.3751 62.5971 59.479 62.4415 59.5383 62.2682L63.9436 49.4121C64.0359 49.1422 64.0142 48.8476 63.8833 48.5933C63.7523 48.3389 63.5229 48.1456 63.2454 48.0558C62.9679 47.966 62.6651 47.9871 62.4036 48.1145C62.1422 48.2419 61.9434 48.4651 61.8511 48.735L58.0119 59.9466L54.8664 56.8868Z" fill="#31BF5C"/>
</svg>
