<svg width="1076" height="101" viewBox="0 0 1076 101" fill="none" xmlns="http://www.w3.org/2000/svg">
<g clip-path="url(#clip0_141_5824)">
<g clip-path="url(#clip1_141_5824)">
<mask id="mask0_141_5824" style="mask-type:luminance" maskUnits="userSpaceOnUse" x="157" y="35" width="209" height="43">
<path d="M365.11 35.3105H157.66V77.8378H365.11V35.3105Z" fill="white"/>
</mask>
<g mask="url(#mask0_141_5824)">
<path d="M355.024 69.7381C360.851 69.4791 362.426 62.9696 359.633 59.6199C359.672 59.3609 359.691 59.102 359.708 58.843C367.017 57.8587 366.979 46.6527 359.166 46.86C358.34 46.8773 357.516 46.8773 356.673 46.9118C361.77 44.3909 360.89 35.2915 353.974 35.4814C293.296 37.1045 232.637 38.7275 171.958 40.3506C164.463 40.5578 164.182 50.1234 170.403 52.0917C168.136 52.0917 165.887 52.0917 163.619 52.0745C155.636 52.0227 155.711 63.7811 163.619 64.1438C172.146 64.5408 180.653 64.9034 189.18 65.197C186.481 65.3178 183.783 65.4388 181.066 65.5596C173.158 65.9221 173.101 77.9914 181.066 77.6288C239.064 75.0044 297.044 72.3626 355.043 69.7381H355.024Z" fill="#FC787D"/>
</g>
</g>
</g>
<path d="M173.375 81.88C171.242 81.3467 169.508 80.2267 168.175 78.52C166.895 76.8667 165.855 74.8667 165.055 72.52C165.002 71.8267 164.975 70.8667 164.975 69.64C165.028 68.4133 165.108 67.2667 165.215 66.2C165.322 65.1333 165.428 64.52 165.535 64.36C165.695 64.2533 165.775 63.9333 165.775 63.4C165.722 63.1867 165.748 62.84 165.855 62.36C166.015 61.8267 166.175 61.2933 166.335 60.76C166.602 60.12 166.735 59.6133 166.735 59.24C166.735 58.8133 166.708 58.4933 166.655 58.28C166.655 58.28 166.735 58.12 166.895 57.8C167.055 57.4267 167.242 57.1333 167.455 56.92C167.775 56.6 167.908 56.28 167.855 55.96C167.855 55.64 167.855 55.48 167.855 55.48C167.802 55.2667 167.855 54.9733 168.015 54.6C168.175 54.2267 168.335 53.9333 168.495 53.72C168.602 53.6133 168.735 53.4 168.895 53.08C169.108 52.7067 169.215 52.52 169.215 52.52C169.215 52.36 169.322 51.9333 169.535 51.24C169.802 50.5467 170.095 49.8 170.415 49C170.735 48.1467 171.028 47.3733 171.295 46.68C171.615 45.9867 171.855 45.5333 172.015 45.32V45.16C172.228 44.6267 172.522 44.0667 172.895 43.48C172.948 43.2133 173.082 42.7867 173.295 42.2C173.508 41.56 173.748 40.9467 174.015 40.36C174.602 39.08 175.322 37.64 176.175 36.04C177.082 34.3867 178.042 32.76 179.055 31.16C180.068 29.5067 181.028 28.04 181.935 26.76C182.895 25.4267 183.722 24.44 184.415 23.8C185.322 22.7867 186.228 22.0667 187.135 21.64C188.095 21.16 188.975 21.32 189.775 22.12C190.148 22.4933 190.468 23.0533 190.735 23.8C191.002 24.4933 191.108 25.16 191.055 25.8C191.055 26.3867 190.842 26.7067 190.415 26.76C190.042 26.9733 189.535 27.5867 188.895 28.6C188.255 29.56 187.535 30.7067 186.735 32.04C185.988 33.3733 185.242 34.76 184.495 36.2C183.748 37.5867 183.055 38.84 182.415 39.96C181.722 41.5067 181.082 42.8667 180.495 44.04C179.908 45.16 179.615 45.72 179.615 45.72C179.562 45.88 179.508 46.0133 179.455 46.12C179.402 46.2267 179.348 46.3333 179.295 46.44C178.495 48.0933 177.828 49.6133 177.295 51C176.762 52.3333 176.228 53.7467 175.695 55.24C175.375 55.6133 175.188 55.9867 175.135 56.36C175.082 56.7333 175.055 56.92 175.055 56.92C174.948 56.8667 174.868 57 174.815 57.32C174.762 57.5867 174.655 57.9067 174.495 58.28C174.228 58.4933 174.068 58.84 174.015 59.32C173.962 59.7467 173.935 60.1733 173.935 60.6C173.562 61.56 173.215 62.7333 172.895 64.12C172.575 65.4533 172.335 66.76 172.175 68.04C172.068 69.2667 172.042 70.2267 172.095 70.92C172.202 71.8267 172.442 72.6 172.815 73.24C173.242 73.8267 173.828 74.3067 174.575 74.68C175.162 74.9467 175.695 75.1867 176.175 75.4C176.655 75.56 177.082 75.64 177.455 75.64C177.882 75.6933 178.415 75.6933 179.055 75.64C179.748 75.5333 180.682 75.3733 181.855 75.16H181.775C182.468 75.0533 183.188 74.92 183.935 74.76C184.735 74.5467 185.482 74.36 186.175 74.2C186.815 74.0933 187.428 73.9867 188.015 73.88C188.602 73.72 189.055 73.5867 189.375 73.48C190.548 73.16 191.482 72.8933 192.175 72.68C192.922 72.4667 193.428 72.4667 193.695 72.68C193.962 72.8933 194.255 73.2933 194.575 73.88C194.895 74.4667 194.975 75 194.815 75.48C194.708 75.7467 194.175 76.28 193.215 77.08C192.255 77.9333 191.162 78.76 189.935 79.56C188.708 80.4133 187.588 81 186.575 81.32C185.508 81.8 184.068 82.12 182.255 82.28C180.495 82.4933 178.788 82.5467 177.135 82.44C175.482 82.3333 174.228 82.1467 173.375 81.88ZM215.357 75.4C213.757 76.3067 212.051 76.84 210.237 77C208.477 77.1067 206.824 76.8667 205.277 76.28C203.731 75.64 202.477 74.7067 201.517 73.48C200.984 72.7867 200.477 71.6933 199.997 70.2C199.517 68.6533 199.437 66.5733 199.757 63.96C200.077 61.5067 200.824 59.0267 201.997 56.52C203.224 54.0133 204.717 51.8 206.477 49.88C208.237 47.96 210.157 46.6533 212.237 45.96C212.984 45.6933 213.731 45.5067 214.477 45.4C215.277 45.24 216.317 45.2133 217.597 45.32C218.824 45.48 219.917 45.8 220.877 46.28C221.837 46.7067 222.531 47.1867 222.957 47.72C223.811 48.5733 224.371 49.4 224.637 50.2C224.904 51 225.011 51.7733 224.957 52.52C224.691 54.2267 223.917 56.0667 222.637 58.04C221.411 60.0133 219.677 61.48 217.437 62.44C216.531 62.8133 215.464 63.0533 214.237 63.16C213.011 63.2667 211.331 63.1067 209.197 62.68C207.917 62.4133 207.064 62.5467 206.637 63.08C206.264 63.6133 206.104 64.6533 206.157 66.2C206.264 67.16 206.477 68.0133 206.797 68.76C207.171 69.4533 207.837 69.9333 208.797 70.2C210.024 70.4133 210.904 70.44 211.437 70.28C211.971 70.0667 212.637 69.7733 213.437 69.4C213.864 69.1333 214.264 68.84 214.637 68.52C215.064 68.2 215.464 67.88 215.837 67.56C216.264 67.24 216.611 67 216.877 66.84C217.144 66.6267 217.411 66.4933 217.677 66.44C217.944 66.3867 218.211 66.36 218.477 66.36C219.064 66.4133 219.624 66.7333 220.157 67.32C220.691 67.9067 221.037 68.4667 221.197 69C221.197 69.4267 220.931 70.04 220.397 70.84C219.864 71.5867 219.144 72.3867 218.237 73.24C217.384 74.04 216.424 74.76 215.357 75.4ZM214.317 57.56C214.691 57.4 215.224 57.0267 215.917 56.44C216.664 55.8533 217.331 55.24 217.917 54.6C218.504 53.9067 218.797 53.3733 218.797 53C218.797 52.4133 218.397 51.9067 217.597 51.48C216.851 51.0533 215.864 50.9733 214.637 51.24C214.211 51.3467 213.704 51.64 213.117 52.12C212.531 52.6 211.944 53.16 211.357 53.8C210.771 54.3867 210.264 54.9733 209.837 55.56C209.411 56.0933 209.117 56.52 208.957 56.84C209.171 57.1067 209.597 57.32 210.237 57.48C210.877 57.64 211.571 57.72 212.317 57.72C213.117 57.72 213.784 57.6667 214.317 57.56ZM232.956 72.76C232.583 72.44 232.076 71.48 231.436 69.88C230.849 68.28 230.263 66.4133 229.676 64.28C229.143 62.1467 228.716 60.1733 228.396 58.36C228.183 57.2933 227.943 56.3867 227.676 55.64C227.463 54.8933 227.276 54.28 227.116 53.8C226.849 52.84 226.929 51.8267 227.356 50.76C227.836 49.6933 228.396 48.9733 229.036 48.6C229.303 48.44 229.783 48.3333 230.476 48.28C231.223 48.1733 231.703 48.1467 231.916 48.2C232.556 48.4133 233.143 49.4 233.676 51.16C234.209 52.8667 234.689 55.1333 235.116 57.96C235.329 59.6133 235.489 60.84 235.596 61.64C235.756 62.3867 235.836 62.8667 235.836 63.08C236.049 63.5067 236.183 64.04 236.236 64.68C236.343 65.2667 236.609 65.3467 237.036 64.92C237.249 64.7067 237.569 64.3333 237.996 63.8C238.476 63.2667 239.036 62.5733 239.676 61.72C240.796 60.2267 241.676 59 242.316 58.04C243.009 57.0267 243.783 55.9867 244.636 54.92C245.009 54.3867 245.516 53.8 246.156 53.16C246.796 52.52 247.436 51.9333 248.076 51.4C248.716 50.8133 249.249 50.4667 249.676 50.36C250.956 50.1467 251.729 50.6267 251.996 51.8C252.316 52.92 251.943 54.2267 250.876 55.72C250.449 56.36 250.103 56.9733 249.836 57.56C249.623 58.0933 249.409 58.4667 249.196 58.68C248.769 59.5333 248.103 60.6267 247.196 61.96C246.289 63.24 245.409 64.44 244.556 65.56C243.703 66.6267 243.116 67.32 242.796 67.64C242.583 67.8533 242.103 68.2533 241.356 68.84C240.663 69.4267 239.996 70.1733 239.356 71.08C238.076 72.3067 236.849 73.0533 235.676 73.32C234.503 73.5867 233.596 73.4 232.956 72.76ZM261.2 78.44C258.267 78.44 256 77.5867 254.4 75.88C252.854 74.1733 252.08 71.56 252.08 68.04C252.08 66.12 252.427 64.0133 253.12 61.72C253.867 59.4267 254.827 57.1867 256 55C257.227 52.8133 258.56 50.92 260 49.32C261.44 47.6667 262.88 46.52 264.32 45.88C264.854 45.6133 265.414 45.4267 266 45.32C266.64 45.16 267.254 45.08 267.84 45.08C268.48 45.08 269.174 45.1333 269.92 45.24C270.72 45.2933 271.467 45.4533 272.16 45.72C273.387 46.0933 274.454 46.8133 275.36 47.88C276.32 48.9467 276.8 50.4933 276.8 52.52C276.8 53.0533 276.747 53.64 276.64 54.28C276.534 54.8667 276.347 55.4533 276.08 56.04C275.387 57.8 274.32 59.48 272.88 61.08C271.494 62.68 270.027 63.8 268.48 64.44C268.054 64.6533 267.627 64.8133 267.2 64.92C266.827 64.9733 266.427 65 266 65C264.88 65 263.867 64.84 262.96 64.52C262.107 64.2 261.307 63.7733 260.56 63.24L259.92 62.68L259.52 63.48C259.147 64.4933 258.88 65.3467 258.72 66.04C258.614 66.7333 258.56 67.24 258.56 67.56C258.56 68.2 258.587 68.8667 258.64 69.56C258.694 70.2 258.854 70.7333 259.12 71.16C259.334 71.4267 259.6 71.64 259.92 71.8C260.294 71.96 260.747 72.04 261.28 72.04C261.6 72.04 261.894 72.04 262.16 72.04C262.48 71.9867 262.747 71.9333 262.96 71.88C263.92 71.6667 264.694 71.32 265.28 70.84C265.92 70.3067 266.587 69.8533 267.28 69.48L267.6 69.32L267.52 69.08C268.427 68.6 269.04 68.3067 269.36 68.2C269.68 68.04 269.92 67.9067 270.08 67.8C270.294 67.5867 270.534 67.48 270.8 67.48C271.547 67.3733 272.267 67.5867 272.96 68.12C273.707 68.6 274.08 69.2133 274.08 69.96C274.08 70.28 273.84 70.7867 273.36 71.48C272.934 72.1733 272.374 72.8667 271.68 73.56C271.04 74.2 270.374 74.7067 269.68 75.08C269.52 75.1333 269.36 75.2133 269.2 75.32C269.04 75.3733 268.88 75.4533 268.72 75.56H268.8C268.32 76.2 267.84 76.52 267.36 76.52H266.72C266.507 76.8933 265.814 77.2933 264.64 77.72C263.467 78.2 262.32 78.44 261.2 78.44ZM265.36 59.16C265.84 59.16 266.267 59.08 266.64 58.92C267.067 58.76 267.467 58.5733 267.84 58.36C269.12 57.4533 269.947 56.28 270.32 54.84C270.694 53.4 270.56 52.3067 269.92 51.56C269.814 51.4 269.68 51.2933 269.52 51.24C269.36 51.1333 269.174 51.08 268.96 51.08C268.374 51.08 267.707 51.2667 266.96 51.64C266.267 52.0133 265.574 52.5467 264.88 53.24C264.187 53.9333 263.547 54.76 262.96 55.72L261.92 57.4C262.027 57.3467 262.107 57.32 262.16 57.32C262.267 57.2667 262.347 57.24 262.4 57.24C262.88 57.24 263.2 57.4 263.36 57.72C263.52 58.04 263.707 58.36 263.92 58.68C264.187 59 264.667 59.16 265.36 59.16ZM281.919 75.08C281.386 74.76 280.799 74.3067 280.159 73.72C279.519 73.08 279.199 72.4667 279.199 71.88C279.199 71.08 279.306 70.0933 279.519 68.92C279.733 67.6933 279.946 66.6533 280.159 65.8C280.266 64.84 280.399 63.88 280.559 62.92C280.773 61.9067 281.146 60.9733 281.679 60.12C282.266 58.0933 282.879 56.0933 283.519 54.12C284.159 52.0933 284.719 50.0133 285.199 47.88C285.893 45.9067 286.506 44.1733 287.039 42.68C287.626 41.1333 288.346 39.1867 289.199 36.84C289.679 35.5067 290.079 34.0933 290.399 32.6C290.773 31.0533 291.333 29.6667 292.079 28.44C292.399 27.96 292.639 27.56 292.799 27.24C293.013 26.8667 293.226 26.52 293.439 26.2C293.493 25.9867 293.759 25.8 294.239 25.64C294.773 25.48 295.306 25.4 295.839 25.4C296.426 25.3467 296.826 25.4533 297.039 25.72C297.199 25.6667 297.466 25.88 297.839 26.36C298.213 26.7867 298.559 27.2933 298.879 27.88C299.253 28.4133 299.413 28.84 299.359 29.16C299.359 29.3733 299.306 29.6667 299.199 30.04C299.146 30.4133 299.013 30.76 298.799 31.08C298.586 31.2933 298.373 31.6133 298.159 32.04C297.999 32.4133 297.733 32.9467 297.359 33.64C297.146 34.3333 296.959 35.0533 296.799 35.8C296.639 36.4933 296.426 37.1333 296.159 37.72C295.946 38.36 295.679 38.9733 295.359 39.56C295.093 40.1467 294.906 40.6267 294.799 41C294.426 42.2267 293.973 43.4267 293.439 44.6C292.959 45.7733 292.533 47.0267 292.159 48.36C291.786 49.64 291.413 50.9733 291.039 52.36C290.666 53.6933 290.133 54.9733 289.439 56.2C289.066 56.7867 288.799 57.5333 288.639 58.44C288.479 59.3467 288.319 60.2533 288.159 61.16C287.839 62.12 287.546 63.0267 287.279 63.88C287.066 64.68 286.959 65.1867 286.959 65.4C286.639 66.5733 286.399 67.7467 286.239 68.92C286.133 70.04 285.866 71.0267 285.439 71.88C285.386 72.4133 285.199 73 284.879 73.64C284.559 74.28 284.133 74.76 283.599 75.08C283.119 75.4 282.559 75.4 281.919 75.08ZM319.033 74.2C318.02 73.2933 317.14 72.36 316.393 71.4C315.646 70.3867 315.14 68.84 314.873 66.76C314.766 65.8 314.873 64.4667 315.193 62.76C315.513 61.0533 315.993 59.2667 316.633 57.4C317.273 55.48 317.966 53.72 318.713 52.12C319.46 50.52 320.206 49.3467 320.953 48.6C321.593 47.8 322.393 47.16 323.353 46.68C324.366 46.2 325.406 46.2 326.473 46.68C327.06 47.3733 327.353 48.3333 327.353 49.56C327.406 50.7333 327.113 51.8267 326.473 52.84C325.406 54.28 324.473 56.0933 323.673 58.28C322.926 60.4133 322.42 62.3333 322.153 64.04C321.78 65.2667 321.62 66.2267 321.673 66.92C321.726 67.56 322.1 67.96 322.793 68.12C323.806 68.3867 324.846 68.0933 325.913 67.24C327.033 66.3867 328.1 65.1333 329.113 63.48C330.18 61.8267 331.113 59.9333 331.913 57.8C332.233 57.0533 332.473 56.1733 332.633 55.16C332.846 54.1467 333.06 53.4 333.273 52.92C333.54 51.8533 333.993 51.0267 334.633 50.44C335.326 49.8 336.046 49.4 336.793 49.24C337.54 49.08 338.1 49.16 338.473 49.48C338.953 49.6933 339.46 50.04 339.993 50.52C340.526 51 340.74 51.8533 340.633 53.08C340.633 55.0533 340.206 56.7333 339.353 58.12C338.5 59.5067 337.78 60.9733 337.193 62.52C336.713 63.64 335.94 64.9467 334.873 66.44C333.806 67.9333 332.66 69.2933 331.433 70.52C330.26 71.7467 329.166 72.5733 328.153 73C326.66 73.96 325.14 74.5467 323.593 74.76C322.046 74.92 320.526 74.7333 319.033 74.2ZM339.602 96.44C339.229 96.28 338.642 95.88 337.842 95.24C337.096 94.6 336.402 93.9067 335.762 93.16C335.176 92.4667 334.882 91.96 334.882 91.64C334.882 91.32 335.016 90.4667 335.282 89.08C335.549 87.7467 335.896 86.0933 336.322 84.12C336.802 82.2 337.309 80.2267 337.842 78.2C338.429 76.2267 339.016 74.4667 339.602 72.92C339.709 72.6533 340.056 71.7733 340.642 70.28C341.282 68.7333 341.896 66.8667 342.482 64.68C342.909 63.2933 343.469 61.72 344.162 59.96C344.856 58.2 345.576 56.44 346.322 54.68C347.069 52.8667 347.682 51.2667 348.162 49.88C348.642 48.4933 349.176 47.1067 349.762 45.72C350.349 44.28 350.669 43.4533 350.722 43.24C350.829 42.92 351.122 42.6533 351.602 42.44C352.136 42.1733 352.669 41.96 353.202 41.8C353.736 41.5867 354.082 41.4533 354.242 41.4C355.202 41.1333 356.029 41.5333 356.722 42.6C356.989 43.08 357.042 43.7467 356.882 44.6C356.776 45.4 356.509 46.28 356.082 47.24L355.522 48.84L358.402 48.2C358.882 48.2 359.549 48.2267 360.402 48.28C361.256 48.3333 362.082 48.3867 362.882 48.44C363.736 48.4933 364.322 48.5733 364.642 48.68C365.922 48.7333 366.802 48.9733 367.282 49.4C367.816 49.8267 368.269 50.3867 368.642 51.08C368.909 51.3467 369.229 51.72 369.602 52.2C369.976 52.6267 370.189 53.0533 370.242 53.48C370.456 54.3867 370.376 55.4533 370.002 56.68C369.682 57.9067 369.176 59.16 368.482 60.44C367.842 61.6667 367.069 62.8133 366.162 63.88C365.309 64.8933 364.482 65.6667 363.682 66.2C363.149 66.4133 362.669 66.6533 362.242 66.92C361.816 67.1333 361.602 67.24 361.602 67.24C361.549 67.5067 360.989 67.96 359.922 68.6C358.909 69.24 357.709 69.8533 356.322 70.44C354.989 70.9733 353.789 71.32 352.722 71.48C352.349 71.5333 351.816 71.5867 351.122 71.64C350.429 71.6933 349.896 71.6133 349.522 71.4C348.936 71.2933 348.536 71.24 348.322 71.24C348.109 71.24 348.002 71.3467 348.002 71.56C347.949 71.6667 347.576 72.52 346.882 74.12C346.189 75.72 345.469 77.9333 344.722 80.76C343.709 83.8533 342.882 86.3867 342.242 88.36C341.602 90.3867 341.096 91.96 340.722 93.08C340.402 94.2 340.162 95 340.002 95.48C339.842 96.0133 339.709 96.3333 339.602 96.44ZM349.922 64.52C350.082 64.84 350.642 64.9467 351.602 64.84C352.562 64.68 353.656 64.36 354.882 63.88C356.109 63.4 357.202 62.84 358.162 62.2C359.176 61.5067 359.762 60.7867 359.922 60.04C361.096 58.7067 361.922 57.7467 362.402 57.16C362.882 56.52 362.856 56.0133 362.322 55.64C361.736 54.7867 360.882 54.3867 359.762 54.44C358.696 54.4933 356.989 55.16 354.642 56.44C353.736 56.76 353.122 57.0533 352.802 57.32C352.482 57.5333 352.216 57.88 352.002 58.36C351.842 58.84 351.522 59.6133 351.042 60.68C350.562 61.8533 350.242 62.7333 350.082 63.32C349.922 63.9067 349.869 64.3067 349.922 64.52Z" fill="#111827"/>
<path d="M401.171 93.64C399.251 94.0133 397.411 94.0667 395.651 93.8C393.891 93.5867 392.424 93.1333 391.251 92.44C390.024 91.7467 389.278 90.9733 389.011 90.12C388.691 88.8933 388.851 87.9867 389.491 87.4C390.131 86.8133 390.904 86.4667 391.811 86.36C392.664 86.2533 393.224 86.36 393.491 86.68C393.918 86.9467 394.584 87.3467 395.491 87.88C396.451 88.4133 397.624 88.5467 399.011 88.28C400.238 88.0133 401.331 87.4267 402.291 86.52C403.251 85.6133 404.104 84.6533 404.851 83.64C405.278 83 405.998 81.8533 407.011 80.2C408.024 78.5467 409.064 76.7333 410.131 74.76C411.251 72.7333 412.184 70.8667 412.931 69.16C413.091 68.7333 413.278 68.2267 413.491 67.64C413.704 67.0533 413.971 66.5733 414.291 66.2C414.611 65.56 414.878 64.9733 415.091 64.44C415.358 63.8533 415.518 63.4533 415.571 63.24C415.624 62.9733 415.864 62.44 416.291 61.64C416.718 60.84 417.118 60.04 417.491 59.24C417.758 58.44 418.158 57.2667 418.691 55.72C419.224 54.1733 419.758 52.92 420.291 51.96C420.931 50.7333 421.438 49.7467 421.811 49C422.238 48.2 422.691 47.72 423.171 47.56C423.651 47.1867 424.104 47 424.531 47C424.958 47 425.464 47.16 426.051 47.48C426.691 48.12 427.198 48.76 427.571 49.4C427.998 49.9867 428.158 50.7333 428.051 51.64C427.998 52.4933 427.571 53.6667 426.771 55.16C426.344 56.44 425.864 57.6133 425.331 58.68C424.851 59.6933 424.478 60.36 424.211 60.68C423.944 61.32 423.624 62.04 423.251 62.84C422.931 63.5867 422.638 64.28 422.371 64.92C421.411 67.0533 420.584 68.7867 419.891 70.12C419.198 71.4533 418.584 72.68 418.051 73.8C417.518 74.92 416.958 76.2267 416.371 77.72C415.144 79.6933 413.944 81.56 412.771 83.32C411.651 85.1333 410.451 86.8133 409.171 88.36C408.638 88.84 407.864 89.4533 406.851 90.2C405.891 91 404.878 91.72 403.811 92.36C402.798 93.0533 401.918 93.48 401.171 93.64ZM411.171 75.56C410.371 75.4533 409.491 74.92 408.531 73.96C407.624 73 406.851 71.9867 406.211 70.92C405.624 69.8533 405.384 69.1067 405.491 68.68C405.491 68.4133 405.491 68.2 405.491 68.04C405.491 67.88 405.491 67.8 405.491 67.8C405.171 67.8 404.904 67.3467 404.691 66.44C404.531 65.48 404.398 64.28 404.291 62.84C404.238 61.4 404.211 59.9067 404.211 58.36C404.264 56.8133 404.344 55.4 404.451 54.12C404.664 53.2133 404.771 52.2267 404.771 51.16C404.771 50.04 404.798 49.16 404.851 48.52C404.798 47.6667 404.958 46.9733 405.331 46.44C405.758 45.9067 406.078 45.56 406.291 45.4C408.264 44.5467 409.704 45 410.611 46.76C411.518 48.52 411.838 51.32 411.571 55.16C411.464 57.2933 411.411 59.3467 411.411 61.32C411.411 63.24 411.598 64.8933 411.971 66.28C412.344 67.6667 412.984 68.6533 413.891 69.24C414.264 69.4533 414.398 69.9067 414.291 70.6C414.184 71.2933 413.944 72.04 413.571 72.84C413.198 73.5867 412.771 74.2533 412.291 74.84C411.864 75.3733 411.491 75.6133 411.171 75.56ZM434.997 76.44C434.303 76.44 433.743 76.3067 433.317 76.04C432.943 75.7733 432.463 75.4 431.877 74.92C430.863 73.8533 430.037 72.7067 429.397 71.48C428.81 70.2533 428.597 69.1867 428.757 68.28C428.917 67.8533 428.97 67.4533 428.917 67.08C428.917 66.6533 428.917 66.44 428.917 66.44C428.65 66.1733 428.57 66.0133 428.677 65.96C428.783 65.8533 428.89 65.6933 428.997 65.48C429.317 65.48 429.423 65.1867 429.317 64.6C429.21 64.1733 429.37 63.2667 429.797 61.88C430.277 60.44 430.917 59.08 431.717 57.8C432.037 57.2667 432.517 56.5733 433.157 55.72C433.797 54.8133 434.49 53.9333 435.237 53.08C436.037 52.1733 436.757 51.4533 437.397 50.92C438.73 49.8 439.957 48.8933 441.077 48.2C442.25 47.5067 443.423 47.0267 444.597 46.76C445.77 46.4933 446.97 46.36 448.197 46.36C449.477 46.36 450.517 46.7867 451.317 47.64C452.543 48.1733 453.397 48.8933 453.877 49.8C454.41 50.7067 454.757 51.88 454.917 53.32C455.077 54.92 454.917 56.8933 454.437 59.24C453.957 61.5333 452.65 64.2 450.517 67.24C449.183 69.16 447.877 70.6533 446.597 71.72C445.317 72.7867 443.903 73.7733 442.357 74.68C441.237 75.4267 440.037 75.88 438.757 76.04C437.477 76.2 436.223 76.3333 434.997 76.44ZM443.157 66.68C444.33 65.6667 445.157 64.5467 445.637 63.32C446.17 62.0933 446.73 60.6533 447.317 59C447.53 58.68 447.663 58.1467 447.717 57.4C447.823 56.6533 447.85 55.9333 447.797 55.24C447.743 54.4933 447.557 54.0667 447.237 53.96C446.757 53.5867 446.277 53.5067 445.797 53.72C445.317 53.88 444.703 54.2267 443.957 54.76C442.357 56.0933 440.863 57.64 439.477 59.4C438.143 61.1067 437.21 63.2133 436.677 65.72C436.517 67.0533 436.65 68.0667 437.077 68.76C437.557 69.4 438.303 69.5867 439.317 69.32C440.383 69 441.663 68.12 443.157 66.68ZM477.981 77.48C477.608 77.6933 477.101 77.6133 476.461 77.24C475.874 76.8667 475.288 76.3067 474.701 75.56C474.328 74.92 474.034 74.28 473.821 73.64C473.661 72.9467 473.581 71.9333 473.581 70.6C473.634 69.5333 473.634 68.8133 473.581 68.44C473.581 68.0133 473.341 67.9867 472.861 68.36C472.434 68.68 471.554 69.48 470.221 70.76C468.888 72.0933 467.608 73.24 466.381 74.2C465.208 75.1067 464.248 75.5333 463.501 75.48C463.128 75.48 462.621 75.24 461.981 74.76C461.341 74.28 460.728 73.6933 460.141 73C459.554 72.2533 459.128 71.56 458.861 70.92C458.541 69.64 458.514 67.9867 458.781 65.96C459.101 63.9333 459.608 61.8267 460.301 59.64C460.994 57.4 461.768 55.32 462.621 53.4C463.528 51.4267 464.408 49.8533 465.261 48.68C466.168 47.4533 466.941 46.8667 467.581 46.92C468.488 47.0267 469.261 47.48 469.901 48.28C470.594 49.0267 471.128 49.8533 471.501 50.76C471.714 51.1333 471.794 51.4533 471.741 51.72C471.741 51.9867 471.528 52.3067 471.101 52.68C470.621 53.32 470.034 54.2533 469.341 55.48C468.701 56.6533 468.034 57.9333 467.341 59.32C466.701 60.7067 466.114 62.04 465.581 63.32C465.101 64.5467 464.754 65.56 464.541 66.36C464.328 67.16 464.328 67.56 464.541 67.56C465.288 67.56 465.981 67.3733 466.621 67C467.261 66.5733 468.061 65.9067 469.021 65C470.141 63.88 471.128 62.76 471.981 61.64C472.834 60.4667 473.714 59.1333 474.621 57.64C475.314 56.5733 476.034 55.4 476.781 54.12C477.581 52.84 478.088 51.9333 478.301 51.4C479.048 50.0133 479.608 48.9733 479.981 48.28C480.354 47.5867 480.808 47.16 481.341 47C481.608 47 481.981 47 482.461 47C482.941 47 483.181 47 483.181 47C483.501 47.0533 483.874 47.2933 484.301 47.72C484.728 47.9333 485.154 48.2267 485.581 48.6C486.061 48.9733 486.301 49.2933 486.301 49.56C486.088 50.0933 485.741 50.8933 485.261 51.96C484.834 52.9733 484.514 53.72 484.301 54.2C483.288 56.4933 482.301 58.76 481.341 61C480.434 63.1867 479.768 65.4267 479.341 67.72C479.234 68.4667 479.208 69.3467 479.261 70.36C479.368 71.32 479.528 72.0133 479.741 72.44C479.901 72.76 480.088 73.1333 480.301 73.56C480.568 73.9333 480.861 74.2533 481.181 74.52C481.661 74.84 481.634 75.24 481.101 75.72C480.621 76.2 480.008 76.6267 479.261 77C478.568 77.32 478.141 77.48 477.981 77.48ZM494.55 75.32C494.39 75.3733 494.044 75.3467 493.51 75.24C493.03 75.1333 492.524 75 491.99 74.84C491.51 74.68 491.217 74.5467 491.11 74.44C490.897 74.2267 490.604 73.8533 490.23 73.32C489.857 72.7333 489.644 71.96 489.59 71C489.59 70.04 490.044 68.8933 490.95 67.56C491.217 67.0267 491.537 66.2267 491.91 65.16C492.284 64.0933 492.657 62.9733 493.03 61.8C493.457 60.5733 493.83 59.48 494.15 58.52C494.524 57.56 494.79 56.8933 494.95 56.52C495.057 55.6133 495.004 54.9733 494.79 54.6C494.63 54.1733 494.177 53.9333 493.43 53.88C492.897 53.88 492.47 53.6933 492.15 53.32C491.884 52.9467 491.75 52.28 491.75 51.32C491.857 50.5733 492.044 49.9333 492.31 49.4C492.63 48.8133 493.057 48.3333 493.59 47.96C494.124 47.6933 494.79 47.5067 495.59 47.4C496.444 47.2933 497.27 47.2667 498.07 47.32C498.87 47.3733 499.43 47.56 499.75 47.88C500.124 48.0933 500.417 48.5733 500.63 49.32C500.897 50.0133 501.11 50.7333 501.27 51.48C501.43 52.2267 501.537 52.7867 501.59 53.16C502.124 52.7333 502.71 52.1467 503.35 51.4C504.044 50.6 504.737 49.8533 505.43 49.16C506.284 48.5733 507.297 47.9867 508.47 47.4C509.644 46.76 510.497 46.44 511.03 46.44C511.617 46.44 512.337 46.7333 513.19 47.32C514.044 47.8533 514.577 48.3333 514.79 48.76C515.324 49.6667 515.697 50.6267 515.91 51.64C516.177 52.6 516.017 53.4533 515.43 54.2C514.897 54.8933 514.15 55.5867 513.19 56.28C512.23 56.92 511.03 57.1067 509.59 56.84C509.27 56.7333 508.924 56.3333 508.55 55.64C508.23 54.9467 508.044 54.44 507.99 54.12C507.99 53.96 507.75 54.12 507.27 54.6C506.844 55.0267 506.31 55.56 505.67 56.2C505.084 56.84 504.524 57.4267 503.99 57.96C503.084 59.08 502.124 60.6 501.11 62.52C500.097 64.44 498.897 66.76 497.51 69.48C496.87 70.8133 496.337 72.0933 495.91 73.32C495.484 74.4933 495.03 75.16 494.55 75.32ZM548.034 95.32C547.66 95.32 547.18 95.0267 546.594 94.44C546.007 93.8533 545.634 93.2667 545.474 92.68C545.26 91.9333 545.207 91 545.314 89.88C545.474 88.8133 545.9 87.2933 546.594 85.32C546.967 84.7333 547.34 83.8533 547.714 82.68C548.14 81.5067 548.54 80.44 548.914 79.48C549.66 77.6133 550.167 76.2 550.434 75.24C550.754 74.28 551.154 73.16 551.634 71.88C551.9 70.7067 552.22 69.6133 552.594 68.6C553.02 67.5333 553.474 66.3067 553.954 64.92L551.474 68.36C550.194 69.5867 548.78 70.52 547.234 71.16C545.687 71.8 544.22 72.1733 542.834 72.28C541.5 72.3867 540.434 72.3067 539.634 72.04C539.207 71.9333 538.567 71.56 537.714 70.92C536.86 70.28 536.06 69.56 535.314 68.76C534.567 67.96 534.14 67.32 534.034 66.84C533.66 66.0933 533.714 64.9733 534.194 63.48C534.674 61.9333 535.394 60.2533 536.354 58.44C537.314 56.8933 538.38 55.4 539.554 53.96C540.78 52.4667 541.9 51.24 542.914 50.28C543.34 50.0667 543.794 49.72 544.274 49.24C544.807 48.76 545.26 48.3333 545.634 47.96C546.754 47 548.22 46.3067 550.034 45.88C551.9 45.4 553.794 45.16 555.714 45.16C557.634 45.16 559.314 45.4 560.754 45.88C562.194 46.3067 563.074 46.9467 563.394 47.8C563.394 48.12 563.394 48.44 563.394 48.76C563.447 49.0267 563.447 49.2933 563.394 49.56C563.767 49.56 564.14 49.6133 564.514 49.72C564.94 49.8267 565.18 49.9333 565.234 50.04C565.074 51.64 564.86 52.68 564.594 53.16C564.594 53.32 564.38 54.0133 563.954 55.24C563.58 56.4133 563.127 57.7733 562.594 59.32C562.114 60.8133 561.66 62.1733 561.234 63.4C560.807 64.6267 560.54 65.3733 560.434 65.64C560.114 66.4933 559.767 67.56 559.394 68.84C559.02 70.12 558.62 71.4 558.194 72.68C557.82 73.96 557.42 75.0267 556.994 75.88C556.354 77.96 555.847 79.5867 555.474 80.76C555.154 81.9333 554.834 82.9733 554.514 83.88C554.247 84.7867 553.82 85.88 553.234 87.16C553.5 87.0533 553.767 86.92 554.034 86.76C554.354 86.6 554.7 86.5467 555.074 86.6C555.34 86.6533 555.874 86.52 556.674 86.2C557.527 85.88 558.007 85.7733 558.114 85.88C558.274 85.8267 558.327 86.0933 558.274 86.68C558.274 87.2667 558.194 87.88 558.034 88.52C557.874 89.2133 557.687 89.6667 557.474 89.88C556.834 90.52 555.9 91.2667 554.674 92.12C553.5 92.9733 552.274 93.72 550.994 94.36C549.767 95 548.78 95.32 548.034 95.32ZM542.514 65.96C543.794 65.96 544.754 65.7467 545.394 65.32C546.087 64.8933 546.94 64.28 547.954 63.48C549.607 62.36 550.834 61.4 551.634 60.6C552.434 59.8 553.127 59 553.714 58.2L557.234 53.4C557.5 52.8133 557.847 52.28 558.274 51.8C558.754 51.32 559.154 50.9733 559.474 50.76C559.26 50.76 559.047 50.76 558.834 50.76C558.674 50.7067 558.487 50.68 558.274 50.68C557.154 50.7867 556.247 50.8667 555.554 50.92C554.86 50.9733 554.194 51.1067 553.554 51.32C552.967 51.5333 552.194 51.96 551.234 52.6C549.847 53.56 548.62 54.52 547.554 55.48C546.487 56.3867 545.5 57.4267 544.594 58.6C543.687 59.72 542.94 60.84 542.354 61.96C541.82 63.0267 541.527 63.96 541.474 64.76C541.474 65.56 541.82 65.96 542.514 65.96ZM572.11 74.2C571.097 73.2933 570.217 72.36 569.47 71.4C568.723 70.3867 568.217 68.84 567.95 66.76C567.843 65.8 567.95 64.4667 568.27 62.76C568.59 61.0533 569.07 59.2667 569.71 57.4C570.35 55.48 571.043 53.72 571.79 52.12C572.537 50.52 573.283 49.3467 574.03 48.6C574.67 47.8 575.47 47.16 576.43 46.68C577.443 46.2 578.483 46.2 579.55 46.68C580.137 47.3733 580.43 48.3333 580.43 49.56C580.483 50.7333 580.19 51.8267 579.55 52.84C578.483 54.28 577.55 56.0933 576.75 58.28C576.003 60.4133 575.497 62.3333 575.23 64.04C574.857 65.2667 574.697 66.2267 574.75 66.92C574.803 67.56 575.177 67.96 575.87 68.12C576.883 68.3867 577.923 68.0933 578.99 67.24C580.11 66.3867 581.177 65.1333 582.19 63.48C583.257 61.8267 584.19 59.9333 584.99 57.8C585.31 57.0533 585.55 56.1733 585.71 55.16C585.923 54.1467 586.137 53.4 586.35 52.92C586.617 51.8533 587.07 51.0267 587.71 50.44C588.403 49.8 589.123 49.4 589.87 49.24C590.617 49.08 591.177 49.16 591.55 49.48C592.03 49.6933 592.537 50.04 593.07 50.52C593.603 51 593.817 51.8533 593.71 53.08C593.71 55.0533 593.283 56.7333 592.43 58.12C591.577 59.5067 590.857 60.9733 590.27 62.52C589.79 63.64 589.017 64.9467 587.95 66.44C586.883 67.9333 585.737 69.2933 584.51 70.52C583.337 71.7467 582.243 72.5733 581.23 73C579.737 73.96 578.217 74.5467 576.67 74.76C575.123 74.92 573.603 74.7333 572.11 74.2ZM598.039 75.32C597.826 74.8933 597.346 74.4667 596.599 74.04C595.906 73.6133 595.559 73.2933 595.559 73.08C595.559 72.8667 595.426 72.5467 595.159 72.12C594.946 71.64 594.733 71.2933 594.519 71.08C594.253 70.76 594.333 69.9867 594.759 68.76C595.186 67.48 595.826 65.9333 596.679 64.12C597.533 62.3067 598.466 60.4667 599.479 58.6C599.906 58.1733 600.333 57.6133 600.759 56.92C601.186 56.2267 601.506 55.7733 601.719 55.56C601.719 55.3467 601.799 55.16 601.959 55C602.119 54.7867 602.306 54.68 602.519 54.68L603.159 53.4C603.266 53.1867 603.586 52.76 604.119 52.12C604.706 51.48 605.399 50.7867 606.199 50.04C606.999 49.24 607.799 48.4933 608.599 47.8C609.453 47.1067 610.146 46.6 610.679 46.28C611.799 45.5333 612.946 45.1867 614.119 45.24C615.346 45.2933 616.386 45.6667 617.239 46.36C617.399 46.52 617.746 46.84 618.279 47.32C618.866 47.8 619.506 48.3333 620.199 48.92C620.946 49.5067 621.586 50.04 622.119 50.52L625.079 53.16L623.719 57.16C623.026 59.2933 622.839 61.16 623.159 62.76C623.479 64.36 623.986 65.7467 624.679 66.92C624.946 67.5067 625.293 67.96 625.719 68.28C626.199 68.6 626.813 68.8133 627.559 68.92C627.986 68.9733 628.386 69.1333 628.759 69.4C629.133 69.6667 629.319 70.0933 629.319 70.68C629.319 71.96 629.079 72.8933 628.599 73.48C628.173 74.0133 627.693 74.3333 627.159 74.44C625.399 74.6533 623.719 74.4667 622.119 73.88C620.519 73.2933 619.079 71.7733 617.799 69.32C617.586 69 617.293 68.4133 616.919 67.56C616.599 66.6533 616.413 66.0667 616.359 65.8C616.146 66.0667 615.853 66.4133 615.479 66.84C615.159 67.2133 614.839 67.56 614.519 67.88C610.733 71.72 607.479 74.2267 604.759 75.4C602.093 76.52 599.853 76.4933 598.039 75.32ZM602.439 68.68C602.813 68.7333 603.399 68.5467 604.199 68.12C604.999 67.64 606.066 66.8667 607.399 65.8C609.213 64.2533 610.706 62.9733 611.879 61.96C613.053 60.9467 614.199 59.64 615.319 58.04L617.079 55.16C616.546 53.9333 616.066 53.1333 615.639 52.76C615.213 52.3867 614.786 52.2 614.359 52.2C613.666 52.2 612.839 52.6533 611.879 53.56C610.919 54.4133 609.826 55.6933 608.599 57.4C607.426 59.0533 606.093 61.1333 604.599 63.64C603.906 64.8133 603.373 65.96 602.999 67.08C602.626 68.1467 602.439 68.68 602.439 68.68ZM635.182 77.88C634.169 78.1467 633.262 77.8533 632.462 77C631.662 76.2 631.102 75 630.782 73.4C630.462 71.8 630.516 70.0133 630.942 68.04C631.209 67.4 631.422 66.7867 631.582 66.2C631.742 65.56 631.822 65.0533 631.822 64.68C631.929 64.1467 632.142 63.3733 632.462 62.36C632.782 61.2933 633.129 60.2 633.502 59.08C633.876 57.96 634.222 56.9733 634.542 56.12C634.916 55.2133 635.156 54.6533 635.262 54.44C635.476 54.44 635.662 54.2533 635.822 53.88C635.982 53.5067 636.062 53.1333 636.062 52.76C636.062 52.3333 636.142 51.8533 636.302 51.32C636.516 50.7867 636.729 50.4133 636.942 50.2C636.942 49.9333 636.996 49.64 637.102 49.32C637.262 48.9467 637.342 48.6533 637.342 48.44C637.342 48.2267 637.396 48.0133 637.502 47.8C637.662 47.5867 637.742 47.3733 637.742 47.16C638.116 46.4667 638.596 45.3733 639.182 43.88C639.822 42.3333 640.489 40.6267 641.182 38.76C641.929 36.8933 642.622 35.0533 643.262 33.24C643.902 31.4267 644.409 29.9067 644.782 28.68C645.209 27.4 645.422 26.6267 645.422 26.36C645.422 25.9333 645.582 25.5333 645.902 25.16C646.222 24.7867 646.596 24.6 647.022 24.6C647.182 24.44 647.556 24.3333 648.142 24.28C648.729 24.1733 649.129 24.12 649.342 24.12C649.342 24.12 649.449 24.2267 649.662 24.44C649.876 24.6533 650.196 24.9733 650.622 25.4C651.049 25.7733 651.449 26.2 651.822 26.68C652.249 27.16 652.462 27.72 652.462 28.36C652.462 29.0533 652.356 29.72 652.142 30.36C651.982 31 651.662 31.88 651.182 33C650.702 34.0667 649.956 35.6667 648.942 37.8C648.516 38.8667 648.062 39.88 647.582 40.84C647.102 41.7467 646.862 42.3067 646.862 42.52C646.862 42.7333 646.756 43.0533 646.542 43.48C646.382 43.9067 646.196 44.44 645.982 45.08C645.769 45.5067 645.476 46.1467 645.102 47C644.729 47.8 644.329 48.68 643.902 49.64C643.529 50.5467 643.209 51.3467 642.942 52.04C642.676 52.68 642.542 53.0533 642.542 53.16C642.542 53.3733 642.516 53.5867 642.462 53.8C642.462 54.0133 642.356 54.2267 642.142 54.44C641.929 54.44 641.796 54.6 641.742 54.92C641.742 55.1867 641.742 55.32 641.742 55.32C641.742 55.8533 641.316 57.2667 640.462 59.56C639.609 62.4933 638.809 65.1867 638.062 67.64C637.369 70.0933 637.022 72.0667 637.022 73.56C637.022 74.84 636.809 75.8267 636.382 76.52C636.009 77.2133 635.609 77.6667 635.182 77.88ZM651.721 76.92C650.441 76.92 649.321 76.2533 648.361 74.92C647.454 73.5333 646.894 71.88 646.681 69.96C646.734 69.5333 646.788 68.92 646.841 68.12C646.948 67.32 647.054 66.4933 647.161 65.64C647.374 64.6267 647.668 63.32 648.041 61.72C648.414 60.12 648.814 58.52 649.241 56.92C649.668 55.2667 650.041 53.8533 650.361 52.68C650.681 51.4533 650.868 50.7333 650.921 50.52C651.241 49.7733 651.961 49.5867 653.081 49.96C654.201 50.3333 655.161 51.1333 655.961 52.36C656.281 52.7867 656.468 53.2933 656.521 53.88C656.628 54.4667 656.548 55.32 656.281 56.44C656.068 57.56 655.641 59.2133 655.001 61.4C654.414 63.5333 653.961 65.2667 653.641 66.6C653.374 67.88 653.268 69.24 653.321 70.68C653.108 73.1333 652.894 74.8133 652.681 75.72C652.468 76.5733 652.148 76.9733 651.721 76.92ZM659.081 43.72C658.868 43.88 658.654 43.96 658.441 43.96C658.281 43.9067 657.988 43.7467 657.561 43.48C657.188 43.4267 656.708 43.1867 656.121 42.76C655.588 42.28 655.108 41.8 654.681 41.32C654.308 40.84 654.121 40.5467 654.121 40.44C654.068 39.9067 654.094 39.0533 654.201 37.88C654.361 36.7067 654.654 35.6133 655.081 34.6C655.561 33.5333 656.201 32.9733 657.001 32.92C657.214 32.92 657.668 33.0267 658.361 33.24C659.108 33.4533 659.881 33.72 660.681 34.04C661.108 34.84 661.508 35.88 661.881 37.16C662.254 38.44 662.281 39.6933 661.961 40.92C661.694 42.0933 660.734 43.0267 659.081 43.72ZM672.144 77.48C671.398 77.2667 670.651 76.8933 669.904 76.36C669.158 75.8267 668.384 75.2133 667.584 74.52C666.944 73.6667 666.491 72.8933 666.224 72.2C665.958 71.4533 665.798 70.6 665.744 69.64C665.744 68.6267 665.744 67.3467 665.744 65.8C665.744 65.16 665.851 64.2533 666.064 63.08C666.331 61.9067 666.598 60.68 666.864 59.4C667.184 58.12 667.478 57 667.744 56.04C668.011 55.0267 668.171 54.36 668.224 54.04C668.384 53.3467 668.118 52.9467 667.424 52.84C666.731 52.7333 665.958 52.7067 665.104 52.76C664.304 52.76 663.771 52.68 663.504 52.52C663.291 52.4667 663.184 52.2 663.184 51.72C663.184 51.1867 663.184 50.92 663.184 50.92C663.184 50.7067 663.078 50.5733 662.864 50.52C662.651 50.4133 662.464 50.2267 662.304 49.96C662.198 49.7467 662.331 49.3467 662.704 48.76C663.078 48.1733 663.558 47.8267 664.144 47.72C664.624 47.6133 665.344 47.5333 666.304 47.48C667.264 47.3733 668.224 47.1867 669.184 46.92C670.198 46.6 670.971 46.12 671.504 45.48C671.984 44.3067 672.518 43.0533 673.104 41.72C673.691 40.3333 674.251 39.1333 674.784 38.12C675.318 37.0533 675.691 36.3867 675.904 36.12C676.811 35.64 677.744 35.4533 678.704 35.56C679.664 35.6133 680.411 36.0667 680.944 36.92C681.211 37.2933 681.424 37.56 681.584 37.72C681.798 37.88 681.878 38.12 681.824 38.44C681.824 38.76 681.611 39.3467 681.184 40.2C680.811 41 680.171 42.2533 679.264 43.96C678.998 44.4933 678.758 44.9733 678.544 45.4C678.331 45.7733 678.224 45.96 678.224 45.96C678.438 46.0133 678.758 46.04 679.184 46.04C679.611 46.04 680.144 46.0133 680.784 45.96C681.371 45.8533 682.011 45.7733 682.704 45.72C683.398 45.6133 684.011 45.6133 684.544 45.72C685.771 45.72 686.678 46.0667 687.264 46.76C687.851 47.4533 688.171 48.3333 688.224 49.4C688.331 49.9867 688.118 50.4933 687.584 50.92C687.051 51.3467 686.064 51.56 684.624 51.56C684.144 51.56 683.451 51.5867 682.544 51.64C681.638 51.6933 680.704 51.7467 679.744 51.8C678.784 51.8533 677.958 51.9333 677.264 52.04C676.624 52.0933 676.304 52.1733 676.304 52.28C676.144 52.3867 675.878 52.8133 675.504 53.56C675.184 54.2533 674.838 55.1067 674.464 56.12C674.144 57.1333 673.851 58.0933 673.584 59C673.211 60.8133 672.944 62.5733 672.784 64.28C672.624 65.9867 672.598 67.48 672.704 68.76C672.864 69.9867 673.184 70.8667 673.664 71.4C674.144 71.88 674.864 71.88 675.824 71.4C676.838 70.8667 677.771 70.2533 678.624 69.56C679.584 68.76 680.411 68.52 681.104 68.84C681.798 69.1067 682.224 69.6933 682.384 70.6C682.598 71.4533 682.358 72.3867 681.664 73.4C681.024 74.4133 680.118 75.2667 678.944 75.96C677.771 76.6533 676.571 77.1333 675.344 77.4C674.118 77.72 673.051 77.7467 672.144 77.48ZM692.709 96.04C692.495 96.0933 692.175 96.0133 691.749 95.8C691.375 95.5867 691.055 95.2133 690.789 94.68C690.522 94.1467 690.442 93.4533 690.549 92.6C690.335 91.8533 690.362 90.92 690.629 89.8C690.949 88.7333 691.615 87.1333 692.629 85C693.162 84.1467 693.642 83.1333 694.069 81.96C694.549 80.7867 695.082 79.6133 695.669 78.44C695.935 77.96 696.389 77.1333 697.029 75.96C697.722 74.7867 698.469 73.4 699.269 71.8C700.122 70.1467 700.895 68.44 701.589 66.68C700.202 68.12 699.002 69.48 697.989 70.76C697.029 71.9867 696.149 72.9733 695.349 73.72C694.602 74.4133 693.802 74.7333 692.949 74.68C692.255 74.52 691.429 74.0667 690.469 73.32C689.509 72.5733 688.895 71.7467 688.629 70.84C688.415 69.6667 688.335 68.1733 688.389 66.36C688.495 64.5467 688.842 61.8 689.429 58.12C689.855 56.3067 690.042 54.92 689.989 53.96C689.989 52.9467 689.855 52.2 689.589 51.72C689.322 51.24 688.975 50.8133 688.549 50.44C687.855 49.8 687.802 49.1067 688.389 48.36C688.975 47.6133 689.642 47.0533 690.389 46.68C691.509 46.4133 692.389 46.36 693.029 46.52C693.722 46.6267 694.415 47.08 695.109 47.88C695.535 48.5733 695.962 49.32 696.389 50.12C696.815 50.92 697.029 52.0667 697.029 53.56C697.029 54.2 697.002 54.92 696.949 55.72C696.895 56.4667 696.842 57.16 696.789 57.8C696.735 58.44 696.682 58.9467 696.629 59.32C696.095 61.2933 695.615 63 695.189 64.44C694.762 65.88 694.682 66.6 694.949 66.6C696.015 65.7467 696.922 64.92 697.669 64.12C698.469 63.32 699.322 62.36 700.229 61.24C701.135 60.12 702.255 58.6533 703.589 56.84C704.069 55.9333 704.549 55.0533 705.029 54.2C705.509 53.3467 705.909 52.4667 706.229 51.56C706.549 50.8667 706.975 50.1467 707.509 49.4C708.042 48.6 708.415 48.1733 708.629 48.12C708.895 48.0133 709.269 48.04 709.749 48.2C710.229 48.36 710.682 48.5467 711.109 48.76C711.589 48.92 711.829 49.0533 711.829 49.16C711.882 49.2133 712.149 49.2667 712.629 49.32C713.109 49.3733 713.589 49.4267 714.069 49.48C714.549 49.48 714.789 49.56 714.789 49.72C714.789 49.8267 714.629 50.2267 714.309 50.92C714.042 51.6133 713.722 52.3867 713.349 53.24C712.975 54.0933 712.629 54.8667 712.309 55.56C712.042 56.2 711.935 56.5733 711.989 56.68C712.095 56.7867 712.015 57.1867 711.749 57.88C711.482 58.52 711.162 59.24 710.789 60.04C710.469 60.84 710.175 61.56 709.909 62.2C709.375 63.96 708.762 65.72 708.069 67.48C707.375 69.1867 706.549 70.8933 705.589 72.6C705.269 73.24 704.789 74.2267 704.149 75.56C703.562 76.8933 702.975 78.2 702.389 79.48C701.855 80.8133 701.429 81.8267 701.109 82.52C700.895 82.9467 700.575 83.6133 700.149 84.52C699.775 85.48 699.349 86.52 698.869 87.64C698.442 88.76 698.015 89.8 697.589 90.76C697.162 91.7733 696.842 92.5467 696.629 93.08C696.522 94.0933 696.282 94.84 695.909 95.32C695.429 95.8 694.762 96.04 693.909 96.04C693.109 96.04 692.709 96.04 692.709 96.04ZM742.709 77.72C742.016 77.7733 741.456 77.6933 741.029 77.48C740.603 77.32 740.069 77.0533 739.429 76.68C738.256 75.7733 737.269 74.6533 736.469 73.32C735.723 71.9867 735.376 70.8667 735.429 69.96C735.536 69.48 735.536 69.0533 735.429 68.68C735.376 68.3067 735.349 68.12 735.349 68.12C735.029 67.8533 734.923 67.6933 735.029 67.64C735.136 67.5333 735.216 67.3733 735.269 67.16C735.696 67.0533 735.749 66.76 735.429 66.28C735.269 65.8533 735.349 64.8933 735.669 63.4C736.043 61.8533 736.523 60.4133 737.109 59.08C737.376 58.4933 737.749 57.72 738.229 56.76C738.763 55.8 739.349 54.84 739.989 53.88C740.629 52.8667 741.216 52.0667 741.749 51.48C742.923 50.1467 743.963 49.0533 744.869 48.2C745.829 47.3467 746.896 46.7067 748.069 46.28C749.136 45.8533 750.203 45.6667 751.269 45.72C752.389 45.7733 753.376 46.1467 754.229 46.84C755.509 47.2133 756.656 47.8 757.669 48.6C758.683 49.3467 759.376 50.4133 759.749 51.8C760.176 53.3467 760.309 55.1867 760.149 57.32C760.043 59.4 759.136 62.0933 757.429 65.4C756.416 67.48 755.403 69.16 754.389 70.44C753.429 71.72 752.256 72.9467 750.869 74.12C749.856 74.9733 748.549 75.72 746.949 76.36C745.349 77 743.936 77.4533 742.709 77.72ZM749.669 65.64C750.363 64.68 750.896 63.7467 751.269 62.84C751.696 61.9333 752.096 60.68 752.469 59.08C752.629 58.4933 752.709 57.7733 752.709 56.92C752.763 56.0667 752.736 55.2933 752.629 54.6C752.576 53.8533 752.389 53.4533 752.069 53.4C751.376 53.1333 750.656 53.1333 749.909 53.4C749.216 53.6133 748.389 54.2533 747.429 55.32C746.576 56.28 745.883 57.1867 745.349 58.04C744.869 58.84 744.416 59.8267 743.989 61C743.616 62.12 743.189 63.5867 742.709 65.4C742.283 67.16 742.256 68.5733 742.629 69.64C743.056 70.7067 743.856 71 745.029 70.52C746.203 70.04 747.749 68.4133 749.669 65.64ZM767.534 86.68C767.214 86.8933 766.494 86.6267 765.374 85.88C764.254 85.1867 763.32 84.4133 762.574 83.56C762.2 83.1333 761.96 82.68 761.854 82.2C761.747 81.72 761.774 80.8133 761.934 79.48C762.147 78.8933 762.254 78.3333 762.254 77.8C762.307 77.2667 762.334 76.8933 762.334 76.68C762.334 76.36 762.414 75.6133 762.574 74.44C762.787 73.2667 763 72.04 763.214 70.76C763.427 69.4267 763.614 68.4133 763.774 67.72C763.774 67.6667 763.8 67.48 763.854 67.16C763.96 66.84 764.04 66.6 764.094 66.44C764.2 65.96 764.334 65.3733 764.494 64.68C764.654 63.9867 764.814 63.0533 764.974 61.88C765.4 60.5467 765.747 59.24 766.014 57.96C766.334 56.6267 766.494 55.72 766.494 55.24C766.494 54.28 766.867 53.5867 767.614 53.16C767.667 52.8933 767.827 52.4933 768.094 51.96C768.36 51.3733 768.6 50.8933 768.814 50.52C769.88 47.48 770.76 45.0533 771.454 43.24C772.147 41.4267 772.867 39.8533 773.614 38.52C773.934 37.6133 774.28 36.68 774.654 35.72C775.08 34.76 775.507 34.0133 775.934 33.48C776.307 32.7333 776.947 31.8267 777.854 30.76C778.814 29.64 779.827 28.5733 780.894 27.56C781.96 26.5467 782.814 25.8 783.454 25.32C784.627 24.7333 785.72 24.2533 786.734 23.88C787.747 23.5067 788.814 23.32 789.934 23.32C790.947 23.32 791.827 23.56 792.574 24.04C793.374 24.4667 794.547 25.3733 796.094 26.76C796.627 27.4533 796.894 28.12 796.894 28.76C796.894 29.4 796.76 29.9333 796.494 30.36C796.12 31.2133 795.56 32.28 794.814 33.56C794.067 34.7867 793.347 35.9067 792.654 36.92C791.96 37.88 791.454 38.3867 791.134 38.44C790.494 38.8133 789.827 38.92 789.134 38.76C788.44 38.6 788.094 38.12 788.094 37.32C788.094 36.9467 788.094 36.6 788.094 36.28C788.147 35.96 788.174 35.8 788.174 35.8C788.334 35.1067 788.52 34.4933 788.734 33.96C789 33.4267 789.24 32.9733 789.454 32.6C789.88 31.9067 789.987 31.24 789.774 30.6C789.614 29.96 788.947 29.6933 787.774 29.8C787.614 29.9067 787.294 30.1733 786.814 30.6C786.387 30.9733 785.907 31.4267 785.374 31.96C784.894 32.44 784.467 32.92 784.094 33.4C783.72 33.8267 783.534 34.12 783.534 34.28C783.534 34.28 783.374 34.5733 783.054 35.16C782.787 35.6933 782.36 36.3067 781.774 37C781.4 37.5333 781.08 38.04 780.814 38.52C780.547 39 780.414 39.3733 780.414 39.64C780.414 39.8533 780.387 40.04 780.334 40.2C780.28 40.36 780.147 40.44 779.934 40.44C779.934 40.44 779.827 40.7067 779.614 41.24C779.454 41.7733 779.16 42.4133 778.734 43.16C778.52 43.6933 778.28 44.2 778.014 44.68C777.8 45.1067 777.587 45.4267 777.374 45.64L777.294 45.8C777.294 45.8 777.16 46.12 776.894 46.76C776.68 47.3467 776.44 47.96 776.174 48.6C775.907 49.24 775.774 49.6133 775.774 49.72C775.774 49.9333 776.094 50.04 776.734 50.04C777.374 50.04 778.147 49.96 779.054 49.8C779.96 49.5867 780.84 49.3733 781.694 49.16C782.44 48.9467 782.974 48.84 783.294 48.84C783.614 48.84 784.12 48.9467 784.814 49.16C785.24 49.4267 785.587 49.9067 785.854 50.6C786.12 51.24 786.307 51.9067 786.414 52.6C786.574 53.24 786.6 53.72 786.494 54.04C786.44 54.2533 785.827 54.5467 784.654 54.92C783.534 55.2933 782.414 55.5867 781.294 55.8C780.334 56.0133 779.24 56.2533 778.014 56.52C776.84 56.7333 775.8 56.9733 774.894 57.24C773.987 57.4533 773.507 57.6667 773.454 57.88C773.24 57.88 773.054 58.0133 772.894 58.28C772.787 58.5467 772.734 58.7867 772.734 59C772.734 59.6933 772.6 60.2533 772.334 60.68C772.227 61 772.04 61.6667 771.774 62.68C771.56 63.64 771.32 64.7067 771.054 65.88C770.84 67 770.627 68.0667 770.414 69.08C770.254 70.04 770.174 70.68 770.174 71C769.854 71.3733 769.667 71.8533 769.614 72.44C769.56 72.9733 769.534 73.4533 769.534 73.88C769.32 74.3067 769.187 74.7067 769.134 75.08C769.08 75.4 769.054 75.6667 769.054 75.88C769.054 75.9333 769.054 76.04 769.054 76.2C769.054 76.36 769.027 76.52 768.974 76.68C768.92 77.2133 768.84 77.9067 768.734 78.76C768.68 79.6667 768.654 80.5467 768.654 81.4L768.414 83.72C768.36 84.4133 768.254 85 768.094 85.48C767.987 86.0133 767.8 86.4133 767.534 86.68Z" fill="#111827"/>
<g clip-path="url(#clip2_141_5824)">
<g clip-path="url(#clip3_141_5824)">
<path d="M854.301 91.038C855.688 90.9393 882.545 88.9487 897.188 88.3331C903.38 88.064 909.583 88.0834 915.721 88.1053C916.626 88.1324 918.133 88.717 918.28 89.2326C918.503 90.0346 917.963 91.2103 917.274 91.8123C915.394 93.4383 912.892 93.9287 910.311 94.0171C900.828 94.3985 891.348 94.8379 881.862 95.1618C857.729 95.9858 833.528 96.6962 809.394 97.4621C804.748 97.6208 800.034 97.666 795.385 97.7667C793.062 97.846 791.098 97.1033 789.75 95.5289C789.211 94.9108 789.168 93.6977 789.463 92.935C789.703 92.4059 790.914 91.9601 791.689 91.9336C812.208 91.2335 851.71 89.9262 852.715 89.8462C854.178 89.7301 852.912 91.1354 854.3 91.0373L854.301 91.038Z" fill="#00CEB3"/>
</g>
</g>
<path d="M803.025 74.6C802.225 74.6 801.425 74.0133 800.625 72.84C799.825 71.6133 799.185 70.12 798.705 68.36C798.278 66.6 798.118 64.8667 798.225 63.16C798.225 61.4533 798.305 60.0933 798.465 59.08C798.678 58.0133 798.892 56.9733 799.105 55.96C799.265 55.64 799.345 55.3733 799.345 55.16C799.398 54.9467 799.452 54.6 799.505 54.12C799.612 53.64 799.798 52.84 800.065 51.72C800.278 50.8133 800.492 50.0667 800.705 49.48C800.972 48.8933 801.185 48.4933 801.345 48.28C801.985 47.4267 802.705 46.92 803.505 46.76C804.305 46.5467 805.025 46.6267 805.665 47C806.358 47.3733 806.758 47.9333 806.865 48.68C807.185 48.9467 807.345 49.56 807.345 50.52C807.398 51.4267 807.345 52.3867 807.185 53.4C807.025 54.36 806.785 55.0533 806.465 55.48C806.358 55.7467 806.225 56.44 806.065 57.56C805.958 58.68 805.825 59.8533 805.665 61.08C805.558 62.3067 805.425 63.2933 805.265 64.04C805.105 65 805.158 65.6133 805.425 65.88C805.745 66.0933 806.278 65.8533 807.025 65.16C807.825 64.4133 808.865 63.1067 810.145 61.24C811.212 59.64 811.985 58.3867 812.465 57.48C812.998 56.5733 813.398 55.7467 813.665 55C813.985 54.2533 814.332 53.3733 814.705 52.36C814.972 51.5067 815.212 50.8133 815.425 50.28C815.692 49.7467 815.932 49.3733 816.145 49.16C816.732 48.3067 817.505 47.96 818.465 48.12C819.478 48.2267 820.305 48.4933 820.945 48.92C821.585 49.56 821.958 50.44 822.065 51.56C822.225 52.6267 821.985 53.8 821.345 55.08C820.918 55.9333 820.492 56.9467 820.065 58.12C819.692 59.2933 819.372 60.4667 819.105 61.64C818.892 62.8133 818.785 63.8267 818.785 64.68C818.785 65.7467 818.918 66.3867 819.185 66.6C819.505 66.76 819.878 66.84 820.305 66.84C820.945 66.84 821.558 66.6267 822.145 66.2C822.732 65.72 823.585 64.8933 824.705 63.72C825.185 63.24 825.772 62.52 826.465 61.56C827.158 60.6 827.825 59.5867 828.465 58.52C829.158 57.4533 829.718 56.52 830.145 55.72C830.625 54.8667 830.865 54.3333 830.865 54.12C830.865 53.8 831.105 53.3467 831.585 52.76C831.905 52.3333 832.145 52.0133 832.305 51.8C832.518 51.5333 832.892 51.2667 833.425 51C833.852 50.7867 834.332 50.76 834.865 50.92C835.398 51.0267 835.852 51.2933 836.225 51.72C836.492 51.9333 836.678 52.4667 836.785 53.32C836.945 54.12 837.025 54.84 837.025 55.48C836.865 56.0667 836.625 56.8933 836.305 57.96C835.985 58.9733 835.638 59.96 835.265 60.92C834.945 61.8267 834.652 62.44 834.385 62.76C834.172 62.9733 833.798 63.3733 833.265 63.96C832.732 64.4933 832.252 65.08 831.825 65.72C830.492 67.32 829.532 68.36 828.945 68.84C828.358 69.32 827.852 69.7733 827.425 70.2C826.305 71.32 825.025 72.2267 823.585 72.92C822.145 73.56 820.785 73.9333 819.505 74.04C818.225 74.0933 817.212 73.8533 816.465 73.32C814.812 72.4667 813.985 71.0267 813.985 69C813.985 68.5733 813.905 68.2 813.745 67.88C813.638 67.5067 813.585 67.32 813.585 67.32C813.372 67.32 813.078 67.3733 812.705 67.48C812.385 67.5867 812.038 67.96 811.665 68.6C811.185 69.5067 810.358 70.44 809.185 71.4C808.065 72.3067 806.918 73.08 805.745 73.72C804.572 74.3067 803.665 74.6 803.025 74.6ZM844.193 76.44C843.5 76.44 842.94 76.3067 842.513 76.04C842.14 75.7733 841.66 75.4 841.073 74.92C840.06 73.8533 839.233 72.7067 838.593 71.48C838.006 70.2533 837.793 69.1867 837.953 68.28C838.113 67.8533 838.166 67.4533 838.113 67.08C838.113 66.6533 838.113 66.44 838.113 66.44C837.846 66.1733 837.766 66.0133 837.873 65.96C837.98 65.8533 838.086 65.6933 838.193 65.48C838.513 65.48 838.62 65.1867 838.513 64.6C838.406 64.1733 838.566 63.2667 838.993 61.88C839.473 60.44 840.113 59.08 840.913 57.8C841.233 57.2667 841.713 56.5733 842.353 55.72C842.993 54.8133 843.686 53.9333 844.433 53.08C845.233 52.1733 845.953 51.4533 846.593 50.92C847.926 49.8 849.153 48.8933 850.273 48.2C851.446 47.5067 852.62 47.0267 853.793 46.76C854.966 46.4933 856.166 46.36 857.393 46.36C858.673 46.36 859.713 46.7867 860.513 47.64C861.74 48.1733 862.593 48.8933 863.073 49.8C863.606 50.7067 863.953 51.88 864.113 53.32C864.273 54.92 864.113 56.8933 863.633 59.24C863.153 61.5333 861.846 64.2 859.713 67.24C858.38 69.16 857.073 70.6533 855.793 71.72C854.513 72.7867 853.1 73.7733 851.553 74.68C850.433 75.4267 849.233 75.88 847.953 76.04C846.673 76.2 845.42 76.3333 844.193 76.44ZM852.353 66.68C853.526 65.6667 854.353 64.5467 854.833 63.32C855.366 62.0933 855.926 60.6533 856.513 59C856.726 58.68 856.86 58.1467 856.913 57.4C857.02 56.6533 857.046 55.9333 856.993 55.24C856.94 54.4933 856.753 54.0667 856.433 53.96C855.953 53.5867 855.473 53.5067 854.993 53.72C854.513 53.88 853.9 54.2267 853.153 54.76C851.553 56.0933 850.06 57.64 848.673 59.4C847.34 61.1067 846.406 63.2133 845.873 65.72C845.713 67.0533 845.846 68.0667 846.273 68.76C846.753 69.4 847.5 69.5867 848.513 69.32C849.58 69 850.86 68.12 852.353 66.68ZM874.138 75.32C873.978 75.3733 873.631 75.3467 873.098 75.24C872.618 75.1333 872.111 75 871.578 74.84C871.098 74.68 870.804 74.5467 870.698 74.44C870.484 74.2267 870.191 73.8533 869.818 73.32C869.444 72.7333 869.231 71.96 869.178 71C869.178 70.04 869.631 68.8933 870.538 67.56C870.804 67.0267 871.124 66.2267 871.498 65.16C871.871 64.0933 872.244 62.9733 872.618 61.8C873.044 60.5733 873.418 59.48 873.738 58.52C874.111 57.56 874.378 56.8933 874.538 56.52C874.644 55.6133 874.591 54.9733 874.378 54.6C874.218 54.1733 873.764 53.9333 873.018 53.88C872.484 53.88 872.058 53.6933 871.738 53.32C871.471 52.9467 871.338 52.28 871.338 51.32C871.444 50.5733 871.631 49.9333 871.898 49.4C872.218 48.8133 872.644 48.3333 873.178 47.96C873.711 47.6933 874.378 47.5067 875.178 47.4C876.031 47.2933 876.858 47.2667 877.658 47.32C878.458 47.3733 879.018 47.56 879.338 47.88C879.711 48.0933 880.004 48.5733 880.218 49.32C880.484 50.0133 880.698 50.7333 880.858 51.48C881.018 52.2267 881.124 52.7867 881.178 53.16C881.711 52.7333 882.298 52.1467 882.938 51.4C883.631 50.6 884.324 49.8533 885.018 49.16C885.871 48.5733 886.884 47.9867 888.058 47.4C889.231 46.76 890.084 46.44 890.618 46.44C891.204 46.44 891.924 46.7333 892.778 47.32C893.631 47.8533 894.164 48.3333 894.378 48.76C894.911 49.6667 895.284 50.6267 895.498 51.64C895.764 52.6 895.604 53.4533 895.018 54.2C894.484 54.8933 893.738 55.5867 892.778 56.28C891.818 56.92 890.618 57.1067 889.178 56.84C888.858 56.7333 888.511 56.3333 888.138 55.64C887.818 54.9467 887.631 54.44 887.578 54.12C887.578 53.96 887.338 54.12 886.858 54.6C886.431 55.0267 885.898 55.56 885.258 56.2C884.671 56.84 884.111 57.4267 883.578 57.96C882.671 59.08 881.711 60.6 880.698 62.52C879.684 64.44 878.484 66.76 877.098 69.48C876.458 70.8133 875.924 72.0933 875.498 73.32C875.071 74.4933 874.618 75.16 874.138 75.32ZM912.966 77.64C912.752 77.4267 912.432 77.16 912.006 76.84C911.579 76.4667 911.259 76.0933 911.046 75.72C910.939 75.56 910.672 75.2667 910.246 74.84C909.819 74.36 909.392 73.9067 908.966 73.48C908.539 73 908.246 72.7067 908.086 72.6C907.979 72.3333 907.792 72.04 907.526 71.72C907.259 71.3467 906.966 70.9733 906.646 70.6C906.326 70.1733 905.952 69.7733 905.526 69.4C904.939 68.6 904.459 67.9867 904.086 67.56C903.766 67.1333 903.499 66.92 903.286 66.92C903.286 66.92 903.126 67.4267 902.806 68.44C902.486 69.4 902.139 70.52 901.766 71.8C901.392 73.0267 901.072 74.04 900.806 74.84C900.592 75.2133 900.379 75.5067 900.166 75.72C899.952 75.9333 899.739 76.0933 899.526 76.2C899.366 76.3067 899.179 76.3867 898.966 76.44C898.752 76.44 898.539 76.44 898.326 76.44C897.739 76.44 896.992 76.1733 896.086 75.64C895.179 75.1067 894.726 74.3333 894.726 73.32C894.512 72.5733 894.779 70.9467 895.526 68.44C896.272 65.9333 897.419 62.7333 898.966 58.84C899.179 58.04 899.446 57.2133 899.766 56.36C900.086 55.4533 900.352 54.7067 900.566 54.12C901.366 51.5067 902.246 49.1067 903.206 46.92C904.166 44.68 905.232 42.2 906.406 39.48C906.886 38.52 907.232 37.8267 907.446 37.4C907.659 36.92 907.899 36.44 908.166 35.96C908.432 35.4267 908.832 34.6533 909.366 33.64C910.539 31.4533 911.472 29.7467 912.166 28.52C912.859 27.2933 913.392 26.3867 913.766 25.8C914.139 25.2133 914.459 24.7867 914.726 24.52C914.992 24.2533 915.419 24.0667 916.006 23.96C916.592 23.8533 917.179 23.8533 917.766 23.96C918.406 24.0133 918.859 24.2 919.126 24.52C919.552 24.9467 919.872 25.3733 920.086 25.8C920.299 26.1733 920.299 26.7067 920.086 27.4C919.926 28.04 919.446 29.0267 918.646 30.36C918.219 31.32 917.872 32.0133 917.606 32.44C917.339 32.8667 917.072 33.2933 916.806 33.72C916.539 34.1467 916.112 34.8933 915.526 35.96C915.472 36.1733 915.366 36.4133 915.206 36.68C915.099 36.8933 914.966 37.1067 914.806 37.32C914.646 37.48 914.486 37.56 914.326 37.56C914.326 37.72 914.246 38.04 914.086 38.52C913.926 39 913.739 39.4533 913.526 39.88C913.366 40.4667 913.099 41.1067 912.726 41.8C912.406 42.44 912.166 42.9733 912.006 43.4C911.579 44.4133 910.992 45.64 910.246 47.08C909.552 48.4667 909.126 49.5867 908.966 50.44C908.966 50.5467 909.046 50.5733 909.206 50.52C909.366 50.4133 909.552 50.28 909.766 50.12C910.032 49.9067 910.272 49.7467 910.486 49.64C911.712 48.68 913.019 47.7733 914.406 46.92C915.846 46.0667 917.046 45.56 918.006 45.4C918.539 45.24 919.019 45.16 919.446 45.16C919.872 45.1067 920.272 45.1067 920.646 45.16C921.019 45.2133 921.392 45.32 921.766 45.48C922.352 45.8533 922.886 46.5467 923.366 47.56C923.846 48.5733 924.192 49.5867 924.406 50.6C924.406 51.08 924.166 51.96 923.686 53.24C923.259 54.4667 922.726 55.6933 922.086 56.92C921.499 58.0933 920.939 58.8933 920.406 59.32C920.139 59.4267 919.899 59.5333 919.686 59.64C919.526 59.7467 919.392 59.8533 919.286 59.96C919.232 60.0133 919.206 60.04 919.206 60.04C919.206 60.2533 919.099 60.52 918.886 60.84C918.726 61.16 918.432 61.4267 918.006 61.64C917.792 61.8533 917.552 62.12 917.286 62.44C917.019 62.76 916.886 63 916.886 63.16C916.886 63.16 916.886 63.24 916.886 63.4C916.886 63.5067 916.886 63.56 916.886 63.56C916.672 63.56 916.486 63.5867 916.326 63.64C916.219 63.64 915.872 63.8533 915.286 64.28C914.699 64.8667 914.272 65.1867 914.006 65.24C913.792 65.2933 913.472 65.4 913.046 65.56C912.832 65.7733 912.566 65.9067 912.246 65.96C911.979 66.0133 911.846 66.1467 911.846 66.36C911.846 66.5733 912.059 66.9733 912.486 67.56C912.912 68.1467 913.419 68.7867 914.006 69.48C914.646 70.1733 915.259 70.8133 915.846 71.4C916.432 71.9867 916.886 72.3867 917.206 72.6C917.579 72.76 917.846 73.0533 918.006 73.48C918.166 73.9067 918.246 74.36 918.246 74.84C918.299 75.32 918.272 75.7733 918.166 76.2C918.112 76.6267 918.032 76.9467 917.926 77.16C917.819 77.2667 917.446 77.4 916.806 77.56C916.219 77.7733 915.552 77.9067 914.806 77.96C914.112 78.0133 913.499 77.9067 912.966 77.64ZM908.326 62.36C908.592 62.1467 909.072 61.7467 909.766 61.16C910.512 60.5733 911.312 59.9333 912.166 59.24C913.019 58.4933 913.792 57.7733 914.486 57.08C915.232 56.3867 915.766 55.8533 916.086 55.48C916.459 55.1067 916.859 54.4933 917.286 53.64C917.712 52.7867 917.792 52.0933 917.526 51.56C917.472 51.3467 917.072 51.48 916.326 51.96C915.579 52.44 914.619 52.9733 913.446 53.56C912.539 54.0933 911.526 54.7067 910.406 55.4C909.339 56.04 908.326 56.76 907.366 57.56C906.406 58.3067 905.659 59.1333 905.126 60.04C905.019 60.4133 905.126 60.84 905.446 61.32C905.766 61.8 906.192 62.1733 906.726 62.44C907.259 62.6533 907.792 62.6267 908.326 62.36Z" fill="#111827"/>
<defs>
<clipPath id="clip0_141_5824">
<rect width="207.45" height="101" fill="white" transform="translate(157.66)"/>
</clipPath>
<clipPath id="clip1_141_5824">
<rect width="207.45" height="43.5645" fill="white" transform="translate(157.66 34.4609)"/>
</clipPath>
<clipPath id="clip2_141_5824">
<rect width="129.05" height="101" fill="white" transform="translate(789.281)"/>
</clipPath>
<clipPath id="clip3_141_5824">
<rect width="129.05" height="64.525" fill="white" transform="translate(789.281 36.4746)"/>
</clipPath>
</defs>
</svg>
