<?xml version="1.0" encoding="UTF-8"?>
<svg version="1.1" xmlns="http://www.w3.org/2000/svg" width="192" height="194">
<path d="M0 0 C63.36 0 126.72 0 192 0 C192 64.02 192 128.04 192 194 C128.64 194 65.28 194 0 194 C0 129.98 0 65.96 0 0 Z " fill="#E87D3E" transform="translate(0,0)"/>
<path d="M0 0 C63.36 0 126.72 0 192 0 C192 64.02 192 128.04 192 194 C128.64 194 65.28 194 0 194 C0 129.98 0 65.96 0 0 Z M60 25 C59.06414063 25.45375 58.12828125 25.9075 57.1640625 26.375 C37.15110002 36.68980419 23.91655366 54.42394141 16.81347656 75.46923828 C9.98500527 97.12844786 13.57565696 121.33269931 23.6328125 141.23046875 C34.55362183 160.86252831 51.7265125 174.6991501 73.125 181.4375 C80.98096187 183.66635432 88.0433503 184.18275122 96.1875 184.1875 C97.27353516 184.19974609 98.35957031 184.21199219 99.47851562 184.22460938 C119.6950721 184.2610356 137.92327542 176.33442204 153 163 C153.90878906 162.19820312 154.81757813 161.39640625 155.75390625 160.5703125 C171.55359177 145.75948073 179.47108223 126.42887631 180.25390625 104.92578125 C180.84254666 80.43655646 174.90265394 61.83892827 159 43 C158.43796875 42.32324219 157.8759375 41.64648438 157.296875 40.94921875 C143.79544545 26.11810295 120.90848341 17.69128075 101.3671875 16.72265625 C86.68258375 16.28713991 73.32787471 18.53800014 60 25 Z " fill="#FDFDFD" transform="translate(0,0)"/>
<path d="M0 0 C12.69866205 10.19906909 12.69866205 10.19906909 14 17 C14.10612217 19.00839915 14.15851821 21.0198899 14.17700195 23.03100586 C14.19625481 24.85957375 14.19625481 24.85957375 14.21589661 26.7250824 C14.22328354 28.04170364 14.23067047 29.35832489 14.23828125 30.71484375 C14.24235678 31.39000093 14.2464323 32.06515812 14.25063133 32.76077461 C14.27147145 36.34189671 14.28577599 39.92298085 14.29516602 43.50415039 C14.30616192 47.16871234 14.34048683 50.83265554 14.38033772 54.49700069 C14.40674431 57.34297149 14.41487936 60.18880103 14.41844749 63.0348835 C14.42557295 65.03147736 14.45191562 67.02797372 14.47883606 69.0243988 C14.45101181 80.88820809 12.24711493 92.96581601 4 102 C-2.62307331 107.92479402 -9.50334301 111.54454408 -18 114 C-18.69867188 114.21269531 -19.39734375 114.42539063 -20.1171875 114.64453125 C-39.13975941 119.95404429 -57.99391532 117.00304234 -75.375 108.3125 C-82.4425635 102.08631311 -85.3559823 93.84771949 -86.21875 84.67407227 C-86.77236201 73.70217417 -86.76252556 63.30334266 -79.875 54.1875 C-67.73031591 44.9469795 -54.98290549 41.31524783 -40.25 38.4375 C-37.31561701 37.86279953 -34.38389774 37.27639516 -31.453125 36.68359375 C-30.16567383 36.43150146 -28.87822266 36.17940918 -27.55175781 35.91967773 C-24.03896725 35.01009002 -21.17021441 33.74483959 -18 32 C-18.33 28.7 -18.66 25.4 -19 22 C-22.35296892 21.60836841 -25.70623829 21.23627202 -29.0625 20.875 C-30.47692383 20.70677734 -30.47692383 20.70677734 -31.91992188 20.53515625 C-38.72621714 19.82369681 -44.03237203 19.78224095 -49.75268555 24.05712891 C-53.57713176 26.34529844 -55.72890973 26.46617248 -60.1484375 26.390625 C-60.80582916 26.38496521 -61.46322083 26.37930542 -62.14053345 26.37347412 C-64.21946191 26.35126275 -66.29660163 26.3011042 -68.375 26.25 C-69.79294368 26.22991489 -71.21091465 26.21166765 -72.62890625 26.1953125 C-76.08650877 26.15145067 -79.54307951 26.08253437 -83 26 C-80.67634972 14.48743973 -76.6635764 7.07733079 -67 0 C-49.49088351 -11.38684096 -17.63010106 -12.28673139 0 0 Z " fill="#FDFAF7" transform="translate(133,46)"/>
<path d="M0 0 C0.66839368 21.56188504 0.66839368 21.56188504 -5.5625 29.5625 C-6.366875 30.366875 -7.17125 31.17125 -8 32 C-8.66 32 -9.32 32 -10 32 C-10 32.66 -10 33.32 -10 34 C-17.96083226 37.37732278 -26.89659161 38.90512153 -35.1875 35.6875 C-38 34 -38 34 -39 31 C-39.66 31 -40.32 31 -41 31 C-42.49779325 25.68156463 -43.09258838 20.44865971 -42 15 C-39.50708373 11.75863312 -36.56219373 9.94251732 -33 8 C-32.31550781 7.61457031 -31.63101563 7.22914062 -30.92578125 6.83203125 C-21.57887001 2.18528109 -10.41571217 -0.73092717 0 0 Z " fill="#E87E3F" transform="translate(118,102)"/>
</svg>
